<svg width="16" height="112" viewBox="0 0 16 112" fill="none" xmlns="http://www.w3.org/2000/svg">
<path d="M9 56L9.021 56.9998L9 56ZM8.48286 111.856C8.95556 112.142 9.57029 111.99 9.8559 111.517L14.5101 103.814C14.7957 103.341 14.6441 102.727 14.1714 102.441C13.6987 102.155 13.0839 102.307 12.7983 102.78L8.66123 109.627L1.81401 105.49C1.34131 105.204 0.726577 105.356 0.44097 105.829C0.155362 106.301 0.307033 106.916 0.779735 107.202L8.48286 111.856ZM9 1C8.02911 1.23954 8.02914 1.23964 8.02921 1.23995C8.02931 1.24033 8.02943 1.24084 8.02962 1.2416C8.02999 1.24311 8.03057 1.24545 8.03135 1.24862C8.0329 1.25494 8.03526 1.26455 8.0384 1.2774C8.04469 1.30309 8.05412 1.34171 8.06653 1.39285C8.09136 1.49512 8.12812 1.64746 8.17559 1.84652C8.27053 2.24465 8.40827 2.82965 8.57895 3.57489C8.92032 5.06548 9.39329 7.19652 9.91889 9.7551C10.9706 14.8749 12.2307 21.6948 13.07 28.5158C13.9115 35.3552 14.3201 42.1217 13.7027 47.1651C13.393 49.695 12.8359 51.6916 12.0207 53.0371C11.2329 54.3375 10.25 54.9735 8.979 55.0002L9.021 56.9998C11.125 56.9556 12.6733 55.8197 13.7313 54.0735C14.7618 52.3724 15.3648 50.0478 15.6879 47.4081C16.3361 42.1125 15.901 35.1466 15.055 28.2715C14.2068 21.3779 12.9356 14.501 11.878 9.35265C11.3489 6.77712 10.8726 4.63123 10.5285 3.12841C10.3564 2.37695 10.2173 1.78612 10.121 1.3826C10.0729 1.18084 10.0355 1.02589 10.0101 0.921093C9.99738 0.868693 9.98765 0.828829 9.98106 0.801918C9.97777 0.788462 9.97526 0.778245 9.97356 0.771317C9.97271 0.767853 9.97206 0.765212 9.97161 0.7634C9.97139 0.762494 9.97121 0.761758 9.97109 0.761304C9.97096 0.760776 9.97089 0.760456 9 1ZM8.979 55.0002C6.87499 55.0444 5.32665 56.1803 4.26873 57.9265C3.23821 59.6276 2.63522 61.9522 2.31209 64.5919C1.66385 69.8875 2.09904 76.8534 2.94498 83.7285C3.7932 90.6221 5.06439 97.499 6.12201 102.647C6.6511 105.223 7.12735 107.369 7.47152 108.872C7.64362 109.623 7.78273 110.214 7.87895 110.617C7.92707 110.819 7.96446 110.974 7.9899 111.079C8.00262 111.131 8.01235 111.171 8.01893 111.198C8.02223 111.212 8.02473 111.222 8.02644 111.229C8.02729 111.232 8.02794 111.235 8.02838 111.237C8.02861 111.238 8.02879 111.238 8.0289 111.239C8.02903 111.239 8.02911 111.24 9 111C9.97088 110.76 9.97086 110.76 9.97078 110.76C9.97069 110.76 9.97056 110.759 9.97038 110.758C9.97 110.757 9.96943 110.755 9.96865 110.751C9.96709 110.745 9.96473 110.735 9.96159 110.723C9.9553 110.697 9.94588 110.658 9.93346 110.607C9.90864 110.505 9.87187 110.353 9.82441 110.153C9.72947 109.755 9.59172 109.17 9.42105 108.425C9.07968 106.935 8.60671 104.803 8.0811 102.245C7.02935 97.1251 5.76929 90.3052 4.93001 83.4842C4.08845 76.6448 3.6799 69.8783 4.29728 64.8349C4.60696 62.305 5.16412 60.3084 5.97931 58.9629C6.76709 57.6625 7.75 57.0265 9.021 56.9998L8.979 55.0002Z" fill="#0062A3"/>
</svg>
