<svg width="111" height="29" viewBox="0 0 111 29" fill="none" xmlns="http://www.w3.org/2000/svg">
<path d="M55.0108 11.2912L55.9992 11.4432L55.0108 11.2912ZM109.761 21.4528C110.126 21.0387 110.087 20.4067 109.672 20.0413L102.924 14.0867C102.51 13.7213 101.878 13.7608 101.512 14.1749C101.147 14.5891 101.187 15.221 101.601 15.5864L107.599 20.8794L102.306 26.8781C101.941 27.2922 101.98 27.9241 102.395 28.2895C102.809 28.6549 103.441 28.6155 103.806 28.2013L109.761 21.4528ZM1.01081 1.79116C1.07318 2.78922 1.07329 2.78921 1.0736 2.78919C1.07399 2.78917 1.07452 2.78913 1.07529 2.78909C1.07685 2.78899 1.07924 2.78884 1.08248 2.78864C1.08896 2.78824 1.0988 2.78764 1.11195 2.78684C1.13824 2.78525 1.17777 2.78287 1.23008 2.7798C1.3347 2.77365 1.49049 2.76469 1.69397 2.75353C2.10093 2.73122 2.69859 2.70012 3.45914 2.66511C4.98034 2.59508 7.15259 2.50943 9.7535 2.44713C14.958 2.32247 21.8671 2.29163 28.7063 2.66468C35.5638 3.03872 42.2781 3.81561 47.1281 5.27974C49.5612 6.01429 51.4294 6.89451 52.6139 7.9098C53.76 8.89219 54.2074 9.93667 54.0224 11.1391L55.9992 11.4432C56.3142 9.39566 55.4491 7.70576 53.9155 6.39128C52.4203 5.10969 50.2416 4.13054 47.7061 3.36509C42.6185 1.82922 35.7078 1.04361 28.8153 0.667649C21.9045 0.2907 14.9387 0.322359 9.70561 0.447701C7.08777 0.510404 4.90064 0.596628 3.36716 0.667223C2.60037 0.702522 1.99686 0.733922 1.58448 0.756532C1.37829 0.767836 1.21987 0.776944 1.1127 0.783245C1.05912 0.786395 1.01835 0.788843 0.990824 0.790513C0.977062 0.791348 0.966612 0.791988 0.959528 0.792425C0.955986 0.792643 0.953285 0.79281 0.951433 0.792925C0.950507 0.792982 0.949756 0.793029 0.949292 0.793058C0.948754 0.793092 0.948428 0.793112 1.01081 1.79116ZM54.0224 11.1391C53.7074 13.1867 54.5725 14.8766 56.1061 16.191C57.6013 17.4726 59.78 18.4518 62.3155 19.2172C67.4031 20.7531 74.3138 21.5387 81.2063 21.9147C88.1171 22.2916 95.0829 22.26 100.316 22.1346C102.934 22.0719 105.121 21.9857 106.654 21.9151C107.421 21.8798 108.025 21.8484 108.437 21.8258C108.643 21.8145 108.802 21.8054 108.909 21.7991C108.962 21.7959 109.003 21.7935 109.031 21.7918C109.045 21.791 109.055 21.7903 109.062 21.7899C109.066 21.7897 109.068 21.7895 109.07 21.7894C109.071 21.7893 109.072 21.7893 109.072 21.7893C109.073 21.7892 109.073 21.7892 109.011 20.7912C108.948 19.7931 108.948 19.7931 108.948 19.7931C108.948 19.7932 108.947 19.7932 108.946 19.7932C108.945 19.7933 108.942 19.7935 108.939 19.7937C108.933 19.7941 108.923 19.7947 108.91 19.7955C108.883 19.7971 108.844 19.7995 108.792 19.8025C108.687 19.8087 108.531 19.8176 108.328 19.8288C107.921 19.8511 107.323 19.8822 106.562 19.9172C105.041 19.9873 102.869 20.0729 100.268 20.1352C95.0637 20.2599 88.1545 20.2907 81.3153 19.9176C74.4578 19.5436 67.7435 18.7667 62.8936 17.3026C60.4604 16.568 58.5922 15.6878 57.4077 14.6725C56.2616 13.6901 55.8142 12.6457 55.9992 11.4432L54.0224 11.1391Z" fill="#0062A3"/>
</svg>
