<svg width="175" height="160" viewBox="0 0 175 160" fill="none" xmlns="http://www.w3.org/2000/svg">
<mask id="path-1-inside-1_1086_10781" fill="white">
<path d="M0 4C0 1.79086 1.79086 0 4 0H171C173.209 0 175 1.79086 175 4V156C175 158.209 173.209 160 171 160H4C1.79086 160 0 158.209 0 156V4Z"/>
</mask>
<path d="M0 4C0 1.79086 1.79086 0 4 0H171C173.209 0 175 1.79086 175 4V156C175 158.209 173.209 160 171 160H4C1.79086 160 0 158.209 0 156V4Z" fill="white"/>
<path d="M4 1H171V-1H4V1ZM174 4V156H176V4H174ZM171 159H4V161H171V159ZM1 156V4H-1V156H1ZM4 159C2.34314 159 1 157.657 1 156H-1C-1 158.761 1.23857 161 4 161V159ZM174 156C174 157.657 172.657 159 171 159V161C173.761 161 176 158.761 176 156H174ZM171 1C172.657 1 174 2.34315 174 4H176C176 1.23858 173.761 -1 171 -1V1ZM4 -1C1.23858 -1 -1 1.23857 -1 4H1C1 2.34314 2.34314 1 4 1V-1Z" fill="#EFEFF8" mask="url(#path-1-inside-1_1086_10781)"/>
<path d="M87.5 36.5C74.252 36.5 63.5 47.252 63.5 60.5C63.5 73.748 74.252 84.5 87.5 84.5C100.748 84.5 111.5 73.748 111.5 60.5C111.5 47.252 100.748 36.5 87.5 36.5ZM98.636 52.82C98.276 56.612 96.716 65.828 95.924 70.076C95.588 71.876 94.916 72.476 94.292 72.548C92.9 72.668 91.844 71.636 90.5 70.748C88.388 69.356 87.188 68.492 85.148 67.148C82.772 65.588 84.308 64.724 85.676 63.332C86.036 62.972 92.18 57.38 92.3 56.876C92.3167 56.7997 92.3145 56.7204 92.2935 56.6451C92.2726 56.5698 92.2337 56.5008 92.18 56.444C92.036 56.324 91.844 56.372 91.676 56.396C91.46 56.444 88.1 58.676 81.548 63.092C80.588 63.74 79.724 64.076 78.956 64.052C78.092 64.028 76.46 63.572 75.236 63.164C73.724 62.684 72.548 62.42 72.644 61.58C72.692 61.148 73.292 60.716 74.42 60.26C81.428 57.212 86.084 55.196 88.412 54.236C95.084 51.452 96.452 50.972 97.364 50.972C97.556 50.972 98.012 51.02 98.3 51.26C98.54 51.452 98.612 51.716 98.636 51.908C98.612 52.052 98.66 52.484 98.636 52.82Z" fill="#0A0A14"/>
<path d="M55.6347 107.708V106.448H64.7607V107.708H60.9087V117.5H59.4867V107.708H55.6347ZM70.3407 115.106H71.6187C71.3307 116.618 70.1967 117.662 68.3967 117.662C66.2187 117.662 64.7247 115.988 64.7247 113.522C64.7247 111.128 66.1827 109.346 68.3607 109.346C70.5567 109.346 71.7267 110.948 71.7267 113.27V113.756H66.0747C66.0927 115.466 67.0467 116.51 68.3967 116.51C69.3867 116.51 70.1247 116.006 70.3407 115.106ZM68.3787 110.498C67.1727 110.498 66.3087 111.326 66.1107 112.73H70.3587C70.3407 111.542 69.7107 110.498 68.3787 110.498ZM74.8773 105.8V117.5H73.5273V105.8H74.8773ZM82.329 115.106H83.607C83.319 116.618 82.185 117.662 80.385 117.662C78.207 117.662 76.713 115.988 76.713 113.522C76.713 111.128 78.171 109.346 80.349 109.346C82.545 109.346 83.715 110.948 83.715 113.27V113.756H78.063C78.081 115.466 79.035 116.51 80.385 116.51C81.375 116.51 82.113 116.006 82.329 115.106ZM80.367 110.498C79.161 110.498 78.297 111.326 78.099 112.73H82.347C82.329 111.542 81.699 110.498 80.367 110.498ZM90.7536 116.96V116.366C90.3576 116.924 89.5116 117.446 88.5216 117.446C86.1816 117.446 84.9396 115.502 84.9396 113.396C84.9396 111.272 86.1816 109.346 88.5216 109.346C89.5116 109.346 90.3576 109.85 90.7536 110.408V109.508H92.1216V116.87C92.1216 119.498 90.6096 120.74 88.5576 120.74C86.6136 120.74 85.3896 119.732 85.1376 118.094H86.4696C86.7036 119.102 87.4596 119.588 88.5576 119.588C89.9976 119.588 90.7536 118.688 90.7536 116.96ZM90.7536 114.98V111.794C90.3396 111.038 89.5836 110.552 88.7196 110.552C87.2076 110.552 86.3256 111.74 86.3256 113.396C86.3256 115.034 87.2076 116.222 88.7196 116.222C89.5836 116.222 90.3396 115.736 90.7536 114.98ZM98.6371 109.472V110.858C98.4211 110.714 98.0791 110.642 97.7371 110.642C96.8911 110.642 96.1531 111.2 95.8831 112.136V117.5H94.5331V109.508H95.8831V110.552C96.2251 109.868 96.9811 109.346 97.8631 109.346C98.2051 109.346 98.4931 109.4 98.6371 109.472ZM105.901 117.5H104.605V116.906C104.299 117.23 103.453 117.644 102.499 117.644C100.879 117.644 99.5294 116.672 99.5294 115.088C99.5294 113.594 100.879 112.586 102.589 112.586C103.417 112.586 104.263 112.928 104.605 113.234V112.226C104.605 111.236 103.993 110.516 102.841 110.516C101.995 110.516 101.455 110.876 101.203 111.614H99.8714C100.141 110.264 101.329 109.346 102.859 109.346C104.767 109.346 105.901 110.426 105.901 112.172V117.5ZM104.605 115.52V114.692C104.371 114.098 103.561 113.702 102.733 113.702C101.761 113.702 100.825 114.134 100.825 115.088C100.825 116.06 101.761 116.51 102.733 116.51C103.561 116.51 104.371 116.114 104.605 115.52ZM113.879 110.624C114.383 109.904 115.193 109.346 116.309 109.346C117.929 109.346 118.829 110.48 118.829 112.208V117.5H117.461V112.424C117.461 111.308 116.975 110.57 115.949 110.57C115.139 110.57 114.437 111.128 114.185 111.992V117.5H112.835V112.424C112.835 111.308 112.349 110.57 111.323 110.57C110.513 110.57 109.811 111.128 109.559 111.992V117.5H108.209V109.508H109.559V110.444C109.955 109.814 110.729 109.346 111.719 109.346C112.727 109.346 113.501 109.868 113.879 110.624Z" fill="#8A8A8A"/>
<a href="https://@olgauvva">
<rect fill="black" fill-opacity="0" x="48.0947" y="3.526" width="55.8142" height="21.6"/>
</a>
</svg>
