<svg width="175" height="160" viewBox="0 0 175 160" fill="none" xmlns="http://www.w3.org/2000/svg">
<mask id="path-1-inside-1_1086_10782" fill="white">
<path d="M0 4C0 1.79086 1.79086 0 4 0H171C173.209 0 175 1.79086 175 4V156C175 158.209 173.209 160 171 160H4C1.79086 160 0 158.209 0 156V4Z"/>
</mask>
<path d="M0 4C0 1.79086 1.79086 0 4 0H171C173.209 0 175 1.79086 175 4V156C175 158.209 173.209 160 171 160H4C1.79086 160 0 158.209 0 156V4Z" fill="white"/>
<path d="M4 1H171V-1H4V1ZM174 4V156H176V4H174ZM171 159H4V161H171V159ZM1 156V4H-1V156H1ZM4 159C2.34314 159 1 157.657 1 156H-1C-1 158.761 1.23857 161 4 161V159ZM174 156C174 157.657 172.657 159 171 159V161C173.761 161 176 158.761 176 156H174ZM171 1C172.657 1 174 2.34315 174 4H176C176 1.23858 173.761 -1 171 -1V1ZM4 -1C1.23858 -1 -1 1.23857 -1 4H1C1 2.34314 2.34314 1 4 1V-1Z" fill="#EFEFF8" mask="url(#path-1-inside-1_1086_10782)"/>
<g clip-path="url(#clip0_1086_10782)">
<g clip-path="url(#clip1_1086_10782)">
<g clip-path="url(#clip2_1086_10782)">
<path d="M108.404 36.5H66.596C64.8954 36.5 63.5 37.8989 63.5 39.596V81.404C63.5 83.1011 64.8954 84.5 66.596 84.5H108.404C110.101 84.5 111.5 83.1011 111.5 81.404V39.596C111.5 37.8989 110.101 36.5 108.404 36.5ZM103.059 50.9034H99.0886C95.9754 50.9034 95.372 52.3846 95.372 54.5549V59.3446H102.798L101.831 66.8394H95.372V84.1434H87.6303V66.8394H81.1537V59.3411H87.6303V53.8109C87.6303 47.3926 91.5491 43.8989 97.2749 43.8989C100.018 43.8989 102.373 44.1046 103.059 44.1971V50.9034Z" fill="#0A0A14"/>
</g>
</g>
</g>
<path d="M56.486 117.5H55.064V106.448H61.814V107.708H56.486V111.434H61.49V112.694H56.486V117.5ZM69.2774 117.5H67.9814V116.906C67.6754 117.23 66.8294 117.644 65.8754 117.644C64.2554 117.644 62.9054 116.672 62.9054 115.088C62.9054 113.594 64.2554 112.586 65.9654 112.586C66.7934 112.586 67.6394 112.928 67.9814 113.234V112.226C67.9814 111.236 67.3694 110.516 66.2174 110.516C65.3714 110.516 64.8314 110.876 64.5794 111.614H63.2474C63.5174 110.264 64.7054 109.346 66.2354 109.346C68.1434 109.346 69.2774 110.426 69.2774 112.172V117.5ZM67.9814 115.52V114.692C67.7474 114.098 66.9374 113.702 66.1094 113.702C65.1374 113.702 64.2014 114.134 64.2014 115.088C64.2014 116.06 65.1374 116.51 66.1094 116.51C66.9374 116.51 67.7474 116.114 67.9814 115.52ZM71.0089 113.504C71.0089 111.02 72.5029 109.346 74.6449 109.346C76.4449 109.346 77.5789 110.39 77.8489 111.92H76.4629C76.2829 111.056 75.5989 110.534 74.6449 110.534C73.2769 110.534 72.3769 111.758 72.3769 113.504C72.3769 115.25 73.2769 116.474 74.6449 116.474C75.5989 116.474 76.2829 115.952 76.4629 115.088H77.8489C77.5789 116.618 76.4449 117.662 74.6449 117.662C72.5029 117.662 71.0089 115.988 71.0089 113.504ZM84.623 115.106H85.901C85.613 116.618 84.479 117.662 82.679 117.662C80.501 117.662 79.007 115.988 79.007 113.522C79.007 111.128 80.465 109.346 82.643 109.346C84.839 109.346 86.009 110.948 86.009 113.27V113.756H80.357C80.375 115.466 81.329 116.51 82.679 116.51C83.669 116.51 84.407 116.006 84.623 115.106ZM82.661 110.498C81.455 110.498 80.591 111.326 80.393 112.73H84.641C84.623 111.542 83.993 110.498 82.661 110.498ZM89.1595 116.564V117.5H87.7915V105.8H89.1595V110.444C89.5555 109.868 90.4195 109.346 91.4095 109.346C93.7495 109.346 95.0095 111.254 95.0095 113.504C95.0095 115.772 93.7495 117.662 91.4095 117.662C90.4195 117.662 89.5555 117.14 89.1595 116.564ZM89.1595 111.884V115.124C89.5735 115.952 90.3655 116.438 91.2115 116.438C92.7415 116.438 93.6415 115.196 93.6415 113.504C93.6415 111.812 92.7415 110.57 91.2115 110.57C90.3655 110.57 89.5735 111.056 89.1595 111.884ZM103.648 113.504C103.648 115.952 102.154 117.662 99.9758 117.662C97.7798 117.662 96.3038 115.952 96.3038 113.504C96.3038 111.056 97.7798 109.346 99.9758 109.346C102.154 109.346 103.648 111.056 103.648 113.504ZM102.28 113.504C102.28 111.758 101.416 110.534 99.9758 110.534C98.5358 110.534 97.6718 111.758 97.6718 113.504C97.6718 115.25 98.5358 116.474 99.9758 116.474C101.416 116.474 102.28 115.25 102.28 113.504ZM112.279 113.504C112.279 115.952 110.785 117.662 108.607 117.662C106.411 117.662 104.935 115.952 104.935 113.504C104.935 111.056 106.411 109.346 108.607 109.346C110.785 109.346 112.279 111.056 112.279 113.504ZM110.911 113.504C110.911 111.758 110.047 110.534 108.607 110.534C107.167 110.534 106.303 111.758 106.303 113.504C106.303 115.25 107.167 116.474 108.607 116.474C110.047 116.474 110.911 115.25 110.911 113.504ZM119.362 117.5L116.32 113.81L115.456 114.638V117.5H114.106V105.8H115.456V113.054L119.11 109.508H120.892L117.292 112.964L121.018 117.5H119.362Z" fill="#8A8A8A"/>
<a href="https://facebook.com/Olga.uvva">
<rect fill="black" fill-opacity="0" x="37.75" y="3.526" width="67.5024" height="21.6"/>
</a>
<defs>
<clipPath id="clip0_1086_10782">
<rect width="48" height="48" fill="white" transform="translate(63.5 36.5)"/>
</clipPath>
<clipPath id="clip1_1086_10782">
<rect width="48" height="48" fill="white" transform="translate(63.5 36.5)"/>
</clipPath>
<clipPath id="clip2_1086_10782">
<rect width="48" height="48" fill="white" transform="translate(63.5 36.5)"/>
</clipPath>
</defs>
</svg>
