<svg width="175" height="160" viewBox="0 0 175 160" fill="none" xmlns="http://www.w3.org/2000/svg">
<mask id="path-1-inside-1_1086_10780" fill="white">
<path d="M0 4C0 1.79086 1.79086 0 4 0H171C173.209 0 175 1.79086 175 4V156C175 158.209 173.209 160 171 160H4C1.79086 160 0 158.209 0 156V4Z"/>
</mask>
<path d="M0 4C0 1.79086 1.79086 0 4 0H171C173.209 0 175 1.79086 175 4V156C175 158.209 173.209 160 171 160H4C1.79086 160 0 158.209 0 156V4Z" fill="white"/>
<path d="M4 1H171V-1H4V1ZM174 4V156H176V4H174ZM171 159H4V161H171V159ZM1 156V4H-1V156H1ZM4 159C2.34314 159 1 157.657 1 156H-1C-1 158.761 1.23857 161 4 161V159ZM174 156C174 157.657 172.657 159 171 159V161C173.761 161 176 158.761 176 156H174ZM171 1C172.657 1 174 2.34315 174 4H176C176 1.23858 173.761 -1 171 -1V1ZM4 -1C1.23858 -1 -1 1.23857 -1 4H1C1 2.34314 2.34314 1 4 1V-1Z" fill="#EFEFF8" mask="url(#path-1-inside-1_1086_10780)"/>
<g clip-path="url(#clip0_1086_10780)">
<g clip-path="url(#clip1_1086_10780)">
<g clip-path="url(#clip2_1086_10780)">
<path d="M107.368 37.5156H67.5892C65.6845 37.5156 64.1406 39.0124 64.1406 40.8597V80.8444C64.1406 82.6919 65.685 84.1899 67.5892 84.1899H107.368C109.272 84.1899 110.814 82.6909 110.814 80.8444V40.8597C110.814 39.0129 109.272 37.5156 107.368 37.5156ZM78.2908 76.5852H71.2387V55.5123H78.2908V76.5852ZM74.7654 52.6334H74.718C72.3532 52.6334 70.8202 51.0161 70.8202 48.9913C70.8202 46.9257 72.3982 45.3523 74.8099 45.3523C77.2219 45.3523 78.7055 46.9253 78.7524 48.9913C78.7524 51.0165 77.2224 52.6334 74.7654 52.6334ZM103.711 76.5852H96.6616V65.3105C96.6616 62.4775 95.6402 60.5444 93.0907 60.5444C91.1404 60.5444 89.9826 61.8485 89.4742 63.1076C89.2858 63.5573 89.2392 64.1862 89.2392 64.8143V76.5847H82.1907C82.1907 76.5847 82.2829 57.4884 82.1907 55.512H89.2403V58.4995C90.1761 57.064 91.8484 55.0162 95.5921 55.0162C100.232 55.0162 103.711 58.0263 103.711 64.5019V76.5852ZM89.1947 58.6793C89.2271 58.6261 89.2724 58.5621 89.3175 58.4998V58.6793H89.1947Z" fill="#0A0A14"/>
</g>
</g>
</g>
<path d="M59.0015 117V105.948H60.4235V115.722H66.0575V117H59.0015ZM69.3138 109.008V117H67.9638V109.008H69.3138ZM69.5118 106.596C69.5118 107.064 69.1158 107.46 68.6298 107.46C68.1618 107.46 67.7658 107.064 67.7658 106.596C67.7658 106.11 68.1618 105.732 68.6298 105.732C69.1158 105.732 69.5118 106.11 69.5118 106.596ZM71.7255 117V109.008H73.0755V110.016C73.5435 109.386 74.4075 108.846 75.4335 108.846C77.2515 108.846 78.2415 110.016 78.2415 111.762V117H76.8735V111.978C76.8735 110.862 76.3155 110.088 75.1095 110.088C74.1735 110.088 73.3635 110.718 73.0755 111.582V117H71.7255ZM85.7882 117L82.7462 113.31L81.8822 114.138V117H80.5322V105.3H81.8822V112.554L85.5362 109.008H87.3182L83.7182 112.464L87.4442 117H85.7882ZM93.6933 114.606H94.9713C94.6833 116.118 93.5493 117.162 91.7493 117.162C89.5713 117.162 88.0773 115.488 88.0773 113.022C88.0773 110.628 89.5353 108.846 91.7133 108.846C93.9093 108.846 95.0793 110.448 95.0793 112.77V113.256H89.4273C89.4453 114.966 90.3993 116.01 91.7493 116.01C92.7393 116.01 93.4773 115.506 93.6933 114.606ZM91.7313 109.998C90.5253 109.998 89.6613 110.826 89.4633 112.23H93.7113C93.6933 111.042 93.0633 109.998 91.7313 109.998ZM102.189 117V116.064C101.793 116.64 100.929 117.162 99.939 117.162C97.599 117.162 96.339 115.272 96.339 113.004C96.339 110.754 97.599 108.846 99.939 108.846C100.929 108.846 101.793 109.368 102.189 109.944V105.3H103.557V117H102.189ZM102.189 114.624V111.384C101.775 110.556 100.983 110.07 100.137 110.07C98.607 110.07 97.707 111.312 97.707 113.004C97.707 114.696 98.607 115.938 100.137 115.938C100.983 115.938 101.775 115.452 102.189 114.624ZM107.3 109.008V117H105.95V109.008H107.3ZM107.498 106.596C107.498 107.064 107.102 107.46 106.616 107.46C106.148 107.46 105.752 107.064 105.752 106.596C105.752 106.11 106.148 105.732 106.616 105.732C107.102 105.732 107.498 106.11 107.498 106.596ZM109.712 117V109.008H111.062V110.016C111.53 109.386 112.394 108.846 113.42 108.846C115.238 108.846 116.228 110.016 116.228 111.762V117H114.86V111.978C114.86 110.862 114.302 110.088 113.096 110.088C112.16 110.088 111.35 110.718 111.062 111.582V117H109.712Z" fill="#8A8A8A"/>
<a href="https://linkedin.com/in/olga-uvarova">
<rect fill="black" fill-opacity="0" x="41.6875" y="3.526" width="59.6204" height="21.6"/>
</a>
<defs>
<clipPath id="clip0_1086_10780">
<rect width="46.77" height="46.77" fill="white" transform="translate(64.1406 37.5156)"/>
</clipPath>
<clipPath id="clip1_1086_10780">
<rect width="46.77" height="46.77" fill="white" transform="translate(64.1406 37.5156)"/>
</clipPath>
<clipPath id="clip2_1086_10780">
<rect width="46.77" height="46.77" fill="white" transform="translate(64.1406 37.5156)"/>
</clipPath>
</defs>
</svg>
