<svg width="175" height="160" viewBox="0 0 175 160" fill="none" xmlns="http://www.w3.org/2000/svg">
<mask id="path-1-inside-1_1086_10779" fill="white">
<path d="M0 4C0 1.79086 1.79086 0 4 0H171C173.209 0 175 1.79086 175 4V156C175 158.209 173.209 160 171 160H4C1.79086 160 0 158.209 0 156V4Z"/>
</mask>
<path d="M0 4C0 1.79086 1.79086 0 4 0H171C173.209 0 175 1.79086 175 4V156C175 158.209 173.209 160 171 160H4C1.79086 160 0 158.209 0 156V4Z" fill="white"/>
<path d="M4 1H171V-1H4V1ZM174 4V156H176V4H174ZM171 159H4V161H171V159ZM1 156V4H-1V156H1ZM4 159C2.34314 159 1 157.657 1 156H-1C-1 158.761 1.23857 161 4 161V159ZM174 156C174 157.657 172.657 159 171 159V161C173.761 161 176 158.761 176 156H174ZM171 1C172.657 1 174 2.34315 174 4H176C176 1.23858 173.761 -1 171 -1V1ZM4 -1C1.23858 -1 -1 1.23857 -1 4H1C1 2.34314 2.34314 1 4 1V-1Z" fill="#EFEFF8" mask="url(#path-1-inside-1_1086_10779)"/>
<path d="M106.425 41.5H67.825C65.1712 41.5 63.0241 43.6712 63.0241 46.325L63 75.275C63 77.9287 65.1712 80.1 67.825 80.1H106.425C109.079 80.1 111.25 77.9287 111.25 75.275V46.325C111.25 43.6712 109.079 41.5 106.425 41.5ZM106.425 51.15L87.125 63.2125L67.825 51.15V46.325L87.125 58.3875L106.425 46.325V51.15Z" fill="#0A0A14"/>
<path d="M69.9175 106.448H76.9555V107.708H71.3215V111.2H76.4335V112.46H71.3215V116.222H76.9555V117.5H69.9175V106.448ZM84.7432 110.624C85.2472 109.904 86.0572 109.346 87.1732 109.346C88.7932 109.346 89.6932 110.48 89.6932 112.208V117.5H88.3252V112.424C88.3252 111.308 87.8392 110.57 86.8132 110.57C86.0032 110.57 85.3012 111.128 85.0492 111.992V117.5H83.6992V112.424C83.6992 111.308 83.2132 110.57 82.1872 110.57C81.3772 110.57 80.6752 111.128 80.4232 111.992V117.5H79.0732V109.508H80.4232V110.444C80.8192 109.814 81.5932 109.346 82.5832 109.346C83.5912 109.346 84.3652 109.868 84.7432 110.624ZM97.7715 117.5H96.4755V116.906C96.1695 117.23 95.3235 117.644 94.3695 117.644C92.7495 117.644 91.3995 116.672 91.3995 115.088C91.3995 113.594 92.7495 112.586 94.4595 112.586C95.2875 112.586 96.1335 112.928 96.4755 113.234V112.226C96.4755 111.236 95.8635 110.516 94.7115 110.516C93.8655 110.516 93.3255 110.876 93.0735 111.614H91.7415C92.0115 110.264 93.1995 109.346 94.7295 109.346C96.6375 109.346 97.7715 110.426 97.7715 112.172V117.5ZM96.4755 115.52V114.692C96.2415 114.098 95.4315 113.702 94.6035 113.702C93.6315 113.702 92.6955 114.134 92.6955 115.088C92.6955 116.06 93.6315 116.51 94.6035 116.51C95.4315 116.51 96.2415 116.114 96.4755 115.52ZM101.429 109.508V117.5H100.079V109.508H101.429ZM101.627 107.096C101.627 107.564 101.231 107.96 100.745 107.96C100.277 107.96 99.881 107.564 99.881 107.096C99.881 106.61 100.277 106.232 100.745 106.232C101.231 106.232 101.627 106.61 101.627 107.096ZM105.191 105.8V117.5H103.841V105.8H105.191Z" fill="#8A8A8A"/>
<a href="mailto:olga.uvva@gmail.com">
<rect fill="black" fill-opacity="0" x="61.8672" y="3.526" width="28.5296" height="21.6"/>
</a>
</svg>
