<svg width="15" height="15" viewBox="0 0 15 15" fill="none" xmlns="http://www.w3.org/2000/svg">
<path d="M0.703804 0.709804C0.316385 1.1002 0.318817 1.73659 0.70921 2.12401L12.0661 13.3944C12.4565 13.7818 13.0929 13.7794 13.4803 13.389C13.8677 12.9986 13.8653 12.3622 13.4749 11.9748L2.11801 0.704399C1.72762 0.316979 1.09122 0.319412 0.703804 0.709804Z" fill="#0A0A14"/>
<path d="M13.4355 0.706956C13.0466 0.318047 12.4102 0.318047 12.0213 0.706956L0.70755 12.0207C0.318641 12.4096 0.318641 13.046 0.70755 13.4349C1.09646 13.8238 1.73285 13.8238 2.12176 13.4349L13.4355 2.12117C13.8244 1.73226 13.8244 1.09586 13.4355 0.706956Z" fill="#0A0A14"/>
</svg>
