<svg width="24" height="24" viewBox="0 0 24 24" fill="none" xmlns="http://www.w3.org/2000/svg">
<g clip-path="url(#clip0_978_7881)">
<path d="M6.4704 1.34766C4.80437 2.21228 3.36441 3.45567 2.26622 4.97791C1.16803 6.50014 0.442249 8.25877 0.1472 10.1125H0.8432C5.3312 10.0085 8.8496 9.61966 11.7232 8.73966C10.4752 6.52686 8.952 4.35566 7.1248 2.14766L7.1232 2.14606L6.4704 1.34766ZM0.0032 11.7125L0 12.0005C0 15.2277 1.2736 18.1573 3.3456 20.3141L3.6032 19.7957L3.6512 19.7125C6.304 15.6773 9.3056 13.2773 12.6624 12.2005C12.8896 12.1269 13.1189 12.0597 13.3504 11.9989C13.0815 11.3828 12.795 10.7745 12.4912 10.1749C9.3472 11.1877 5.568 11.6037 0.8704 11.7109H0.0048" fill="url(#paint0_linear_978_7881)"/>
<path d="M4.57617 21.4288C6.69039 23.098 9.30647 24.004 12.0002 24C13.429 24 14.8002 23.7504 16.069 23.2928V22.1408C15.6786 19.0448 14.9922 16.2048 13.9602 13.4944C13.6882 13.5616 13.4183 13.6379 13.1506 13.7232C10.2354 14.6592 7.51057 16.768 5.01457 20.552L4.57617 21.4288ZM17.669 22.5792C19.2158 21.7495 20.562 20.5909 21.613 19.185C22.6639 17.7791 23.3941 16.16 23.7522 14.4416L22.8482 14.0336C20.2466 13.2688 17.8226 12.9552 15.5634 13.2096C16.5842 15.9616 17.2706 18.8512 17.6626 21.9904C17.6668 22.0224 17.669 22.0555 17.669 22.0896V22.5792ZM23.9746 12.7872C23.9916 12.5269 24.0002 12.2645 24.0002 12C24.0046 9.12237 22.9706 6.33975 21.0882 4.16322L20.6114 4.68962C18.7394 6.96642 16.6018 8.54562 14.0034 9.62082C14.3426 10.2981 14.6588 10.9829 14.9522 11.6752C17.6274 11.2912 20.4402 11.6528 23.3538 12.5152L23.4578 12.5536L23.9746 12.7872ZM19.9618 3.02082C17.7688 1.07057 14.9349 -0.00466024 12.0002 1.51837e-05C10.5954 1.51837e-05 9.24817 0.240015 7.99537 0.684815L8.36017 1.12962C10.3122 3.48642 11.9314 5.81602 13.253 8.19842C15.7218 7.20162 17.6786 5.74402 19.3874 3.65922L19.4114 3.63042L19.9618 3.02082Z" fill="url(#paint1_linear_978_7881)"/>
</g>
<defs>
<linearGradient id="paint0_linear_978_7881" x1="0" y1="10.8309" x2="13.3504" y2="10.8309" gradientUnits="userSpaceOnUse">
<stop stop-color="#0D99FF"/>
<stop offset="1" stop-color="#99FAF4"/>
</linearGradient>
<linearGradient id="paint1_linear_978_7881" x1="4.57617" y1="12" x2="24.0002" y2="12" gradientUnits="userSpaceOnUse">
<stop stop-color="#0D99FF"/>
<stop offset="1" stop-color="#99FAF4"/>
</linearGradient>
<clipPath id="clip0_978_7881">
<rect width="24" height="24" fill="white"/>
</clipPath>
</defs>
</svg>
