<svg width="24" height="24" viewBox="0 0 24 24" fill="none" xmlns="http://www.w3.org/2000/svg">
<g clip-path="url(#clip0_976_7861)">
<g clip-path="url(#clip1_976_7861)">
<g clip-path="url(#clip2_976_7861)">
<path d="M22.1821 0H1.76965C0.792223 0 0 0.768056 0 1.71603V22.2341C0 23.1822 0.792501 23.9509 1.76965 23.9509H22.1821C23.1593 23.9509 23.9506 23.1817 23.9506 22.2341V1.71603C23.9506 0.768334 23.1593 0 22.1821 0ZM7.26114 20.0485H3.64238V9.23499H7.26114V20.0485ZM5.45212 7.75768H5.42779C4.21425 7.75768 3.4276 6.92776 3.4276 5.88874C3.4276 4.82879 4.23736 4.02136 5.47495 4.02136C6.71265 4.02136 7.47397 4.82857 7.49802 5.88874C7.49802 6.92798 6.71293 7.75768 5.45212 7.75768ZM20.3057 20.0485H16.6881V14.2629C16.6881 12.8092 16.164 11.8172 14.8557 11.8172C13.8549 11.8172 13.2608 12.4864 12.9999 13.1325C12.9033 13.3633 12.8793 13.686 12.8793 14.0083V20.0483H9.26239C9.26239 20.0483 9.30972 10.249 9.26239 9.23482H12.8799V10.7679C13.3601 10.0312 14.2182 8.9804 16.1393 8.9804C18.5204 8.9804 20.3057 10.525 20.3057 13.848V20.0485ZM12.8565 10.8601C12.8731 10.8328 12.8964 10.8 12.9195 10.768V10.8601H12.8565Z" fill="url(#paint0_linear_976_7861)"/>
</g>
</g>
</g>
<defs>
<linearGradient id="paint0_linear_976_7861" x1="0" y1="11.9754" x2="23.9506" y2="11.9754" gradientUnits="userSpaceOnUse">
<stop stop-color="#0D99FF"/>
<stop offset="1" stop-color="#99FAF4"/>
</linearGradient>
<clipPath id="clip0_976_7861">
<rect width="24" height="24" fill="white"/>
</clipPath>
<clipPath id="clip1_976_7861">
<rect width="24" height="24" fill="white"/>
</clipPath>
<clipPath id="clip2_976_7861">
<rect width="24" height="24" fill="white"/>
</clipPath>
</defs>
</svg>
