<svg width="139" height="31" viewBox="0 0 139 31" fill="none" xmlns="http://www.w3.org/2000/svg">
<path d="M110.196 29.0966L103.804 15.5606C103.538 14.9633 103.066 14.5793 102.388 14.4086L101.625 14.2486V13.6406H110.813V14.2486L109.869 14.4406C109.094 14.6113 108.864 15.0486 109.179 15.7526L112.992 24.6806L116.551 15.8166C116.673 15.454 116.697 15.166 116.624 14.9526C116.576 14.718 116.346 14.558 115.934 14.4726L114.881 14.2486V13.6406H120.401V14.2486L119.203 14.5046C118.501 14.654 118.028 15.038 117.786 15.6566L112.302 29.0966H110.196Z" fill="#0A0A14"/>
<path d="M38.5162 29.0966L32.1244 15.5606C31.858 14.9633 31.3859 14.5793 30.708 14.4086L29.9453 14.2486V13.6406H39.1336V14.2486L38.1894 14.4406C37.4146 14.6113 37.1846 15.0486 37.4993 15.7526L41.3127 24.6806L44.8718 15.8166C44.9928 15.454 45.0171 15.166 44.9444 14.9526C44.896 14.718 44.666 14.558 44.2544 14.4726L43.2012 14.2486V13.6406H48.7214V14.2486L47.523 14.5046C46.8208 14.654 46.3487 15.038 46.1066 15.6566L40.6226 29.0966H38.5162Z" fill="#0A0A14"/>
<path d="M125.806 29.4482C124.426 29.4482 123.252 29.1068 122.284 28.4242C121.339 27.7202 120.867 26.7175 120.867 25.4162C120.867 24.3922 121.424 23.4535 122.538 22.6002C123.676 21.7255 125.455 21.0855 127.876 20.6802C128.288 20.5948 128.76 20.5202 129.293 20.4562C129.85 20.3708 130.394 20.2855 130.927 20.2002V17.9282C130.927 16.4775 130.721 15.4748 130.31 14.9202C129.898 14.3655 129.244 14.0882 128.349 14.0882H128.24C127.683 14.0882 127.235 14.2482 126.896 14.5682C126.581 14.8668 126.375 15.3682 126.278 16.0722L126.17 16.4882C126.097 17.3415 125.843 17.9708 125.407 18.3762C124.971 18.7602 124.426 18.9522 123.773 18.9522C123.167 18.9522 122.659 18.7922 122.247 18.4722C121.86 18.1308 121.666 17.6935 121.666 17.1602C121.666 16.2855 122.005 15.5495 122.683 14.9522C123.361 14.3548 124.257 13.9068 125.371 13.6082C126.508 13.3095 127.731 13.1602 129.039 13.1602C131.193 13.1602 132.84 13.6188 133.978 14.5362C135.116 15.4535 135.685 16.9468 135.685 19.0162V26.1522C135.685 27.0695 136.181 27.5282 137.174 27.5282H138.009L138.372 27.8802C137.936 28.3708 137.452 28.7442 136.92 29.0002C136.387 29.2775 135.66 29.4162 134.74 29.4162C133.699 29.4162 132.864 29.2028 132.235 28.7762C131.629 28.3282 131.23 27.7415 131.036 27.0162C130.261 27.7415 129.499 28.3282 128.748 28.7762C127.998 29.2242 127.017 29.4482 125.806 29.4482ZM127.913 27.4002C128.397 27.4002 128.857 27.3042 129.293 27.1122C129.729 26.9202 130.273 26.6002 130.927 26.1522V21.0322C130.298 21.1175 129.656 21.2242 129.002 21.3522C127.961 21.5655 127.114 21.9602 126.46 22.5362C125.831 23.1122 125.516 23.8908 125.516 24.8722C125.516 25.7255 125.734 26.3655 126.17 26.7922C126.63 27.1975 127.211 27.4002 127.913 27.4002Z" fill="#0A0A14"/>
<path d="M91.7427 29.4482C89.951 29.4482 88.3773 29.1175 87.0214 28.4562C85.6898 27.7948 84.6487 26.8562 83.8981 25.6402C83.1718 24.4242 82.8086 22.9735 82.8086 21.2882C82.8086 19.6028 83.196 18.1522 83.9708 16.9362C84.7697 15.7202 85.835 14.7922 87.1667 14.1522C88.5225 13.4908 90.0479 13.1602 91.7427 13.1602C93.4375 13.1602 94.9507 13.4908 96.2824 14.1522C97.6382 14.7922 98.7035 15.7202 99.4783 16.9362C100.277 18.1308 100.677 19.5815 100.677 21.2882C100.677 22.9735 100.302 24.4348 99.5509 25.6722C98.8246 26.8882 97.7956 27.8268 96.464 28.4882C95.1323 29.1282 93.5586 29.4482 91.7427 29.4482ZM91.7427 28.5522C92.6143 28.5522 93.3164 28.3495 93.8491 27.9442C94.406 27.5175 94.8055 26.7815 95.0476 25.7362C95.2897 24.6908 95.4108 23.2295 95.4108 21.3522C95.4108 19.4535 95.2897 17.9815 95.0476 16.9362C94.8055 15.8695 94.406 15.1335 93.8491 14.7282C93.3164 14.3015 92.6143 14.0882 91.7427 14.0882C90.8711 14.0882 90.1689 14.3015 89.6363 14.7282C89.1036 15.1335 88.7041 15.8695 88.4378 16.9362C88.1957 17.9815 88.0746 19.4535 88.0746 21.3522C88.0746 23.2295 88.1957 24.6908 88.4378 25.7362C88.7041 26.7815 89.1036 27.5175 89.6363 27.9442C90.1689 28.3495 90.8711 28.5522 91.7427 28.5522Z" fill="#0A0A14"/>
<path d="M67.4121 29.0002V28.3922L67.9569 28.2322C68.4411 28.1255 68.768 27.9442 68.9374 27.6882C69.1311 27.4322 69.228 27.0908 69.228 26.6642V17.2882C69.2038 16.8188 69.1069 16.4668 68.9374 16.2322C68.768 15.9762 68.4411 15.8055 67.9569 15.7202L67.4121 15.5922V15.0162L73.3319 13.1602L73.7677 13.5122L74.0945 16.3282V16.5522C74.4577 15.9548 74.9177 15.4002 75.4746 14.8882C76.0315 14.3762 76.6368 13.9602 77.2905 13.6402C77.9442 13.3202 78.5979 13.1602 79.2516 13.1602C80.1717 13.1602 80.8617 13.3735 81.3217 13.8002C81.7817 14.2268 82.0117 14.7708 82.0117 15.4322C82.0117 16.1575 81.7817 16.7122 81.3217 17.0962C80.8617 17.4588 80.3048 17.6402 79.6511 17.6402C78.6826 17.6402 77.8473 17.2562 77.1452 16.4882L77.0726 16.4242C76.8304 16.1682 76.552 16.0295 76.2373 16.0082C75.9467 15.9655 75.6562 16.0935 75.3656 16.3922C75.1235 16.6055 74.8935 16.8615 74.6756 17.1602C74.4819 17.4375 74.3003 17.7682 74.1308 18.1522V26.5362C74.1308 26.9415 74.2277 27.2828 74.4214 27.5602C74.6151 27.8162 74.9419 27.9975 75.402 28.1042L76.4915 28.3922V29.0002H67.4121Z" fill="#0A0A14"/>
<path d="M54.1286 29.4482C52.7486 29.4482 51.5743 29.1068 50.6058 28.4242C49.6616 27.7202 49.1895 26.7175 49.1895 25.4162C49.1895 24.3922 49.7463 23.4535 50.8601 22.6002C51.998 21.7255 53.7776 21.0855 56.1987 20.6802C56.6103 20.5948 57.0825 20.5202 57.6151 20.4562C58.172 20.3708 58.7167 20.2855 59.2494 20.2002V17.9282C59.2494 16.4775 59.0436 15.4748 58.632 14.9202C58.2204 14.3655 57.5667 14.0882 56.6709 14.0882H56.5619C56.005 14.0882 55.5571 14.2482 55.2182 14.5682C54.9034 14.8668 54.6976 15.3682 54.6008 16.0722L54.4918 16.4882C54.4192 17.3415 54.1649 17.9708 53.7291 18.3762C53.2933 18.7602 52.7486 18.9522 52.0948 18.9522C51.4896 18.9522 50.9811 18.7922 50.5695 18.4722C50.1821 18.1308 49.9884 17.6935 49.9884 17.1602C49.9884 16.2855 50.3274 15.5495 51.0053 14.9522C51.6833 14.3548 52.5791 13.9068 53.6928 13.6082C54.8308 13.3095 56.0535 13.1602 57.3609 13.1602C59.5157 13.1602 61.1621 13.6188 62.3001 14.5362C63.438 15.4535 64.007 16.9468 64.007 19.0162V26.1522C64.007 27.0695 64.5033 27.5282 65.496 27.5282H66.3313L66.6945 27.8802C66.2587 28.3708 65.7744 28.7442 65.2418 29.0002C64.7091 29.2775 63.9828 29.4162 63.0627 29.4162C62.0216 29.4162 61.1863 29.2028 60.5568 28.7762C59.9515 28.3282 59.552 27.7415 59.3583 27.0162C58.5836 27.7415 57.8209 28.3282 57.0703 28.7762C56.3198 29.2242 55.3392 29.4482 54.1286 29.4482ZM56.235 27.4002C56.7193 27.4002 57.1793 27.3042 57.6151 27.1122C58.0509 26.9202 58.5957 26.6002 59.2494 26.1522V21.0322C58.6199 21.1175 57.9783 21.2242 57.3246 21.3522C56.2835 21.5655 55.4361 21.9602 54.7823 22.5362C54.1528 23.1122 53.8381 23.8908 53.8381 24.8722C53.8381 25.7255 54.056 26.3655 54.4918 26.7922C54.9518 27.1975 55.5329 27.4002 56.235 27.4002Z" fill="#0A0A14"/>
<path fill-rule="evenodd" clip-rule="evenodd" d="M1.67312 12.4135C3.51362 8.20426 3.64743 1.61301 2.87023 0.00390625C9.08984 0.249484 10.7514 2.74633 9.68519 10.079C9.34481 12.4199 9.09817 14.391 8.92104 16.0172C8.29203 17.2984 7.94141 18.7234 7.94141 20.2249C7.94141 25.8094 12.7919 30.3365 18.7753 30.3365C18.8228 30.3365 18.8702 30.3362 18.9176 30.3356C17.6264 30.724 16.2342 30.9527 14.7672 30.9979C14.6734 30.995 14.5793 30.9914 14.4849 30.9871C14.303 30.9954 14.1221 31.001 13.9422 31.0039C13.7623 31.001 13.5814 30.9954 13.3995 30.9871C13.3051 30.9914 13.211 30.995 13.1172 30.9979C3.2438 30.6937 -3.24352 22.0771 1.67312 12.4135ZM26.6027 13.2339C26.4813 12.9614 26.3509 12.6879 26.2113 12.4135C24.3708 8.20427 24.2369 1.61301 25.0141 0.00390625C18.7945 0.249484 17.1329 2.74633 18.1992 10.079C18.2015 10.095 18.2038 10.111 18.2061 10.127C18.3946 10.1179 18.5844 10.1133 18.7753 10.1133C21.8527 10.1133 24.6304 11.3109 26.6027 13.2339Z" fill="#0A0A14"/>
<path fill-rule="evenodd" clip-rule="evenodd" d="M8.92828 16.0065C8.29596 17.2904 7.94336 18.7192 7.94336 20.2249C7.94336 25.8094 12.7938 30.3365 18.7772 30.3365C18.8284 30.3365 18.8794 30.3361 18.9304 30.3355C26.0773 28.182 30.1251 21.135 26.61 13.2392C24.6374 11.313 21.8574 10.1133 18.7772 10.1133C18.5875 10.1133 18.399 10.1178 18.2117 10.1268C18.6348 13.0408 18.9122 15.3797 19.0911 17.1918C19.0538 20.5241 17.3922 23.0092 14.1063 23.0092C14.0531 23.0092 14.0003 23.0085 13.948 23.0072C13.8958 23.0085 13.843 23.0092 13.7898 23.0092C10.5039 23.0092 8.84233 20.5241 8.80501 17.1918C8.84179 16.8191 8.88275 16.4242 8.92828 16.0065Z" fill="url(#paint0_linear_3014_19860)"/>
<defs>
<linearGradient id="paint0_linear_3014_19860" x1="4.724" y1="22.2062" x2="29.1935" y2="21.9436" gradientUnits="userSpaceOnUse">
<stop stop-color="#99FAF4"/>
<stop offset="1" stop-color="#0D99FF"/>
</linearGradient>
</defs>
</svg>
