<svg width="21" height="16" viewBox="0 0 21 16" fill="none" xmlns="http://www.w3.org/2000/svg">
<path d="M14.9998 2.5C14.7346 2.5 14.4803 2.60532 14.2928 2.79279C14.1053 2.98031 14 3.23462 14 3.49979C14 3.76495 14.1053 4.01926 14.2928 4.20679L17 6.99979L16.9998 8.99979L14.2928 11.7928C14.1106 11.9814 14.0098 12.234 14.0121 12.4962C14.0144 12.7584 14.1196 13.0092 14.305 13.1946C14.4904 13.38 14.7412 13.4852 15.0034 13.4875C15.2656 13.4897 15.5182 13.3889 15.7068 13.2068L20.2068 8.70679C20.3943 8.51926 20.4996 8.26495 20.4996 7.99979C20.4996 7.73462 20.3943 7.48031 20.2068 7.29279L15.7068 2.79279C15.5193 2.60532 15.265 2.5 14.9998 2.5Z" fill="#0A0A14"/>
<path d="M0 8C0 7.44772 0.447715 7 1 7H17V9H1C0.447715 9 0 8.55228 0 8Z" fill="#0A0A14"/>
</svg>
