<svg width="260" height="259" viewBox="0 0 260 259" fill="none" xmlns="http://www.w3.org/2000/svg">
<path d="M142.047 258.427C124.612 260.073 107.024 258.163 90.3494 252.812C73.6746 247.462 58.2596 238.781 45.0385 227.297C31.8173 215.813 21.0651 201.764 13.4334 186.002C5.80172 170.241 1.44933 153.093 0.639947 135.6C-0.169436 118.106 2.58104 100.63 8.72473 84.2308C14.8684 67.8315 24.2774 52.8501 36.3817 40.1943C48.486 27.5386 63.0336 17.4718 79.1431 10.6041C95.2526 3.7363 112.589 0.210449 130.101 0.240134L129.882 129.62L142.047 258.427Z" fill="url(#paint0_linear_3414_20045)"/>
<path d="M129.88 0.238281C163.182 0.238282 195.202 13.0795 219.276 36.0898C243.35 59.1 257.624 90.507 259.128 123.775C260.632 157.043 249.25 189.61 227.351 214.699C205.451 239.787 174.721 255.466 141.554 258.471L129.88 129.618V0.238281Z" fill="url(#paint1_linear_3414_20045)"/>
<path d="M160.909 170.435C160.831 169.739 160.507 169.2 159.939 168.818C159.37 168.431 158.655 168.237 157.792 168.237C157.175 168.237 156.641 168.335 156.19 168.531C155.739 168.722 155.388 168.987 155.139 169.325C154.894 169.658 154.771 170.038 154.771 170.464C154.771 170.822 154.854 171.131 155.021 171.391C155.192 171.65 155.415 171.868 155.69 172.045C155.969 172.216 156.268 172.361 156.587 172.479C156.905 172.591 157.212 172.684 157.506 172.758L158.976 173.14C159.456 173.258 159.949 173.417 160.453 173.618C160.958 173.819 161.426 174.084 161.857 174.412C162.289 174.74 162.637 175.147 162.901 175.632C163.171 176.117 163.306 176.698 163.306 177.374C163.306 178.227 163.085 178.984 162.644 179.646C162.208 180.308 161.573 180.829 160.74 181.212C159.912 181.594 158.91 181.785 157.733 181.785C156.606 181.785 155.631 181.606 154.808 181.248C153.984 180.891 153.34 180.383 152.874 179.727C152.409 179.065 152.152 178.281 152.103 177.374H154.381C154.425 177.918 154.602 178.372 154.911 178.734C155.224 179.092 155.624 179.359 156.109 179.536C156.599 179.707 157.136 179.793 157.719 179.793C158.361 179.793 158.932 179.692 159.432 179.492C159.936 179.286 160.333 179.001 160.622 178.639C160.912 178.271 161.056 177.842 161.056 177.352C161.056 176.906 160.929 176.541 160.674 176.257C160.424 175.973 160.083 175.738 159.652 175.551C159.226 175.365 158.743 175.201 158.204 175.059L156.425 174.574C155.219 174.245 154.264 173.763 153.558 173.125C152.857 172.488 152.507 171.645 152.507 170.597C152.507 169.729 152.742 168.972 153.213 168.325C153.683 167.678 154.32 167.176 155.124 166.818C155.928 166.456 156.834 166.274 157.844 166.274C158.863 166.274 159.762 166.453 160.542 166.811C161.326 167.169 161.943 167.661 162.394 168.288C162.845 168.911 163.08 169.626 163.1 170.435H160.909ZM171.413 176.852V170.244H173.618V181.535H171.457V179.58H171.34C171.08 180.183 170.663 180.685 170.09 181.087C169.521 181.484 168.813 181.682 167.965 181.682C167.24 181.682 166.598 181.523 166.039 181.204C165.486 180.881 165.049 180.403 164.731 179.771C164.417 179.139 164.26 178.357 164.26 177.426V170.244H166.458V177.161C166.458 177.931 166.672 178.543 167.098 178.999C167.524 179.455 168.078 179.683 168.759 179.683C169.171 179.683 169.58 179.58 169.987 179.374C170.399 179.168 170.739 178.857 171.009 178.44C171.283 178.024 171.418 177.494 171.413 176.852ZM179.745 181.763C178.652 181.763 177.711 181.516 176.922 181.021C176.138 180.521 175.535 179.832 175.113 178.955C174.692 178.078 174.481 177.073 174.481 175.941C174.481 174.794 174.697 173.782 175.128 172.905C175.559 172.023 176.167 171.334 176.951 170.839C177.735 170.344 178.659 170.097 179.723 170.097C180.58 170.097 181.345 170.256 182.016 170.575C182.688 170.888 183.229 171.329 183.641 171.898C184.057 172.466 184.305 173.13 184.383 173.89H182.244C182.126 173.361 181.857 172.905 181.435 172.523C181.019 172.14 180.46 171.949 179.759 171.949C179.147 171.949 178.61 172.111 178.149 172.434C177.694 172.753 177.338 173.209 177.084 173.802C176.829 174.39 176.701 175.086 176.701 175.889C176.701 176.713 176.826 177.423 177.076 178.021C177.326 178.619 177.679 179.082 178.135 179.411C178.595 179.739 179.137 179.903 179.759 179.903C180.176 179.903 180.553 179.827 180.891 179.675C181.235 179.518 181.521 179.296 181.752 179.006C181.987 178.717 182.151 178.369 182.244 177.963H184.383C184.305 178.693 184.067 179.345 183.67 179.918C183.273 180.491 182.741 180.942 182.075 181.271C181.413 181.599 180.637 181.763 179.745 181.763ZM189.907 181.763C188.814 181.763 187.873 181.516 187.084 181.021C186.3 180.521 185.697 179.832 185.276 178.955C184.854 178.078 184.643 177.073 184.643 175.941C184.643 174.794 184.859 173.782 185.29 172.905C185.721 172.023 186.329 171.334 187.113 170.839C187.897 170.344 188.821 170.097 189.885 170.097C190.742 170.097 191.507 170.256 192.178 170.575C192.85 170.888 193.391 171.329 193.803 171.898C194.219 172.466 194.467 173.13 194.545 173.89H192.406C192.288 173.361 192.019 172.905 191.597 172.523C191.181 172.14 190.622 171.949 189.921 171.949C189.309 171.949 188.772 172.111 188.312 172.434C187.856 172.753 187.5 173.209 187.246 173.802C186.991 174.39 186.863 175.086 186.863 175.889C186.863 176.713 186.988 177.423 187.238 178.021C187.488 178.619 187.841 179.082 188.297 179.411C188.757 179.739 189.299 179.903 189.921 179.903C190.338 179.903 190.715 179.827 191.054 179.675C191.397 179.518 191.683 179.296 191.914 179.006C192.149 178.717 192.313 178.369 192.406 177.963H194.545C194.467 178.693 194.229 179.345 193.832 179.918C193.435 180.491 192.904 180.942 192.237 181.271C191.575 181.599 190.799 181.763 189.907 181.763ZM200.179 181.763C199.067 181.763 198.108 181.525 197.305 181.05C196.506 180.57 195.888 179.896 195.452 179.028C195.021 178.156 194.805 177.134 194.805 175.963C194.805 174.806 195.021 173.787 195.452 172.905C195.888 172.023 196.496 171.334 197.275 170.839C198.059 170.344 198.976 170.097 200.025 170.097C200.662 170.097 201.279 170.202 201.877 170.413C202.475 170.624 203.012 170.954 203.487 171.405C203.962 171.856 204.337 172.442 204.612 173.162C204.886 173.878 205.023 174.748 205.023 175.772V176.551H196.048V174.904H202.87C202.87 174.326 202.752 173.814 202.517 173.368C202.281 172.917 201.951 172.562 201.524 172.302C201.103 172.042 200.608 171.913 200.039 171.913C199.422 171.913 198.883 172.064 198.422 172.368C197.966 172.667 197.613 173.059 197.364 173.544C197.119 174.025 196.996 174.547 196.996 175.11V176.397C196.996 177.151 197.128 177.793 197.393 178.323C197.662 178.852 198.037 179.256 198.518 179.536C198.998 179.81 199.559 179.947 200.201 179.947C200.618 179.947 200.997 179.889 201.341 179.771C201.684 179.648 201.98 179.467 202.23 179.227C202.48 178.987 202.671 178.69 202.803 178.337L204.884 178.712C204.717 179.325 204.418 179.862 203.987 180.322C203.561 180.778 203.024 181.133 202.377 181.388C201.735 181.638 201.002 181.763 200.179 181.763ZM214.34 173L212.348 173.353C212.265 173.098 212.132 172.856 211.951 172.626C211.775 172.395 211.534 172.207 211.231 172.06C210.927 171.913 210.547 171.839 210.091 171.839C209.469 171.839 208.949 171.979 208.533 172.258C208.116 172.532 207.908 172.888 207.908 173.324C207.908 173.701 208.048 174.005 208.327 174.235C208.606 174.466 209.057 174.654 209.679 174.802L211.473 175.213C212.512 175.453 213.286 175.823 213.796 176.323C214.306 176.823 214.561 177.472 214.561 178.271C214.561 178.948 214.365 179.55 213.973 180.08C213.585 180.604 213.044 181.016 212.348 181.315C211.657 181.614 210.856 181.763 209.944 181.763C208.68 181.763 207.648 181.493 206.849 180.954C206.05 180.41 205.56 179.639 205.379 178.639L207.504 178.315C207.636 178.869 207.908 179.288 208.32 179.572C208.731 179.852 209.268 179.991 209.929 179.991C210.65 179.991 211.226 179.842 211.657 179.543C212.088 179.239 212.304 178.869 212.304 178.433C212.304 178.08 212.172 177.784 211.907 177.543C211.647 177.303 211.248 177.122 210.709 177L208.797 176.58C207.744 176.34 206.964 175.958 206.46 175.434C205.96 174.909 205.71 174.245 205.71 173.442C205.71 172.775 205.896 172.192 206.269 171.692C206.641 171.192 207.156 170.802 207.812 170.523C208.469 170.239 209.221 170.097 210.069 170.097C211.289 170.097 212.25 170.361 212.951 170.891C213.652 171.415 214.115 172.118 214.34 173ZM223.855 173L221.863 173.353C221.78 173.098 221.647 172.856 221.466 172.626C221.29 172.395 221.05 172.207 220.746 172.06C220.442 171.913 220.062 171.839 219.606 171.839C218.984 171.839 218.464 171.979 218.048 172.258C217.631 172.532 217.423 172.888 217.423 173.324C217.423 173.701 217.563 174.005 217.842 174.235C218.121 174.466 218.572 174.654 219.195 174.802L220.988 175.213C222.027 175.453 222.802 175.823 223.311 176.323C223.821 176.823 224.076 177.472 224.076 178.271C224.076 178.948 223.88 179.55 223.488 180.08C223.101 180.604 222.559 181.016 221.863 181.315C221.172 181.614 220.371 181.763 219.459 181.763C218.195 181.763 217.163 181.493 216.364 180.954C215.566 180.41 215.076 179.639 214.894 178.639L217.019 178.315C217.151 178.869 217.423 179.288 217.835 179.572C218.246 179.852 218.783 179.991 219.445 179.991C220.165 179.991 220.741 179.842 221.172 179.543C221.603 179.239 221.819 178.869 221.819 178.433C221.819 178.08 221.687 177.784 221.422 177.543C221.162 177.303 220.763 177.122 220.224 177L218.312 176.58C217.259 176.34 216.48 175.958 215.975 175.434C215.475 174.909 215.225 174.245 215.225 173.442C215.225 172.775 215.411 172.192 215.784 171.692C216.156 171.192 216.671 170.802 217.327 170.523C217.984 170.239 218.736 170.097 219.584 170.097C220.805 170.097 221.765 170.361 222.466 170.891C223.167 171.415 223.63 172.118 223.855 173ZM168.029 203.595V201.757L174.535 191.48H175.983V194.185H175.064L170.411 201.551V201.669H179.328V203.595H168.029ZM175.167 206.535V203.036L175.182 202.198V191.48H177.336V206.535H175.167ZM185.313 191.274C185.984 191.279 186.646 191.402 187.298 191.642C187.949 191.882 188.537 192.274 189.062 192.818C189.591 193.362 190.013 194.097 190.326 195.023C190.645 195.945 190.806 197.091 190.811 198.464C190.811 199.782 190.679 200.956 190.414 201.985C190.15 203.009 189.77 203.874 189.275 204.58C188.785 205.285 188.189 205.822 187.489 206.19C186.788 206.557 185.999 206.741 185.122 206.741C184.225 206.741 183.428 206.565 182.732 206.212C182.037 205.859 181.471 205.371 181.034 204.749C180.598 204.122 180.326 203.401 180.218 202.588H182.46C182.608 203.234 182.906 203.759 183.357 204.161C183.813 204.558 184.401 204.756 185.122 204.756C186.224 204.756 187.084 204.276 187.702 203.315C188.319 202.35 188.631 201.002 188.635 199.272H188.518C188.263 199.694 187.944 200.056 187.562 200.36C187.185 200.664 186.761 200.899 186.29 201.066C185.82 201.233 185.318 201.316 184.783 201.316C183.916 201.316 183.127 201.103 182.416 200.676C181.706 200.25 181.14 199.664 180.718 198.919C180.297 198.174 180.086 197.324 180.086 196.369C180.086 195.418 180.302 194.555 180.733 193.781C181.169 193.007 181.777 192.394 182.556 191.943C183.34 191.487 184.259 191.264 185.313 191.274ZM185.32 193.185C184.747 193.185 184.23 193.328 183.769 193.612C183.313 193.891 182.953 194.271 182.688 194.751C182.424 195.227 182.291 195.756 182.291 196.339C182.291 196.922 182.419 197.452 182.674 197.927C182.933 198.397 183.286 198.772 183.732 199.052C184.183 199.326 184.698 199.463 185.276 199.463C185.707 199.463 186.109 199.38 186.482 199.213C186.854 199.047 187.18 198.816 187.459 198.522C187.739 198.223 187.957 197.885 188.114 197.508C188.27 197.131 188.349 196.734 188.349 196.317C188.349 195.763 188.216 195.249 187.952 194.773C187.692 194.298 187.334 193.916 186.879 193.627C186.423 193.333 185.903 193.185 185.32 193.185ZM199.742 203.712V202.918C199.742 202.35 199.86 201.83 200.095 201.36C200.335 200.885 200.683 200.505 201.139 200.221C201.6 199.931 202.156 199.787 202.808 199.787C203.474 199.787 204.033 199.929 204.484 200.213C204.934 200.497 205.275 200.877 205.505 201.353C205.741 201.828 205.858 202.35 205.858 202.918V203.712C205.858 204.281 205.741 204.803 205.505 205.278C205.27 205.749 204.925 206.128 204.469 206.418C204.018 206.702 203.464 206.844 202.808 206.844C202.146 206.844 201.587 206.702 201.131 206.418C200.676 206.128 200.33 205.749 200.095 205.278C199.86 204.803 199.742 204.281 199.742 203.712ZM201.455 202.918V203.712C201.455 204.134 201.555 204.516 201.756 204.859C201.957 205.202 202.308 205.374 202.808 205.374C203.303 205.374 203.648 205.202 203.844 204.859C204.04 204.516 204.138 204.134 204.138 203.712V202.918C204.138 202.497 204.043 202.115 203.851 201.772C203.665 201.429 203.317 201.257 202.808 201.257C202.317 201.257 201.97 201.429 201.764 201.772C201.558 202.115 201.455 202.497 201.455 202.918ZM192.17 195.097V194.303C192.17 193.734 192.288 193.212 192.523 192.737C192.763 192.262 193.111 191.882 193.567 191.598C194.028 191.313 194.584 191.171 195.236 191.171C195.902 191.171 196.461 191.313 196.912 191.598C197.363 191.882 197.703 192.262 197.934 192.737C198.164 193.212 198.279 193.734 198.279 194.303V195.097C198.279 195.665 198.162 196.187 197.926 196.663C197.696 197.133 197.353 197.513 196.897 197.802C196.446 198.086 195.893 198.228 195.236 198.228C194.569 198.228 194.008 198.086 193.552 197.802C193.102 197.513 192.759 197.133 192.523 196.663C192.288 196.187 192.17 195.665 192.17 195.097ZM193.891 194.303V195.097C193.891 195.518 193.989 195.901 194.185 196.244C194.386 196.587 194.736 196.758 195.236 196.758C195.726 196.758 196.069 196.587 196.265 196.244C196.466 195.901 196.566 195.518 196.566 195.097V194.303C196.566 193.881 196.471 193.499 196.28 193.156C196.089 192.813 195.741 192.642 195.236 192.642C194.746 192.642 194.398 192.813 194.192 193.156C193.991 193.499 193.891 193.881 193.891 194.303ZM192.869 206.535L203.219 191.48H204.976L194.626 206.535H192.869Z" fill="#E9EEF1"/>
<path d="M34.9781 126.332V111.277H44.3141V113.232H37.2496V117.819H43.6451V119.767H37.2496V126.332H34.9781ZM48.5934 126.582C47.8778 126.582 47.2309 126.45 46.6527 126.185C46.0744 125.915 45.6161 125.526 45.278 125.016C44.9447 124.506 44.7781 123.882 44.7781 123.142C44.7781 122.505 44.9006 121.98 45.1457 121.568C45.3907 121.157 45.7215 120.831 46.1381 120.591C46.5546 120.351 47.0202 120.169 47.5348 120.047C48.0494 119.924 48.5738 119.831 49.1079 119.767C49.7842 119.689 50.3331 119.625 50.7546 119.576C51.1761 119.522 51.4824 119.437 51.6735 119.319C51.8646 119.201 51.9602 119.01 51.9602 118.746V118.694C51.9602 118.052 51.7788 117.555 51.4162 117.202C51.0584 116.849 50.5243 116.673 49.8136 116.673C49.0736 116.673 48.4904 116.837 48.0641 117.165C47.6426 117.489 47.351 117.849 47.1893 118.246L45.1236 117.775C45.3687 117.089 45.7264 116.535 46.1969 116.114C46.6723 115.688 47.2187 115.379 47.8362 115.188C48.4537 114.992 49.103 114.894 49.7842 114.894C50.2351 114.894 50.7129 114.948 51.2177 115.055C51.7274 115.158 52.2028 115.349 52.6438 115.629C53.0898 115.908 53.4549 116.308 53.7392 116.827C54.0234 117.342 54.1655 118.011 54.1655 118.834V126.332H52.019V124.788H51.9308C51.7887 125.073 51.5755 125.352 51.2912 125.626C51.007 125.901 50.6419 126.129 50.1959 126.31C49.7499 126.491 49.2158 126.582 48.5934 126.582ZM49.0712 124.818C49.6789 124.818 50.1984 124.698 50.6296 124.457C51.0658 124.217 51.3966 123.904 51.622 123.517C51.8524 123.124 51.9675 122.705 51.9675 122.259V120.804C51.8891 120.882 51.7372 120.956 51.5118 121.025C51.2912 121.088 51.0388 121.145 50.7546 121.194C50.4703 121.238 50.1935 121.279 49.9239 121.319C49.6544 121.353 49.4289 121.382 49.2476 121.407C48.8212 121.461 48.4316 121.551 48.0788 121.679C47.7308 121.806 47.4515 121.99 47.2407 122.23C47.0349 122.465 46.932 122.779 46.932 123.171C46.932 123.715 47.1329 124.127 47.5348 124.406C47.9367 124.68 48.4488 124.818 49.0712 124.818ZM55.5099 126.332V115.041H57.7079V126.332H55.5099ZM56.6199 113.298C56.2376 113.298 55.9093 113.171 55.6348 112.916C55.3653 112.656 55.2305 112.348 55.2305 111.99C55.2305 111.627 55.3653 111.319 55.6348 111.064C55.9093 110.804 56.2376 110.674 56.6199 110.674C57.0022 110.674 57.3281 110.804 57.5976 111.064C57.872 111.319 58.0093 111.627 58.0093 111.99C58.0093 112.348 57.872 112.656 57.5976 112.916C57.3281 113.171 57.0022 113.298 56.6199 113.298ZM61.2796 111.277V126.332H59.0816V111.277H61.2796ZM69.806 121.649V115.041H72.0114V126.332H69.8501V124.377H69.7325C69.4728 124.979 69.0562 125.482 68.4828 125.884C67.9143 126.281 67.2062 126.479 66.3584 126.479C65.633 126.479 64.991 126.32 64.4324 126.001C63.8786 125.678 63.4424 125.2 63.1238 124.568C62.8102 123.936 62.6534 123.154 62.6534 122.223V115.041H64.8514V121.958C64.8514 122.728 65.0645 123.34 65.4909 123.796C65.9173 124.252 66.4711 124.48 67.1523 124.48C67.5639 124.48 67.9732 124.377 68.3799 124.171C68.7916 123.965 69.1322 123.654 69.4017 123.237C69.6762 122.821 69.8109 122.291 69.806 121.649ZM73.3815 126.332V115.041H75.5059V116.834H75.6236C75.8294 116.227 76.192 115.749 76.7115 115.401C77.2359 115.048 77.8289 114.872 78.4905 114.872C78.6277 114.872 78.7894 114.877 78.9757 114.886C79.1668 114.896 79.3163 114.908 79.4241 114.923V117.025C79.3359 117.001 79.1791 116.974 78.9536 116.945C78.7282 116.91 78.5028 116.893 78.2773 116.893C77.7578 116.893 77.2947 117.003 76.888 117.224C76.4861 117.44 76.1675 117.741 75.9323 118.128C75.6971 118.51 75.5795 118.947 75.5795 119.437V126.332H73.3815ZM84.2051 126.56C83.0926 126.56 82.1345 126.322 81.3308 125.847C80.532 125.367 79.9145 124.693 79.4783 123.825C79.0471 122.953 78.8314 121.931 78.8314 120.76C78.8314 119.603 79.0471 118.584 79.4783 117.702C79.9145 116.82 80.5222 116.131 81.3014 115.636C82.0855 115.141 83.002 114.894 84.0507 114.894C84.6878 114.894 85.3053 114.999 85.9032 115.21C86.5011 115.42 87.0377 115.751 87.5131 116.202C87.9885 116.653 88.3634 117.239 88.6378 117.959C88.9123 118.675 89.0495 119.544 89.0495 120.569V121.348H80.0738V119.701H86.8956C86.8956 119.123 86.778 118.611 86.5428 118.165C86.3075 117.714 85.9767 117.359 85.5504 117.099C85.1289 116.839 84.6339 116.709 84.0654 116.709C83.4479 116.709 82.9089 116.861 82.4482 117.165C81.9924 117.464 81.6396 117.856 81.3896 118.341C81.1446 118.822 81.0221 119.344 81.0221 119.907V121.194C81.0221 121.948 81.1544 122.59 81.419 123.12C81.6886 123.649 82.0635 124.053 82.5438 124.333C83.024 124.607 83.5852 124.744 84.2272 124.744C84.6437 124.744 85.0235 124.685 85.3666 124.568C85.7096 124.445 86.0061 124.264 86.2561 124.024C86.506 123.784 86.6971 123.487 86.8295 123.134L88.9098 123.509C88.7432 124.122 88.4443 124.658 88.013 125.119C87.5866 125.575 87.05 125.93 86.4031 126.185C85.7611 126.435 85.0284 126.56 84.2051 126.56ZM48.9945 151.538C48.0731 151.538 47.2449 151.361 46.5098 151.009C45.7796 150.651 45.1964 150.161 44.7602 149.538C44.3241 148.916 44.0913 148.205 44.0619 147.407H46.2672C46.3211 148.053 46.6078 148.585 47.1273 149.002C47.6468 149.418 48.2692 149.627 48.9945 149.627C49.5728 149.627 50.0849 149.494 50.5309 149.23C50.9817 148.96 51.3346 148.59 51.5894 148.12C51.8492 147.649 51.979 147.112 51.979 146.51C51.979 145.897 51.8467 145.351 51.5821 144.87C51.3174 144.39 50.9523 144.013 50.4868 143.738C50.0261 143.464 49.4968 143.324 48.8989 143.319C48.4431 143.319 47.9849 143.398 47.5242 143.555C47.0636 143.711 46.6911 143.917 46.4069 144.172L44.3265 143.863L45.1719 136.277H53.4493V138.225H47.0611L46.5833 142.437H46.6715C46.9656 142.153 47.3552 141.915 47.8403 141.724C48.3304 141.533 48.8548 141.437 49.4135 141.437C50.3299 141.437 51.1459 141.655 51.8614 142.092C52.5818 142.528 53.1479 143.123 53.5595 143.878C53.9761 144.628 54.1819 145.49 54.177 146.466C54.1819 147.441 53.9614 148.311 53.5154 149.075C53.0744 149.84 52.4618 150.443 51.6776 150.884C50.8984 151.32 50.004 151.538 48.9945 151.538ZM60.9906 136.277V151.332H58.7118V138.556H58.6236L55.0215 140.908V138.732L58.7779 136.277H60.9906ZM71.3383 148.509V147.715C71.3383 147.147 71.4559 146.627 71.6912 146.157C71.9313 145.681 72.2792 145.302 72.735 145.017C73.1957 144.728 73.7519 144.584 74.4037 144.584C75.0702 144.584 75.6289 144.726 76.0798 145.01C76.5307 145.294 76.8713 145.674 77.1016 146.149C77.3368 146.625 77.4544 147.147 77.4544 147.715V148.509C77.4544 149.078 77.3368 149.6 77.1016 150.075C76.8664 150.545 76.5208 150.925 76.0651 151.214C75.6142 151.499 75.0604 151.641 74.4037 151.641C73.7421 151.641 73.1834 151.499 72.7277 151.214C72.2719 150.925 71.9264 150.545 71.6912 150.075C71.4559 149.6 71.3383 149.078 71.3383 148.509ZM73.0511 147.715V148.509C73.0511 148.931 73.1516 149.313 73.3525 149.656C73.5534 149.999 73.9038 150.171 74.4037 150.171C74.8987 150.171 75.2442 149.999 75.4402 149.656C75.6363 149.313 75.7343 148.931 75.7343 148.509V147.715C75.7343 147.294 75.6387 146.912 75.4476 146.568C75.2614 146.225 74.9134 146.054 74.4037 146.054C73.9136 146.054 73.5657 146.225 73.3599 146.568C73.154 146.912 73.0511 147.294 73.0511 147.715ZM63.7666 139.894V139.1C63.7666 138.531 63.8842 138.009 64.1195 137.534C64.3596 137.059 64.7076 136.679 65.1633 136.395C65.624 136.11 66.1802 135.968 66.832 135.968C67.4986 135.968 68.0572 136.11 68.5081 136.395C68.959 136.679 69.2996 137.059 69.5299 137.534C69.7603 138.009 69.8754 138.531 69.8754 139.1V139.894C69.8754 140.462 69.7578 140.984 69.5226 141.459C69.2922 141.93 68.9492 142.31 68.4934 142.599C68.0425 142.883 67.4887 143.025 66.832 143.025C66.1655 143.025 65.6044 142.883 65.1486 142.599C64.6978 142.31 64.3547 141.93 64.1195 141.459C63.8842 140.984 63.7666 140.462 63.7666 139.894ZM65.4868 139.1V139.894C65.4868 140.315 65.5848 140.697 65.7808 141.04C65.9818 141.383 66.3322 141.555 66.832 141.555C67.3221 141.555 67.6652 141.383 67.8612 141.04C68.0621 140.697 68.1626 140.315 68.1626 139.894V139.1C68.1626 138.678 68.067 138.296 67.8759 137.953C67.6848 137.61 67.3368 137.438 66.832 137.438C66.342 137.438 65.994 137.61 65.7882 137.953C65.5873 138.296 65.4868 138.678 65.4868 139.1ZM64.465 151.332L74.8154 136.277H76.5723L66.2219 151.332H64.465Z" fill="#E9EEF1"/>
<defs>
<linearGradient id="paint0_linear_3414_20045" x1="129.882" y1="259" x2="129.882" y2="0.239948" gradientUnits="userSpaceOnUse">
<stop stop-color="#0B88E5"/>
<stop offset="1" stop-color="#084471"/>
</linearGradient>
<linearGradient id="paint1_linear_3414_20045" x1="129.88" y1="0.238281" x2="129.88" y2="258.998" gradientUnits="userSpaceOnUse">
<stop stop-color="#99FAF4"/>
<stop offset="1" stop-color="#0D99FF"/>
</linearGradient>
</defs>
</svg>
