<svg width="128" height="16" viewBox="0 0 128 16" fill="none" xmlns="http://www.w3.org/2000/svg">
<path d="M9.396 2.388C10.356 3.456 10.836 4.818 10.836 6.474C10.836 8.13 10.356 9.498 9.396 10.578C8.436 11.646 7.212 12.18 5.724 12.18C4.236 12.18 3.012 11.646 2.052 10.578C1.104 9.498 0.63 8.13 0.63 6.474C0.63 4.818 1.104 3.456 2.052 2.388C3.012 1.308 4.236 0.768 5.724 0.768C7.212 0.768 8.436 1.308 9.396 2.388ZM8.046 9.372C8.646 8.616 8.946 7.65 8.946 6.474C8.946 5.298 8.646 4.332 8.046 3.576C7.458 2.82 6.684 2.442 5.724 2.442C4.764 2.442 3.99 2.82 3.402 3.576C2.814 4.32 2.52 5.286 2.52 6.474C2.52 7.662 2.814 8.634 3.402 9.39C3.99 10.134 4.764 10.506 5.724 10.506C6.684 10.506 7.458 10.128 8.046 9.372ZM17.7609 12L15.1149 8.598L14.3769 9.354V12H12.5769V0.299999H14.3769V7.284L17.5089 4.008H19.8129L16.4109 7.464L19.9389 12H17.7609ZM20.5092 9.696H22.3452C22.5492 10.368 23.0772 10.704 23.9292 10.704C24.3492 10.704 24.6792 10.626 24.9192 10.47C25.1712 10.302 25.2972 10.062 25.2972 9.75C25.2972 9.534 25.2252 9.366 25.0812 9.246C24.9372 9.114 24.6972 9.006 24.3612 8.922L22.7052 8.526C21.3852 8.214 20.7252 7.482 20.7252 6.33C20.7252 5.61 21.0072 5.016 21.5712 4.548C22.1472 4.068 22.8732 3.828 23.7492 3.828C24.6612 3.828 25.3872 4.038 25.9272 4.458C26.4672 4.866 26.8092 5.442 26.9532 6.186H25.1892C25.0092 5.598 24.5232 5.304 23.7312 5.304C23.3832 5.304 23.0832 5.382 22.8312 5.538C22.5792 5.694 22.4532 5.922 22.4532 6.222C22.4532 6.57 22.7292 6.816 23.2812 6.96L24.9732 7.356C26.3412 7.68 27.0252 8.436 27.0252 9.624C27.0252 10.404 26.7312 11.028 26.1432 11.496C25.5672 11.952 24.8232 12.18 23.9112 12.18C22.9752 12.18 22.2012 11.958 21.5892 11.514C20.9892 11.07 20.6292 10.464 20.5092 9.696ZM34.94 12H33.23V11.55C33.086 11.694 32.822 11.832 32.438 11.964C32.066 12.084 31.67 12.144 31.25 12.144C30.398 12.144 29.684 11.91 29.108 11.442C28.544 10.962 28.262 10.326 28.262 9.534C28.262 8.79 28.556 8.178 29.144 7.698C29.744 7.206 30.488 6.96 31.376 6.96C31.724 6.96 32.078 7.014 32.438 7.122C32.798 7.218 33.062 7.326 33.23 7.446V6.798C33.23 6.378 33.098 6.036 32.834 5.772C32.57 5.496 32.192 5.358 31.7 5.358C30.992 5.358 30.536 5.646 30.332 6.222H28.604C28.724 5.526 29.072 4.956 29.648 4.512C30.236 4.056 30.932 3.828 31.736 3.828C32.744 3.828 33.53 4.092 34.094 4.62C34.658 5.136 34.94 5.85 34.94 6.762V12ZM33.23 9.876V9.21C33.134 8.97 32.93 8.778 32.618 8.634C32.306 8.478 31.964 8.4 31.592 8.4C31.148 8.4 30.758 8.496 30.422 8.688C30.098 8.88 29.936 9.162 29.936 9.534C29.936 9.906 30.098 10.194 30.422 10.398C30.746 10.59 31.136 10.686 31.592 10.686C31.964 10.686 32.306 10.614 32.618 10.47C32.93 10.314 33.134 10.116 33.23 9.876ZM37.0633 12V4.008H38.8633V4.764C39.4033 4.14 40.1233 3.828 41.0233 3.828C41.9113 3.828 42.6013 4.098 43.0933 4.638C43.5973 5.178 43.8493 5.898 43.8493 6.798V12H42.0493V7.104C42.0493 6.588 41.9233 6.186 41.6713 5.898C41.4193 5.61 41.0413 5.466 40.5373 5.466C40.1413 5.466 39.7873 5.586 39.4753 5.826C39.1633 6.054 38.9593 6.36 38.8633 6.744V12H37.0633ZM52.1314 12H50.4214V11.55C50.2774 11.694 50.0134 11.832 49.6294 11.964C49.2574 12.084 48.8614 12.144 48.4414 12.144C47.5894 12.144 46.8754 11.91 46.2994 11.442C45.7354 10.962 45.4534 10.326 45.4534 9.534C45.4534 8.79 45.7474 8.178 46.3354 7.698C46.9354 7.206 47.6794 6.96 48.5674 6.96C48.9154 6.96 49.2694 7.014 49.6294 7.122C49.9894 7.218 50.2534 7.326 50.4214 7.446V6.798C50.4214 6.378 50.2894 6.036 50.0254 5.772C49.7614 5.496 49.3834 5.358 48.8914 5.358C48.1834 5.358 47.7274 5.646 47.5234 6.222H45.7954C45.9154 5.526 46.2634 4.956 46.8394 4.512C47.4274 4.056 48.1234 3.828 48.9274 3.828C49.9354 3.828 50.7214 4.092 51.2854 4.62C51.8494 5.136 52.1314 5.85 52.1314 6.762V12ZM50.4214 9.876V9.21C50.3254 8.97 50.1214 8.778 49.8094 8.634C49.4974 8.478 49.1554 8.4 48.7834 8.4C48.3394 8.4 47.9494 8.496 47.6134 8.688C47.2894 8.88 47.1274 9.162 47.1274 9.534C47.1274 9.906 47.2894 10.194 47.6134 10.398C47.9374 10.59 48.3274 10.686 48.7834 10.686C49.1554 10.686 49.4974 10.614 49.8094 10.47C50.1214 10.314 50.3254 10.116 50.4214 9.876ZM57.6513 2.604V0.948H66.8673V2.604H63.1953V12H61.3233V2.604H57.6513ZM66.5287 9.696H68.3647C68.5687 10.368 69.0967 10.704 69.9487 10.704C70.3687 10.704 70.6987 10.626 70.9387 10.47C71.1907 10.302 71.3167 10.062 71.3167 9.75C71.3167 9.534 71.2447 9.366 71.1007 9.246C70.9567 9.114 70.7167 9.006 70.3807 8.922L68.7247 8.526C67.4047 8.214 66.7447 7.482 66.7447 6.33C66.7447 5.61 67.0267 5.016 67.5907 4.548C68.1667 4.068 68.8927 3.828 69.7687 3.828C70.6807 3.828 71.4067 4.038 71.9467 4.458C72.4867 4.866 72.8287 5.442 72.9727 6.186H71.2087C71.0287 5.598 70.5427 5.304 69.7507 5.304C69.4027 5.304 69.1027 5.382 68.8507 5.538C68.5987 5.694 68.4727 5.922 68.4727 6.222C68.4727 6.57 68.7487 6.816 69.3007 6.96L70.9927 7.356C72.3607 7.68 73.0447 8.436 73.0447 9.624C73.0447 10.404 72.7507 11.028 72.1627 11.496C71.5867 11.952 70.8427 12.18 69.9307 12.18C68.9947 12.18 68.2207 11.958 67.6087 11.514C67.0087 11.07 66.6487 10.464 66.5287 9.696ZM77.5437 15.06H75.7977L76.9317 12.216L73.8357 4.008H75.7617L77.8497 9.894L79.9017 4.008H81.7557L77.5437 15.06ZM84.9883 11.316V12H83.1883V0.299999H84.9883V4.692C85.1803 4.452 85.4623 4.248 85.8343 4.08C86.2063 3.912 86.6023 3.828 87.0223 3.828C88.1623 3.828 89.0623 4.23 89.7223 5.034C90.3943 5.826 90.7303 6.816 90.7303 8.004C90.7303 9.192 90.3943 10.188 89.7223 10.992C89.0623 11.784 88.1623 12.18 87.0223 12.18C86.6023 12.18 86.2063 12.096 85.8343 11.928C85.4623 11.76 85.1803 11.556 84.9883 11.316ZM84.9883 6.492V9.516C85.1443 9.828 85.3783 10.086 85.6903 10.29C86.0023 10.482 86.3443 10.578 86.7163 10.578C87.4003 10.578 87.9403 10.338 88.3363 9.858C88.7323 9.378 88.9303 8.76 88.9303 8.004C88.9303 7.248 88.7323 6.63 88.3363 6.15C87.9403 5.67 87.4003 5.43 86.7163 5.43C86.3443 5.43 86.0023 5.532 85.6903 5.736C85.3783 5.928 85.1443 6.18 84.9883 6.492ZM99.0412 4.008V12H97.2412V11.244C96.7012 11.868 95.9872 12.18 95.0992 12.18C94.2112 12.18 93.5212 11.91 93.0292 11.37C92.5372 10.83 92.2912 10.11 92.2912 9.21V4.008H94.0912V8.904C94.0912 9.996 94.5892 10.542 95.5852 10.542C95.9812 10.542 96.3292 10.428 96.6292 10.2C96.9412 9.96 97.1452 9.648 97.2412 9.264V4.008H99.0412ZM103.076 0.299999V12H101.276V0.299999H103.076ZM104.744 9.696H106.58C106.784 10.368 107.312 10.704 108.164 10.704C108.584 10.704 108.914 10.626 109.154 10.47C109.406 10.302 109.532 10.062 109.532 9.75C109.532 9.534 109.46 9.366 109.316 9.246C109.172 9.114 108.932 9.006 108.596 8.922L106.94 8.526C105.62 8.214 104.96 7.482 104.96 6.33C104.96 5.61 105.242 5.016 105.806 4.548C106.382 4.068 107.108 3.828 107.984 3.828C108.896 3.828 109.622 4.038 110.162 4.458C110.702 4.866 111.044 5.442 111.188 6.186H109.424C109.244 5.598 108.758 5.304 107.966 5.304C107.618 5.304 107.318 5.382 107.066 5.538C106.814 5.694 106.688 5.922 106.688 6.222C106.688 6.57 106.964 6.816 107.516 6.96L109.208 7.356C110.576 7.68 111.26 8.436 111.26 9.624C111.26 10.404 110.966 11.028 110.378 11.496C109.802 11.952 109.058 12.18 108.146 12.18C107.21 12.18 106.436 11.958 105.824 11.514C105.224 11.07 104.864 10.464 104.744 9.696ZM118.202 12L115.556 8.598L114.818 9.354V12H113.018V0.299999H114.818V7.284L117.95 4.008H120.254L116.852 7.464L120.38 12H118.202ZM127.665 12H125.955V11.55C125.811 11.694 125.547 11.832 125.163 11.964C124.791 12.084 124.395 12.144 123.975 12.144C123.123 12.144 122.409 11.91 121.833 11.442C121.269 10.962 120.987 10.326 120.987 9.534C120.987 8.79 121.281 8.178 121.869 7.698C122.469 7.206 123.213 6.96 124.101 6.96C124.449 6.96 124.803 7.014 125.163 7.122C125.523 7.218 125.787 7.326 125.955 7.446V6.798C125.955 6.378 125.823 6.036 125.559 5.772C125.295 5.496 124.917 5.358 124.425 5.358C123.717 5.358 123.261 5.646 123.057 6.222H121.329C121.449 5.526 121.797 4.956 122.373 4.512C122.961 4.056 123.657 3.828 124.461 3.828C125.469 3.828 126.255 4.092 126.819 4.62C127.383 5.136 127.665 5.85 127.665 6.762V12ZM125.955 9.876V9.21C125.859 8.97 125.655 8.778 125.343 8.634C125.031 8.478 124.689 8.4 124.317 8.4C123.873 8.4 123.483 8.496 123.147 8.688C122.823 8.88 122.661 9.162 122.661 9.534C122.661 9.906 122.823 10.194 123.147 10.398C123.471 10.59 123.861 10.686 124.317 10.686C124.689 10.686 125.031 10.614 125.343 10.47C125.655 10.314 125.859 10.116 125.955 9.876Z" fill="#0A0A14"/>
<a href="https://www.linkedin.com/in/oksana-tsybulska-676185177/">
<rect fill="black" fill-opacity="0" y="0.026" width="128.673" height="21.6"/>
</a>
</svg>
