<svg width="39" height="48" viewBox="0 0 39 48" fill="none" xmlns="http://www.w3.org/2000/svg">
<path d="M33 18H31.5V12.2753C31.5 5.39175 26.5193 0 19.4445 0C12.3413 0 7.5 5.5065 7.5 12.2753V18H6C2.691 18 0 20.691 0 24V42C0 45.309 2.691 48 6 48H33C36.309 48 39 45.309 39 42V24C39 20.691 36.309 18 33 18ZM10.5 12.2753C10.5 7.16175 13.995 3 19.4445 3C24.8377 3 28.5 7.074 28.5 12.2753V18H10.5V12.2753ZM36 42C36 43.6538 34.6538 45 33 45H6.00005C4.3463 45 3.00005 43.6538 3.00005 42V24C3.00005 22.3463 4.3463 21 6.00005 21H33C34.6538 21 36 22.3463 36 24V42ZM19.5 27C17.8433 27 16.5 28.3433 16.5 30C16.5 31.1077 17.1075 32.064 18 32.5837V37.5C18 38.328 18.672 39 19.5 39C20.328 39 21 38.328 21 37.5V32.5837C21.8925 32.064 22.5 31.107 22.5 30C22.5 28.3433 21.1568 27 19.5 27Z" fill="#939393"/>
</svg>
