<svg width="26" height="20" viewBox="0 0 26 20" fill="none" xmlns="http://www.w3.org/2000/svg">
<g clip-path="url(#clip0_1086_20717)">
<g clip-path="url(#clip1_1086_20717)">
<g clip-path="url(#clip2_1086_20717)">
<path d="M25.1875 1.23617e-06V3.90573C23.7959 4.30977 22.6513 5.0505 21.7535 6.12795C20.8556 7.2503 20.4067 8.52975 20.4067 9.96635H24.9855V20H14.9527V11.1785C14.9527 7.991 15.9178 5.3872 17.848 3.36701C19.7334 1.43659 22.1799 0.314256 25.1875 1.23617e-06ZM11.0473 0V3.90572C9.65575 4.30977 8.51105 5.0505 7.61325 6.12795C6.71545 7.2503 6.26655 8.52975 6.26655 9.96635H10.8453V20H0.8125L0.812501 11.1785C0.812501 7.991 1.77762 5.3872 3.70788 3.36701C5.59325 1.43659 8.0397 0.314255 11.0473 0Z" fill="#D9D9D9"/>
</g>
</g>
</g>
<defs>
<clipPath id="clip0_1086_20717">
<rect width="25" height="20" fill="white" transform="translate(0.5)"/>
</clipPath>
<clipPath id="clip1_1086_20717">
<rect width="25" height="20" fill="white" transform="translate(0.5)"/>
</clipPath>
<clipPath id="clip2_1086_20717">
<rect width="25" height="20" fill="white" transform="translate(0.5)"/>
</clipPath>
</defs>
</svg>
