<svg width="17" height="26" viewBox="0 0 17 26" fill="none" xmlns="http://www.w3.org/2000/svg">
<g clip-path="url(#clip0_3386_15527)">
<path d="M14.7344 18.5887C14.7344 18.273 14.615 17.9702 14.4026 17.747C14.19 17.5238 13.9018 17.3984 13.6013 17.3984C13.3008 17.3984 13.0125 17.5238 12.8 17.747L9.63462 20.9699L7.36795 20.9696L4.20255 17.747C3.9888 17.5301 3.70252 17.4101 3.40536 17.4129C3.10821 17.4156 2.82395 17.5408 2.61382 17.7615C2.40369 17.9822 2.2845 18.2808 2.28192 18.5929C2.27934 18.9051 2.39357 19.2058 2.60002 19.4303L7.70002 24.7875C7.91255 25.0106 8.20076 25.136 8.50128 25.136C8.8018 25.136 9.09002 25.0106 9.30255 24.7875L14.4026 19.4303C14.615 19.2071 14.7344 18.9043 14.7344 18.5887Z" fill="#0A0A14"/>
<path d="M8.50143 2.39844C9.12735 2.39844 9.63477 2.90585 9.63477 3.53177L9.63476 21.6651L7.3681 21.6651L7.3681 3.53177C7.3681 2.90585 7.87551 2.39844 8.50143 2.39844Z" fill="#0A0A14"/>
</g>
<defs>
<clipPath id="clip0_3386_15527">
<rect width="25" height="17" fill="white" transform="translate(17 0.398438) rotate(90)"/>
</clipPath>
</defs>
</svg>
