<svg width="17" height="26" viewBox="0 0 17 26" fill="none" xmlns="http://www.w3.org/2000/svg">
<g clip-path="url(#clip0_3386_18067)">
<path d="M2.26563 7.20822C2.26563 7.52389 2.38498 7.82663 2.59745 8.04988C2.80998 8.27306 3.0982 8.39844 3.39872 8.39844C3.69924 8.39844 3.98745 8.27306 4.19998 8.04988L7.36538 4.82701L9.63205 4.82726L12.7975 8.04988C13.0112 8.26674 13.2975 8.38673 13.5946 8.38402C13.8918 8.38131 14.176 8.2561 14.3862 8.03538C14.5963 7.81466 14.7155 7.51607 14.7181 7.20393C14.7207 6.89179 14.6064 6.59108 14.4 6.36655L9.29998 1.00941C9.08745 0.786227 8.79924 0.660851 8.49872 0.660851C8.1982 0.660851 7.90998 0.786227 7.69745 1.00941L2.59745 6.36655C2.38498 6.5898 2.26563 6.89254 2.26563 7.20822Z" fill="#0A0A14"/>
<path d="M8.49857 23.3984C7.87265 23.3984 7.36523 22.891 7.36523 22.2651L7.36523 4.13177L9.6319 4.13177L9.6319 22.2651C9.6319 22.891 9.12449 23.3984 8.49857 23.3984Z" fill="#0A0A14"/>
</g>
<defs>
<clipPath id="clip0_3386_18067">
<rect width="25" height="17" fill="white" transform="translate(0 25.3984) rotate(-90)"/>
</clipPath>
</defs>
</svg>
