<svg width="259" height="259" viewBox="0 0 259 259" fill="none" xmlns="http://www.w3.org/2000/svg">
<path d="M13.8357 71.8863C21.5742 56.3667 32.3538 42.5613 45.5337 31.2905C58.7136 20.0197 74.0249 11.5136 90.5575 6.27773C107.09 1.04186 124.507 -0.816937 141.772 0.811879C159.037 2.4407 175.799 7.52383 191.06 15.7592C206.322 23.9945 219.772 35.214 230.612 48.7508C241.452 62.2876 249.459 77.8654 254.159 94.5584C258.858 111.251 260.154 128.719 257.969 145.922C255.784 163.126 250.162 179.715 241.439 194.703L129.62 129.62L13.8357 71.8863Z" fill="url(#paint0_linear_3415_20049)"/>
<path d="M129.618 0.238281C157.753 0.238282 185.12 9.409 207.574 26.3608C230.028 43.3126 246.344 67.1215 254.05 94.1798C261.756 121.238 260.433 150.071 250.28 176.309C240.126 202.548 221.697 224.761 197.785 239.584C173.872 254.407 145.779 261.032 117.763 258.454C89.7476 255.876 63.3354 244.236 42.5294 225.299C21.7233 206.361 7.65723 181.157 2.46268 153.506C-2.73188 125.856 1.22818 97.2655 13.7428 72.0679L129.618 129.618V0.238281Z" fill="url(#paint1_linear_3415_20049)"/>
<path d="M130.46 170.435C130.382 169.739 130.058 169.2 129.49 168.818C128.921 168.431 128.206 168.237 127.343 168.237C126.726 168.237 126.191 168.335 125.741 168.531C125.29 168.722 124.939 168.987 124.689 169.325C124.444 169.658 124.322 170.038 124.322 170.464C124.322 170.822 124.405 171.131 124.572 171.391C124.743 171.65 124.966 171.868 125.241 172.045C125.52 172.216 125.819 172.361 126.138 172.479C126.456 172.591 126.762 172.684 127.056 172.758L128.527 173.14C129.007 173.258 129.499 173.417 130.004 173.618C130.509 173.819 130.977 174.084 131.408 174.412C131.84 174.74 132.187 175.147 132.452 175.632C132.722 176.117 132.856 176.698 132.856 177.374C132.856 178.227 132.636 178.984 132.195 179.646C131.759 180.308 131.124 180.829 130.291 181.212C129.463 181.594 128.46 181.785 127.284 181.785C126.157 181.785 125.182 181.606 124.359 181.248C123.535 180.891 122.891 180.383 122.425 179.727C121.96 179.065 121.702 178.281 121.653 177.374H123.932C123.976 177.918 124.153 178.372 124.461 178.734C124.775 179.092 125.175 179.359 125.66 179.536C126.15 179.707 126.686 179.793 127.27 179.793C127.912 179.793 128.483 179.692 128.982 179.492C129.487 179.286 129.884 179.001 130.173 178.639C130.462 178.271 130.607 177.842 130.607 177.352C130.607 176.906 130.48 176.541 130.225 176.257C129.975 175.973 129.634 175.738 129.203 175.551C128.777 175.365 128.294 175.201 127.755 175.059L125.976 174.574C124.77 174.245 123.815 173.763 123.109 173.125C122.408 172.488 122.058 171.645 122.058 170.597C122.058 169.729 122.293 168.972 122.763 168.325C123.234 167.678 123.871 167.176 124.675 166.818C125.478 166.456 126.385 166.274 127.395 166.274C128.414 166.274 129.313 166.453 130.092 166.811C130.877 167.169 131.494 167.661 131.945 168.288C132.396 168.911 132.631 169.626 132.651 170.435H130.46ZM140.964 176.852V170.244H143.169V181.535H141.008V179.58H140.89C140.631 180.183 140.214 180.685 139.641 181.087C139.072 181.484 138.364 181.682 137.516 181.682C136.791 181.682 136.149 181.523 135.59 181.204C135.036 180.881 134.6 180.403 134.282 179.771C133.968 179.139 133.811 178.357 133.811 177.426V170.244H136.009V177.161C136.009 177.931 136.222 178.543 136.649 178.999C137.075 179.455 137.629 179.683 138.31 179.683C138.722 179.683 139.131 179.58 139.538 179.374C139.949 179.168 140.29 178.857 140.56 178.44C140.834 178.024 140.969 177.494 140.964 176.852ZM149.295 181.763C148.203 181.763 147.262 181.516 146.473 181.021C145.688 180.521 145.086 179.832 144.664 178.955C144.243 178.078 144.032 177.073 144.032 175.941C144.032 174.794 144.248 173.782 144.679 172.905C145.11 172.023 145.718 171.334 146.502 170.839C147.286 170.344 148.21 170.097 149.273 170.097C150.131 170.097 150.896 170.256 151.567 170.575C152.238 170.888 152.78 171.329 153.192 171.898C153.608 172.466 153.856 173.13 153.934 173.89H151.795C151.677 173.361 151.408 172.905 150.986 172.523C150.57 172.14 150.011 171.949 149.31 171.949C148.698 171.949 148.161 172.111 147.7 172.434C147.244 172.753 146.889 173.209 146.634 173.802C146.38 174.39 146.252 175.086 146.252 175.889C146.252 176.713 146.377 177.423 146.627 178.021C146.877 178.619 147.23 179.082 147.686 179.411C148.146 179.739 148.688 179.903 149.31 179.903C149.727 179.903 150.104 179.827 150.442 179.675C150.785 179.518 151.072 179.296 151.302 179.006C151.538 178.717 151.702 178.369 151.795 177.963H153.934C153.856 178.693 153.618 179.345 153.221 179.918C152.824 180.491 152.292 180.942 151.626 181.271C150.964 181.599 150.187 181.763 149.295 181.763ZM159.458 181.763C158.365 181.763 157.424 181.516 156.635 181.021C155.851 180.521 155.248 179.832 154.826 178.955C154.405 178.078 154.194 177.073 154.194 175.941C154.194 174.794 154.41 173.782 154.841 172.905C155.272 172.023 155.88 171.334 156.664 170.839C157.448 170.344 158.372 170.097 159.435 170.097C160.293 170.097 161.058 170.256 161.729 170.575C162.4 170.888 162.942 171.329 163.354 171.898C163.77 172.466 164.018 173.13 164.096 173.89H161.957C161.839 173.361 161.57 172.905 161.148 172.523C160.732 172.14 160.173 171.949 159.472 171.949C158.86 171.949 158.323 172.111 157.862 172.434C157.407 172.753 157.051 173.209 156.796 173.802C156.542 174.39 156.414 175.086 156.414 175.889C156.414 176.713 156.539 177.423 156.789 178.021C157.039 178.619 157.392 179.082 157.848 179.411C158.308 179.739 158.85 179.903 159.472 179.903C159.889 179.903 160.266 179.827 160.604 179.675C160.947 179.518 161.234 179.296 161.464 179.006C161.7 178.717 161.864 178.369 161.957 177.963H164.096C164.018 178.693 163.78 179.345 163.383 179.918C162.986 180.491 162.454 180.942 161.788 181.271C161.126 181.599 160.349 181.763 159.458 181.763ZM169.73 181.763C168.617 181.763 167.659 181.525 166.856 181.05C166.057 180.57 165.439 179.896 165.003 179.028C164.572 178.156 164.356 177.134 164.356 175.963C164.356 174.806 164.572 173.787 165.003 172.905C165.439 172.023 166.047 171.334 166.826 170.839C167.61 170.344 168.527 170.097 169.575 170.097C170.213 170.097 170.83 170.202 171.428 170.413C172.026 170.624 172.562 170.954 173.038 171.405C173.513 171.856 173.888 172.442 174.163 173.162C174.437 173.878 174.574 174.748 174.574 175.772V176.551H165.598V174.904H172.42C172.42 174.326 172.303 173.814 172.067 173.368C171.832 172.917 171.501 172.562 171.075 172.302C170.654 172.042 170.159 171.913 169.59 171.913C168.973 171.913 168.434 172.064 167.973 172.368C167.517 172.667 167.164 173.059 166.914 173.544C166.669 174.025 166.547 174.547 166.547 175.11V176.397C166.547 177.151 166.679 177.793 166.944 178.323C167.213 178.852 167.588 179.256 168.068 179.536C168.549 179.81 169.11 179.947 169.752 179.947C170.168 179.947 170.548 179.889 170.891 179.771C171.234 179.648 171.531 179.467 171.781 179.227C172.031 178.987 172.222 178.69 172.354 178.337L174.435 178.712C174.268 179.325 173.969 179.862 173.538 180.322C173.111 180.778 172.575 181.133 171.928 181.388C171.286 181.638 170.553 181.763 169.73 181.763ZM183.891 173L181.899 173.353C181.815 173.098 181.683 172.856 181.502 172.626C181.325 172.395 181.085 172.207 180.781 172.06C180.478 171.913 180.098 171.839 179.642 171.839C179.02 171.839 178.5 171.979 178.083 172.258C177.667 172.532 177.459 172.888 177.459 173.324C177.459 173.701 177.598 174.005 177.878 174.235C178.157 174.466 178.608 174.654 179.23 174.802L181.024 175.213C182.063 175.453 182.837 175.823 183.347 176.323C183.857 176.823 184.111 177.472 184.111 178.271C184.111 178.948 183.915 179.55 183.523 180.08C183.136 180.604 182.595 181.016 181.899 181.315C181.208 181.614 180.406 181.763 179.495 181.763C178.231 181.763 177.199 181.493 176.4 180.954C175.601 180.41 175.111 179.639 174.93 178.639L177.054 178.315C177.187 178.869 177.459 179.288 177.87 179.572C178.282 179.852 178.819 179.991 179.48 179.991C180.201 179.991 180.776 179.842 181.208 179.543C181.639 179.239 181.855 178.869 181.855 178.433C181.855 178.08 181.722 177.784 181.458 177.543C181.198 177.303 180.799 177.122 180.259 177L178.348 176.58C177.294 176.34 176.515 175.958 176.01 175.434C175.511 174.909 175.261 174.245 175.261 173.442C175.261 172.775 175.447 172.192 175.819 171.692C176.192 171.192 176.706 170.802 177.363 170.523C178.02 170.239 178.772 170.097 179.62 170.097C180.84 170.097 181.801 170.361 182.502 170.891C183.202 171.415 183.665 172.118 183.891 173ZM193.406 173L191.414 173.353C191.331 173.098 191.198 172.856 191.017 172.626C190.84 172.395 190.6 172.207 190.297 172.06C189.993 171.913 189.613 171.839 189.157 171.839C188.535 171.839 188.015 171.979 187.599 172.258C187.182 172.532 186.974 172.888 186.974 173.324C186.974 173.701 187.113 174.005 187.393 174.235C187.672 174.466 188.123 174.654 188.745 174.802L190.539 175.213C191.578 175.453 192.352 175.823 192.862 176.323C193.372 176.823 193.627 177.472 193.627 178.271C193.627 178.948 193.431 179.55 193.038 180.08C192.651 180.604 192.11 181.016 191.414 181.315C190.723 181.614 189.922 181.763 189.01 181.763C187.746 181.763 186.714 181.493 185.915 180.954C185.116 180.41 184.626 179.639 184.445 178.639L186.569 178.315C186.702 178.869 186.974 179.288 187.385 179.572C187.797 179.852 188.334 179.991 188.995 179.991C189.716 179.991 190.292 179.842 190.723 179.543C191.154 179.239 191.37 178.869 191.37 178.433C191.37 178.08 191.237 177.784 190.973 177.543C190.713 177.303 190.314 177.122 189.775 177L187.863 176.58C186.81 176.34 186.03 175.958 185.526 175.434C185.026 174.909 184.776 174.245 184.776 173.442C184.776 172.775 184.962 172.192 185.334 171.692C185.707 171.192 186.222 170.802 186.878 170.523C187.535 170.239 188.287 170.097 189.135 170.097C190.355 170.097 191.316 170.361 192.017 170.891C192.717 171.415 193.181 172.118 193.406 173ZM143.448 206.741C142.394 206.741 141.463 206.56 140.655 206.197C139.851 205.834 139.221 205.334 138.765 204.697C138.31 204.06 138.084 203.335 138.089 202.521C138.084 201.884 138.214 201.299 138.479 200.765C138.748 200.225 139.113 199.777 139.574 199.419C140.035 199.057 140.549 198.826 141.118 198.728V198.64C140.368 198.459 139.768 198.057 139.317 197.434C138.866 196.812 138.643 196.097 138.648 195.288C138.643 194.518 138.846 193.832 139.258 193.23C139.675 192.622 140.245 192.144 140.971 191.796C141.696 191.448 142.522 191.274 143.448 191.274C144.365 191.274 145.183 191.451 145.903 191.803C146.629 192.151 147.2 192.629 147.616 193.237C148.033 193.84 148.243 194.523 148.248 195.288C148.243 196.097 148.013 196.812 147.557 197.434C147.102 198.057 146.509 198.459 145.778 198.64V198.728C146.342 198.826 146.849 199.057 147.3 199.419C147.756 199.777 148.119 200.225 148.388 200.765C148.663 201.299 148.802 201.884 148.807 202.521C148.802 203.335 148.572 204.06 148.116 204.697C147.66 205.334 147.028 205.834 146.219 206.197C145.416 206.56 144.492 206.741 143.448 206.741ZM143.448 204.881C144.07 204.881 144.61 204.778 145.065 204.572C145.521 204.362 145.874 204.07 146.124 203.698C146.374 203.32 146.501 202.879 146.506 202.374C146.501 201.85 146.364 201.387 146.095 200.985C145.83 200.583 145.47 200.267 145.014 200.037C144.558 199.806 144.036 199.691 143.448 199.691C142.855 199.691 142.328 199.806 141.868 200.037C141.407 200.267 141.044 200.583 140.78 200.985C140.515 201.387 140.385 201.85 140.39 202.374C140.385 202.879 140.505 203.32 140.75 203.698C141 204.07 141.355 204.362 141.816 204.572C142.277 204.778 142.821 204.881 143.448 204.881ZM143.448 197.876C143.948 197.876 144.391 197.775 144.779 197.574C145.166 197.373 145.47 197.094 145.69 196.736C145.916 196.378 146.031 195.959 146.036 195.479C146.031 195.009 145.918 194.597 145.698 194.244C145.482 193.891 145.181 193.619 144.793 193.428C144.406 193.232 143.958 193.134 143.448 193.134C142.929 193.134 142.473 193.232 142.081 193.428C141.694 193.619 141.392 193.891 141.177 194.244C140.961 194.597 140.856 195.009 140.86 195.479C140.856 195.959 140.963 196.378 141.184 196.736C141.404 197.094 141.708 197.373 142.095 197.574C142.488 197.775 142.938 197.876 143.448 197.876ZM149.857 206.535V204.889L154.952 199.61C155.496 199.037 155.944 198.535 156.297 198.103C156.655 197.667 156.922 197.253 157.098 196.861C157.275 196.469 157.363 196.052 157.363 195.611C157.363 195.111 157.245 194.68 157.01 194.318C156.775 193.95 156.454 193.668 156.047 193.472C155.64 193.271 155.182 193.171 154.672 193.171C154.133 193.171 153.663 193.281 153.261 193.502C152.859 193.722 152.55 194.033 152.335 194.435C152.119 194.837 152.011 195.308 152.011 195.847H149.843C149.843 194.93 150.053 194.129 150.475 193.443C150.896 192.757 151.475 192.225 152.21 191.848C152.945 191.465 153.78 191.274 154.716 191.274C155.662 191.274 156.495 191.463 157.216 191.84C157.941 192.213 158.507 192.722 158.914 193.369C159.321 194.011 159.524 194.737 159.524 195.545C159.524 196.104 159.419 196.65 159.208 197.185C159.002 197.719 158.642 198.314 158.127 198.971C157.613 199.623 156.897 200.414 155.981 201.345L152.989 204.477V204.587H159.767V206.535H149.857ZM168.828 203.712V202.918C168.828 202.35 168.946 201.83 169.181 201.36C169.421 200.885 169.769 200.505 170.225 200.221C170.685 199.931 171.242 199.787 171.893 199.787C172.56 199.787 173.119 199.929 173.569 200.213C174.02 200.497 174.361 200.877 174.591 201.353C174.826 201.828 174.944 202.35 174.944 202.918V203.712C174.944 204.281 174.826 204.803 174.591 205.278C174.356 205.749 174.01 206.128 173.555 206.418C173.104 206.702 172.55 206.844 171.893 206.844C171.232 206.844 170.673 206.702 170.217 206.418C169.762 206.128 169.416 205.749 169.181 205.278C168.946 204.803 168.828 204.281 168.828 203.712ZM170.541 202.918V203.712C170.541 204.134 170.641 204.516 170.842 204.859C171.043 205.202 171.393 205.374 171.893 205.374C172.388 205.374 172.734 205.202 172.93 204.859C173.126 204.516 173.224 204.134 173.224 203.712V202.918C173.224 202.497 173.128 202.115 172.937 201.772C172.751 201.429 172.403 201.257 171.893 201.257C171.403 201.257 171.055 201.429 170.849 201.772C170.644 202.115 170.541 202.497 170.541 202.918ZM161.256 195.097V194.303C161.256 193.734 161.374 193.212 161.609 192.737C161.849 192.262 162.197 191.882 162.653 191.598C163.114 191.313 163.67 191.171 164.322 191.171C164.988 191.171 165.547 191.313 165.998 191.598C166.449 191.882 166.789 192.262 167.02 192.737C167.25 193.212 167.365 193.734 167.365 194.303V195.097C167.365 195.665 167.247 196.187 167.012 196.663C166.782 197.133 166.439 197.513 165.983 197.802C165.532 198.086 164.978 198.228 164.322 198.228C163.655 198.228 163.094 198.086 162.638 197.802C162.187 197.513 161.844 197.133 161.609 196.663C161.374 196.187 161.256 195.665 161.256 195.097ZM162.976 194.303V195.097C162.976 195.518 163.074 195.901 163.27 196.244C163.471 196.587 163.822 196.758 164.322 196.758C164.812 196.758 165.155 196.587 165.351 196.244C165.552 195.901 165.652 195.518 165.652 195.097V194.303C165.652 193.881 165.557 193.499 165.366 193.156C165.174 192.813 164.826 192.642 164.322 192.642C163.832 192.642 163.484 192.813 163.278 193.156C163.077 193.499 162.976 193.881 162.976 194.303ZM161.955 206.535L172.305 191.48H174.062L163.712 206.535H161.955Z" fill="#E9EEF1"/>
<path d="M56.2828 52.1523V37.0972H65.6187V39.0526H58.5543V43.6397H64.9498V45.5878H58.5543V52.1523H56.2828ZM69.898 52.4023C69.1825 52.4023 68.5356 52.27 67.9573 52.0053C67.3791 51.7358 66.9208 51.3462 66.5827 50.8365C66.2494 50.3268 66.0828 49.702 66.0828 48.9619C66.0828 48.3249 66.2053 47.8005 66.4504 47.3888C66.6954 46.9771 67.0262 46.6512 67.4428 46.4111C67.8593 46.171 68.3249 45.9896 68.8395 45.8671C69.3541 45.7446 69.8784 45.6515 70.4126 45.5878C71.0889 45.5094 71.6378 45.4457 72.0593 45.3966C72.4807 45.3427 72.787 45.257 72.9782 45.1394C73.1693 45.0217 73.2649 44.8306 73.2649 44.566V44.5145C73.2649 43.8725 73.0835 43.3751 72.7209 43.0222C72.3631 42.6694 71.8289 42.4929 71.1183 42.4929C70.3783 42.4929 69.7951 42.6571 69.3688 42.9855C68.9473 43.3089 68.6557 43.6691 68.494 44.0661L66.4283 43.5956C66.6733 42.9095 67.0311 42.3557 67.5016 41.9343C67.9769 41.5079 68.5234 41.1991 69.1409 41.008C69.7584 40.812 70.4077 40.714 71.0889 40.714C71.5398 40.714 72.0176 40.7679 72.5224 40.8757C73.0321 40.9786 73.5075 41.1697 73.9485 41.4491C74.3945 41.7284 74.7596 42.1278 75.0438 42.6473C75.3281 43.1619 75.4702 43.8309 75.4702 44.6542V52.1523H73.3237V50.6086H73.2355C73.0933 50.8928 72.8802 51.1722 72.5959 51.4466C72.3117 51.7211 71.9466 51.949 71.5006 52.1303C71.0546 52.3116 70.5204 52.4023 69.898 52.4023ZM70.3759 50.638C70.9836 50.638 71.503 50.5179 71.9343 50.2778C72.3705 50.0377 72.7013 49.724 72.9267 49.3369C73.157 48.9448 73.2722 48.5258 73.2722 48.0798V46.6243C73.1938 46.7027 73.0419 46.7762 72.8164 46.8448C72.5959 46.9085 72.3435 46.9649 72.0593 47.0139C71.775 47.058 71.4981 47.0997 71.2286 47.1389C70.9591 47.1732 70.7336 47.2026 70.5523 47.2271C70.1259 47.281 69.7363 47.3717 69.3835 47.4991C69.0355 47.6265 68.7562 47.8103 68.5454 48.0504C68.3396 48.2856 68.2367 48.5993 68.2367 48.9914C68.2367 49.5353 68.4376 49.947 68.8395 50.2263C69.2413 50.5008 69.7535 50.638 70.3759 50.638ZM76.8146 52.1523V40.861H79.0126V52.1523H76.8146ZM77.9246 39.1188C77.5423 39.1188 77.214 38.9914 76.9395 38.7365C76.67 38.4768 76.5352 38.168 76.5352 37.8103C76.5352 37.4476 76.67 37.1389 76.9395 36.884C77.214 36.6243 77.5423 36.4944 77.9246 36.4944C78.3068 36.4944 78.6327 36.6243 78.9023 36.884C79.1767 37.1389 79.3139 37.4476 79.3139 37.8103C79.3139 38.168 79.1767 38.4768 78.9023 38.7365C78.6327 38.9914 78.3068 39.1188 77.9246 39.1188ZM82.5843 37.0972V52.1523H80.3863V37.0972H82.5843ZM91.1107 47.4697V40.861H93.3161V52.1523H91.1548V50.1969H91.0372C90.7775 50.7997 90.3609 51.3021 89.7875 51.7039C89.219 52.1009 88.5109 52.2994 87.663 52.2994C86.9377 52.2994 86.2957 52.1401 85.737 51.8215C85.1833 51.4981 84.7471 51.0203 84.4285 50.3881C84.1149 49.7559 83.9581 48.9742 83.9581 48.0431V40.861H86.1561V47.7784C86.1561 48.5478 86.3692 49.1604 86.7956 49.6162C87.222 50.072 87.7758 50.2999 88.457 50.2999C88.8686 50.2999 89.2778 50.1969 89.6846 49.9911C90.0963 49.7853 90.4369 49.4741 90.7064 49.0575C90.9809 48.6409 91.1156 48.1117 91.1107 47.4697ZM94.6861 52.1523V40.861H96.8106V42.6547H96.9282C97.1341 42.047 97.4967 41.5692 98.0162 41.2212C98.5406 40.8683 99.1336 40.6919 99.7952 40.6919C99.9324 40.6919 100.094 40.6968 100.28 40.7066C100.471 40.7164 100.621 40.7287 100.729 40.7434V42.8458C100.641 42.8213 100.484 42.7943 100.258 42.7649C100.033 42.7306 99.8074 42.7135 99.582 42.7135C99.0625 42.7135 98.5994 42.8237 98.1926 43.0443C97.7908 43.2599 97.4722 43.5613 97.237 43.9485C97.0018 44.3307 96.8841 44.7669 96.8841 45.257V52.1523H94.6861ZM105.51 52.3802C104.397 52.3802 103.439 52.1425 102.636 51.6672C101.837 51.1869 101.219 50.513 100.783 49.6456C100.352 48.7733 100.136 47.7515 100.136 46.5802C100.136 45.4236 100.352 44.4042 100.783 43.5221C101.219 42.64 101.827 41.9514 102.606 41.4564C103.39 40.9615 104.307 40.714 105.355 40.714C105.993 40.714 106.61 40.8193 107.208 41.0301C107.806 41.2408 108.342 41.5716 108.818 42.0225C109.293 42.4733 109.668 43.059 109.943 43.7794C110.217 44.4949 110.354 45.3648 110.354 46.3891V47.1683H101.378V45.5216H108.2C108.2 44.9433 108.083 44.4312 107.847 43.9852C107.612 43.5344 107.281 43.1791 106.855 42.9193C106.434 42.6596 105.939 42.5297 105.37 42.5297C104.753 42.5297 104.214 42.6816 103.753 42.9855C103.297 43.2844 102.944 43.6765 102.694 44.1617C102.449 44.6419 102.327 45.1639 102.327 45.7274V47.0139C102.327 47.7686 102.459 48.4106 102.724 48.9399C102.993 49.4692 103.368 49.8735 103.848 50.1528C104.329 50.4273 104.89 50.5645 105.532 50.5645C105.948 50.5645 106.328 50.5057 106.671 50.3881C107.014 50.2656 107.311 50.0842 107.561 49.8441C107.811 49.6039 108.002 49.3075 108.134 48.9546L110.215 49.3295C110.048 49.9421 109.749 50.4787 109.318 50.9394C108.891 51.3952 108.355 51.7505 107.708 52.0053C107.066 52.2553 106.333 52.3802 105.51 52.3802ZM70.9203 62.0972V77.1523H68.6415V64.3761H68.5533L64.9512 66.7284V64.5525L68.7076 62.0972H70.9203ZM78.4966 77.3582C77.443 77.3582 76.5118 77.1768 75.7032 76.8142C74.8995 76.4515 74.2697 75.9517 73.8139 75.3146C73.3582 74.6775 73.1327 73.9521 73.1376 73.1386C73.1327 72.5015 73.2626 71.9159 73.5272 71.3817C73.7968 70.8426 74.1619 70.3942 74.6226 70.0364C75.0832 69.6738 75.5978 69.4434 76.1663 69.3454V69.2572C75.4165 69.0759 74.8161 68.674 74.3653 68.0516C73.9144 67.4292 73.6914 66.7137 73.6963 65.9051C73.6914 65.1357 73.8948 64.4496 74.3065 63.8468C74.723 63.2391 75.294 62.7613 76.0193 62.4133C76.7446 62.0654 77.5704 61.8914 78.4966 61.8914C79.4131 61.8914 80.2315 62.0678 80.9519 62.4207C81.6772 62.7686 82.2481 63.2464 82.6647 63.8541C83.0813 64.4569 83.292 65.1406 83.2969 65.9051C83.292 66.7137 83.0617 67.4292 82.6059 68.0516C82.1501 68.674 81.5571 69.0759 80.8269 69.2572V69.3454C81.3905 69.4434 81.8977 69.6738 82.3486 70.0364C82.8044 70.3942 83.167 70.8426 83.4366 71.3817C83.711 71.9159 83.8507 72.5015 83.8556 73.1386C83.8507 73.9521 83.6204 74.6775 83.1646 75.3146C82.7088 75.9517 82.0766 76.4515 81.268 76.8142C80.4643 77.1768 79.5405 77.3582 78.4966 77.3582ZM78.4966 75.4983C79.119 75.4983 79.6581 75.3954 80.1139 75.1896C80.5696 74.9789 80.9225 74.6873 81.1724 74.3148C81.4224 73.9374 81.5498 73.4964 81.5547 72.9916C81.5498 72.4672 81.4126 72.0041 81.143 71.6022C80.8784 71.2004 80.5182 70.8843 80.0624 70.6539C79.6066 70.4236 79.0847 70.3084 78.4966 70.3084C77.9036 70.3084 77.3768 70.4236 76.9161 70.6539C76.4555 70.8843 76.0928 71.2004 75.8282 71.6022C75.5635 72.0041 75.4336 72.4672 75.4385 72.9916C75.4336 73.4964 75.5537 73.9374 75.7987 74.3148C76.0487 74.6873 76.404 74.9789 76.8647 75.1896C77.3253 75.3954 77.8693 75.4983 78.4966 75.4983ZM78.4966 68.4927C78.9965 68.4927 79.44 68.3922 79.8272 68.1913C80.2143 67.9904 80.5182 67.711 80.7387 67.3533C80.9642 66.9955 81.0793 66.5765 81.0842 66.0962C81.0793 65.6258 80.9666 65.2141 80.7461 64.8612C80.5304 64.5084 80.229 64.2364 79.8419 64.0453C79.4547 63.8492 79.0063 63.7512 78.4966 63.7512C77.9771 63.7512 77.5214 63.8492 77.1293 64.0453C76.7421 64.2364 76.4407 64.5084 76.2251 64.8612C76.0095 65.2141 75.9041 65.6258 75.909 66.0962C75.9041 66.5765 76.0119 66.9955 76.2325 67.3533C76.453 67.711 76.7568 67.9904 77.144 68.1913C77.5361 68.3922 77.9869 68.4927 78.4966 68.4927ZM92.7643 74.3295V73.5356C92.7643 72.9671 92.8819 72.4476 93.1171 71.9771C93.3573 71.5018 93.7052 71.122 94.161 70.8377C94.6217 70.5486 95.1779 70.404 95.8297 70.404C96.4962 70.404 97.0549 70.5461 97.5058 70.8304C97.9566 71.1146 98.2972 71.4944 98.5276 71.9698C98.7628 72.4452 98.8804 72.9671 98.8804 73.5356V74.3295C98.8804 74.898 98.7628 75.4199 98.5276 75.8953C98.2923 76.3658 97.9468 76.7456 97.4911 77.0347C97.0402 77.319 96.4864 77.4611 95.8297 77.4611C95.1681 77.4611 94.6094 77.319 94.1536 77.0347C93.6979 76.7456 93.3524 76.3658 93.1171 75.8953C92.8819 75.4199 92.7643 74.898 92.7643 74.3295ZM94.4771 73.5356V74.3295C94.4771 74.751 94.5776 75.1332 94.7785 75.4763C94.9794 75.8193 95.3298 75.9909 95.8297 75.9909C96.3247 75.9909 96.6702 75.8193 96.8662 75.4763C97.0622 75.1332 97.1603 74.751 97.1603 74.3295V73.5356C97.1603 73.1141 97.0647 72.7319 96.8736 72.3888C96.6873 72.0458 96.3394 71.8742 95.8297 71.8742C95.3396 71.8742 94.9917 72.0458 94.7858 72.3888C94.58 72.7319 94.4771 73.1141 94.4771 73.5356ZM85.1926 65.714V64.92C85.1926 64.3516 85.3102 63.8296 85.5455 63.3543C85.7856 62.8789 86.1335 62.4991 86.5893 62.2148C87.05 61.9306 87.6062 61.7885 88.258 61.7885C88.9245 61.7885 89.4832 61.9306 89.9341 62.2148C90.385 62.4991 90.7256 62.8789 90.9559 63.3543C91.1862 63.8296 91.3014 64.3516 91.3014 64.92V65.714C91.3014 66.2825 91.1838 66.8044 90.9485 67.2798C90.7182 67.7502 90.3752 68.13 89.9194 68.4192C89.4685 68.7034 88.9147 68.8456 88.258 68.8456C87.5915 68.8456 87.0304 68.7034 86.5746 68.4192C86.1237 68.13 85.7807 67.7502 85.5455 67.2798C85.3102 66.8044 85.1926 66.2825 85.1926 65.714ZM86.9128 64.92V65.714C86.9128 66.1354 87.0108 66.5177 87.2068 66.8607C87.4077 67.2038 87.7582 67.3753 88.258 67.3753C88.7481 67.3753 89.0912 67.2038 89.2872 66.8607C89.4881 66.5177 89.5886 66.1354 89.5886 65.714V64.92C89.5886 64.4986 89.493 64.1163 89.3019 63.7733C89.1108 63.4302 88.7628 63.2587 88.258 63.2587C87.768 63.2587 87.42 63.4302 87.2142 63.7733C87.0132 64.1163 86.9128 64.4986 86.9128 64.92ZM85.891 77.1523L96.2414 62.0972H97.9983L87.6479 77.1523H85.891Z" fill="#E9EEF1"/>
<defs>
<linearGradient id="paint0_linear_3415_20049" x1="129.62" y1="259" x2="129.62" y2="0.239948" gradientUnits="userSpaceOnUse">
<stop stop-color="#0B88E5"/>
<stop offset="1" stop-color="#084471"/>
</linearGradient>
<linearGradient id="paint1_linear_3415_20049" x1="129.618" y1="0.238281" x2="129.618" y2="258.998" gradientUnits="userSpaceOnUse">
<stop stop-color="#99FAF4"/>
<stop offset="1" stop-color="#0D99FF"/>
</linearGradient>
</defs>
</svg>
