<svg width="259" height="259" viewBox="0 0 259 259" fill="none" xmlns="http://www.w3.org/2000/svg">
<path d="M20.7426 199.512C8.15377 179.901 1.09532 157.254 0.312908 133.964C-0.4695 110.673 5.05319 87.6037 16.2976 67.1923C27.5419 46.7808 44.0905 29.7853 64.1951 18.0011C84.2997 6.21687 107.214 0.0814687 130.517 0.243061L129.62 129.62L20.7426 199.512Z" fill="url(#paint0_linear_3415_20047)"/>
<path d="M129.618 0.238281C152.095 0.238282 174.184 6.09381 193.709 17.228C213.234 28.3622 229.522 44.3909 240.967 63.7351C252.413 83.0793 258.622 105.072 258.982 127.545C259.342 150.019 253.841 172.199 243.021 191.9C232.201 211.601 216.435 228.143 197.277 239.897C178.119 251.651 156.229 258.212 133.764 258.932C111.299 259.652 89.0335 254.507 69.1617 244.004C49.2899 233.502 32.4971 218.003 20.4375 199.035L129.618 129.618V0.238281Z" fill="url(#paint1_linear_3415_20047)"/>
<path d="M149.437 170.435C149.358 169.739 149.035 169.2 148.466 168.818C147.898 168.431 147.182 168.237 146.32 168.237C145.702 168.237 145.168 168.335 144.717 168.531C144.266 168.722 143.916 168.987 143.666 169.325C143.421 169.658 143.298 170.038 143.298 170.464C143.298 170.822 143.382 171.131 143.548 171.391C143.72 171.65 143.943 171.868 144.217 172.045C144.497 172.216 144.796 172.361 145.114 172.479C145.433 172.591 145.739 172.684 146.033 172.758L147.503 173.14C147.983 173.258 148.476 173.417 148.981 173.618C149.486 173.819 149.954 174.084 150.385 174.412C150.816 174.74 151.164 175.147 151.429 175.632C151.698 176.117 151.833 176.698 151.833 177.374C151.833 178.227 151.612 178.984 151.171 179.646C150.735 180.308 150.101 180.829 149.267 181.212C148.439 181.594 147.437 181.785 146.261 181.785C145.134 181.785 144.158 181.606 143.335 181.248C142.512 180.891 141.867 180.383 141.402 179.727C140.936 179.065 140.679 178.281 140.63 177.374H142.909C142.953 177.918 143.129 178.372 143.438 178.734C143.752 179.092 144.151 179.359 144.636 179.536C145.126 179.707 145.663 179.793 146.246 179.793C146.888 179.793 147.459 179.692 147.959 179.492C148.464 179.286 148.861 179.001 149.15 178.639C149.439 178.271 149.584 177.842 149.584 177.352C149.584 176.906 149.456 176.541 149.201 176.257C148.951 175.973 148.611 175.738 148.179 175.551C147.753 175.365 147.27 175.201 146.731 175.059L144.952 174.574C143.747 174.245 142.791 173.763 142.085 173.125C141.385 172.488 141.034 171.645 141.034 170.597C141.034 169.729 141.269 168.972 141.74 168.325C142.21 167.678 142.847 167.176 143.651 166.818C144.455 166.456 145.362 166.274 146.371 166.274C147.39 166.274 148.29 166.453 149.069 166.811C149.853 167.169 150.471 167.661 150.921 168.288C151.372 168.911 151.608 169.626 151.627 170.435H149.437ZM159.94 176.852V170.244H162.146V181.535H159.985V179.58H159.867C159.607 180.183 159.191 180.685 158.617 181.087C158.049 181.484 157.341 181.682 156.493 181.682C155.767 181.682 155.125 181.523 154.567 181.204C154.013 180.881 153.577 180.403 153.258 179.771C152.945 179.139 152.788 178.357 152.788 177.426V170.244H154.986V177.161C154.986 177.931 155.199 178.543 155.625 178.999C156.052 179.455 156.605 179.683 157.287 179.683C157.698 179.683 158.108 179.58 158.514 179.374C158.926 179.168 159.267 178.857 159.536 178.44C159.811 178.024 159.945 177.494 159.94 176.852ZM168.272 181.763C167.179 181.763 166.238 181.516 165.449 181.021C164.665 180.521 164.062 179.832 163.641 178.955C163.219 178.078 163.009 177.073 163.009 175.941C163.009 174.794 163.224 173.782 163.656 172.905C164.087 172.023 164.694 171.334 165.479 170.839C166.263 170.344 167.187 170.097 168.25 170.097C169.108 170.097 169.872 170.256 170.544 170.575C171.215 170.888 171.756 171.329 172.168 171.898C172.585 172.466 172.832 173.13 172.911 173.89H170.771C170.654 173.361 170.384 172.905 169.963 172.523C169.546 172.14 168.988 171.949 168.287 171.949C167.674 171.949 167.137 172.111 166.677 172.434C166.221 172.753 165.866 173.209 165.611 173.802C165.356 174.39 165.229 175.086 165.229 175.889C165.229 176.713 165.354 177.423 165.604 178.021C165.853 178.619 166.206 179.082 166.662 179.411C167.123 179.739 167.664 179.903 168.287 179.903C168.703 179.903 169.081 179.827 169.419 179.675C169.762 179.518 170.049 179.296 170.279 179.006C170.514 178.717 170.678 178.369 170.771 177.963H172.911C172.832 178.693 172.594 179.345 172.198 179.918C171.801 180.491 171.269 180.942 170.602 181.271C169.941 181.599 169.164 181.763 168.272 181.763ZM178.434 181.763C177.341 181.763 176.4 181.516 175.611 181.021C174.827 180.521 174.224 179.832 173.803 178.955C173.381 178.078 173.171 177.073 173.171 175.941C173.171 174.794 173.386 173.782 173.818 172.905C174.249 172.023 174.857 171.334 175.641 170.839C176.425 170.344 177.349 170.097 178.412 170.097C179.27 170.097 180.034 170.256 180.706 170.575C181.377 170.888 181.919 171.329 182.33 171.898C182.747 172.466 182.994 173.13 183.073 173.89H180.933C180.816 173.361 180.546 172.905 180.125 172.523C179.708 172.14 179.15 171.949 178.449 171.949C177.836 171.949 177.3 172.111 176.839 172.434C176.383 172.753 176.028 173.209 175.773 173.802C175.518 174.39 175.391 175.086 175.391 175.889C175.391 176.713 175.516 177.423 175.766 178.021C176.016 178.619 176.368 179.082 176.824 179.411C177.285 179.739 177.826 179.903 178.449 179.903C178.865 179.903 179.243 179.827 179.581 179.675C179.924 179.518 180.211 179.296 180.441 179.006C180.676 178.717 180.84 178.369 180.933 177.963H183.073C182.994 178.693 182.757 179.345 182.36 179.918C181.963 180.491 181.431 180.942 180.764 181.271C180.103 181.599 179.326 181.763 178.434 181.763ZM188.706 181.763C187.594 181.763 186.636 181.525 185.832 181.05C185.033 180.57 184.416 179.896 183.98 179.028C183.548 178.156 183.333 177.134 183.333 175.963C183.333 174.806 183.548 173.787 183.98 172.905C184.416 172.023 185.023 171.334 185.803 170.839C186.587 170.344 187.503 170.097 188.552 170.097C189.189 170.097 189.807 170.202 190.404 170.413C191.002 170.624 191.539 170.954 192.014 171.405C192.49 171.856 192.865 172.442 193.139 173.162C193.414 173.878 193.551 174.748 193.551 175.772V176.551H184.575V174.904H191.397C191.397 174.326 191.279 173.814 191.044 173.368C190.809 172.917 190.478 172.562 190.052 172.302C189.63 172.042 189.135 171.913 188.567 171.913C187.949 171.913 187.41 172.064 186.949 172.368C186.494 172.667 186.141 173.059 185.891 173.544C185.646 174.025 185.523 174.547 185.523 175.11V176.397C185.523 177.151 185.656 177.793 185.92 178.323C186.19 178.852 186.565 179.256 187.045 179.536C187.525 179.81 188.086 179.947 188.728 179.947C189.145 179.947 189.525 179.889 189.868 179.771C190.211 179.648 190.507 179.467 190.757 179.227C191.007 178.987 191.198 178.69 191.331 178.337L193.411 178.712C193.244 179.325 192.946 179.862 192.514 180.322C192.088 180.778 191.551 181.133 190.904 181.388C190.262 181.638 189.53 181.763 188.706 181.763ZM202.867 173L200.875 173.353C200.792 173.098 200.66 172.856 200.478 172.626C200.302 172.395 200.062 172.207 199.758 172.06C199.454 171.913 199.074 171.839 198.618 171.839C197.996 171.839 197.477 171.979 197.06 172.258C196.643 172.532 196.435 172.888 196.435 173.324C196.435 173.701 196.575 174.005 196.854 174.235C197.134 174.466 197.584 174.654 198.207 174.802L200.001 175.213C201.039 175.453 201.814 175.823 202.323 176.323C202.833 176.823 203.088 177.472 203.088 178.271C203.088 178.948 202.892 179.55 202.5 180.08C202.113 180.604 201.571 181.016 200.875 181.315C200.184 181.614 199.383 181.763 198.471 181.763C197.207 181.763 196.175 181.493 195.377 180.954C194.578 180.41 194.088 179.639 193.906 178.639L196.031 178.315C196.163 178.869 196.435 179.288 196.847 179.572C197.259 179.852 197.795 179.991 198.457 179.991C199.177 179.991 199.753 179.842 200.184 179.543C200.616 179.239 200.831 178.869 200.831 178.433C200.831 178.08 200.699 177.784 200.434 177.543C200.174 177.303 199.775 177.122 199.236 177L197.325 176.58C196.271 176.34 195.492 175.958 194.987 175.434C194.487 174.909 194.237 174.245 194.237 173.442C194.237 172.775 194.423 172.192 194.796 171.692C195.168 171.192 195.683 170.802 196.34 170.523C196.996 170.239 197.749 170.097 198.596 170.097C199.817 170.097 200.777 170.361 201.478 170.891C202.179 171.415 202.642 172.118 202.867 173ZM212.383 173L210.39 173.353C210.307 173.098 210.175 172.856 209.993 172.626C209.817 172.395 209.577 172.207 209.273 172.06C208.969 171.913 208.589 171.839 208.134 171.839C207.511 171.839 206.992 171.979 206.575 172.258C206.159 172.532 205.95 172.888 205.95 173.324C205.95 173.701 206.09 174.005 206.369 174.235C206.649 174.466 207.1 174.654 207.722 174.802L209.516 175.213C210.555 175.453 211.329 175.823 211.839 176.323C212.348 176.823 212.603 177.472 212.603 178.271C212.603 178.948 212.407 179.55 212.015 180.08C211.628 180.604 211.086 181.016 210.39 181.315C209.699 181.614 208.898 181.763 207.987 181.763C206.722 181.763 205.691 181.493 204.892 180.954C204.093 180.41 203.603 179.639 203.422 178.639L205.546 178.315C205.678 178.869 205.95 179.288 206.362 179.572C206.774 179.852 207.31 179.991 207.972 179.991C208.692 179.991 209.268 179.842 209.699 179.543C210.131 179.239 210.346 178.869 210.346 178.433C210.346 178.08 210.214 177.784 209.949 177.543C209.69 177.303 209.29 177.122 208.751 177L206.84 176.58C205.786 176.34 205.007 175.958 204.502 175.434C204.002 174.909 203.752 174.245 203.752 173.442C203.752 172.775 203.939 172.192 204.311 171.692C204.684 171.192 205.198 170.802 205.855 170.523C206.511 170.239 207.264 170.097 208.112 170.097C209.332 170.097 210.292 170.361 210.993 170.891C211.694 171.415 212.157 172.118 212.383 173ZM162.483 206.741C161.811 206.731 161.15 206.609 160.498 206.373C159.851 206.138 159.263 205.746 158.733 205.197C158.204 204.648 157.78 203.911 157.462 202.985C157.148 202.058 156.991 200.902 156.991 199.515C156.991 198.201 157.121 197.035 157.381 196.016C157.645 194.996 158.025 194.136 158.52 193.435C159.015 192.73 159.613 192.193 160.314 191.826C161.015 191.458 161.801 191.274 162.674 191.274C163.571 191.274 164.367 191.451 165.063 191.803C165.759 192.156 166.322 192.644 166.754 193.266C167.19 193.889 167.467 194.597 167.584 195.391H165.342C165.19 194.764 164.889 194.251 164.438 193.854C163.987 193.457 163.399 193.259 162.674 193.259C161.571 193.259 160.711 193.739 160.093 194.7C159.481 195.66 159.172 196.996 159.167 198.706H159.277C159.537 198.28 159.856 197.917 160.233 197.618C160.615 197.314 161.042 197.082 161.512 196.92C161.988 196.753 162.487 196.67 163.012 196.67C163.884 196.67 164.673 196.883 165.379 197.309C166.09 197.731 166.656 198.314 167.077 199.059C167.498 199.804 167.709 200.657 167.709 201.617C167.709 202.578 167.491 203.448 167.055 204.227C166.624 205.006 166.016 205.624 165.232 206.079C164.448 206.53 163.531 206.751 162.483 206.741ZM162.475 204.83C163.053 204.83 163.571 204.688 164.026 204.403C164.482 204.119 164.842 203.737 165.107 203.257C165.372 202.776 165.504 202.24 165.504 201.647C165.504 201.068 165.374 200.542 165.114 200.066C164.859 199.591 164.507 199.213 164.056 198.934C163.61 198.655 163.1 198.515 162.527 198.515C162.09 198.515 161.686 198.598 161.314 198.765C160.946 198.932 160.623 199.162 160.343 199.456C160.064 199.75 159.843 200.088 159.682 200.47C159.525 200.848 159.447 201.247 159.447 201.669C159.447 202.232 159.576 202.754 159.836 203.234C160.101 203.715 160.461 204.102 160.917 204.396C161.377 204.685 161.897 204.83 162.475 204.83ZM173.773 206.741C172.852 206.741 172.023 206.565 171.288 206.212C170.558 205.854 169.975 205.364 169.539 204.741C169.103 204.119 168.87 203.408 168.84 202.61H171.046C171.1 203.257 171.386 203.788 171.906 204.205C172.425 204.621 173.048 204.83 173.773 204.83C174.351 204.83 174.863 204.697 175.309 204.433C175.76 204.163 176.113 203.793 176.368 203.323C176.628 202.852 176.758 202.316 176.758 201.713C176.758 201.1 176.625 200.554 176.361 200.074C176.096 199.593 175.731 199.216 175.265 198.941C174.805 198.667 174.275 198.527 173.677 198.522C173.222 198.522 172.763 198.601 172.303 198.758C171.842 198.914 171.47 199.12 171.185 199.375L169.105 199.066L169.95 191.48H178.228V193.428H171.84L171.362 197.64H171.45C171.744 197.356 172.134 197.118 172.619 196.927C173.109 196.736 173.633 196.641 174.192 196.641C175.108 196.641 175.924 196.859 176.64 197.295C177.36 197.731 177.926 198.326 178.338 199.081C178.755 199.831 178.96 200.693 178.956 201.669C178.96 202.644 178.74 203.514 178.294 204.278C177.853 205.043 177.24 205.646 176.456 206.087C175.677 206.523 174.783 206.741 173.773 206.741ZM187.916 203.712V202.918C187.916 202.35 188.033 201.83 188.269 201.36C188.509 200.885 188.857 200.505 189.312 200.221C189.773 199.931 190.329 199.787 190.981 199.787C191.648 199.787 192.206 199.929 192.657 200.213C193.108 200.497 193.449 200.877 193.679 201.353C193.914 201.828 194.032 202.35 194.032 202.918V203.712C194.032 204.281 193.914 204.803 193.679 205.278C193.444 205.749 193.098 206.128 192.642 206.418C192.192 206.702 191.638 206.844 190.981 206.844C190.32 206.844 189.761 206.702 189.305 206.418C188.849 206.128 188.504 205.749 188.269 205.278C188.033 204.803 187.916 204.281 187.916 203.712ZM189.628 202.918V203.712C189.628 204.134 189.729 204.516 189.93 204.859C190.131 205.202 190.481 205.374 190.981 205.374C191.476 205.374 191.822 205.202 192.018 204.859C192.214 204.516 192.312 204.134 192.312 203.712V202.918C192.312 202.497 192.216 202.115 192.025 201.772C191.839 201.429 191.491 201.257 190.981 201.257C190.491 201.257 190.143 201.429 189.937 201.772C189.731 202.115 189.628 202.497 189.628 202.918ZM180.344 195.097V194.303C180.344 193.734 180.462 193.212 180.697 192.737C180.937 192.262 181.285 191.882 181.741 191.598C182.201 191.313 182.758 191.171 183.409 191.171C184.076 191.171 184.635 191.313 185.085 191.598C185.536 191.882 185.877 192.262 186.107 192.737C186.338 193.212 186.453 193.734 186.453 194.303V195.097C186.453 195.665 186.335 196.187 186.1 196.663C185.87 197.133 185.527 197.513 185.071 197.802C184.62 198.086 184.066 198.228 183.409 198.228C182.743 198.228 182.182 198.086 181.726 197.802C181.275 197.513 180.932 197.133 180.697 196.663C180.462 196.187 180.344 195.665 180.344 195.097ZM182.064 194.303V195.097C182.064 195.518 182.162 195.901 182.358 196.244C182.559 196.587 182.91 196.758 183.409 196.758C183.9 196.758 184.243 196.587 184.439 196.244C184.64 195.901 184.74 195.518 184.74 195.097V194.303C184.74 193.881 184.644 193.499 184.453 193.156C184.262 192.813 183.914 192.642 183.409 192.642C182.919 192.642 182.571 192.813 182.366 193.156C182.165 193.499 182.064 193.881 182.064 194.303ZM181.042 206.535L191.393 191.48H193.15L182.799 206.535H181.042Z" fill="#E9EEF1"/>
<path d="M27.818 83.2031V68.148H37.1539V70.1034H30.0895V74.6905H36.4849V76.6386H30.0895V83.2031H27.818ZM41.4332 83.4531C40.7177 83.4531 40.0708 83.3207 39.4925 83.0561C38.9142 82.7866 38.456 82.3969 38.1178 81.8873C37.7846 81.3776 37.618 80.7527 37.618 80.0127C37.618 79.3756 37.7405 78.8513 37.9855 78.4396C38.2306 78.0279 38.5614 77.702 38.9779 77.4619C39.3945 77.2217 39.8601 77.0404 40.3746 76.9179C40.8892 76.7954 41.4136 76.7023 41.9478 76.6386C42.6241 76.5601 43.173 76.4964 43.5944 76.4474C44.0159 76.3935 44.3222 76.3078 44.5133 76.1901C44.7045 76.0725 44.8 75.8814 44.8 75.6167V75.5653C44.8 74.9233 44.6187 74.4259 44.256 74.073C43.8983 73.7202 43.3641 73.5437 42.6535 73.5437C41.9135 73.5437 41.3303 73.7079 40.9039 74.0363C40.4825 74.3597 40.1909 74.7199 40.0291 75.1169L37.9635 74.6464C38.2085 73.9603 38.5663 73.4065 39.0367 72.985C39.5121 72.5587 40.0585 72.2499 40.676 72.0588C41.2935 71.8628 41.9429 71.7648 42.6241 71.7648C43.075 71.7648 43.5528 71.8187 44.0576 71.9265C44.5672 72.0294 45.0426 72.2205 45.4837 72.4999C45.9296 72.7792 46.2948 73.1786 46.579 73.6981C46.8632 74.2127 47.0054 74.8816 47.0054 75.705V83.2031H44.8588V81.6594H44.7706C44.6285 81.9436 44.4153 82.223 44.1311 82.4974C43.8468 82.7719 43.4817 82.9997 43.0357 83.1811C42.5898 83.3624 42.0556 83.4531 41.4332 83.4531ZM41.911 81.6888C42.5187 81.6888 43.0382 81.5687 43.4695 81.3286C43.9056 81.0884 44.2364 80.7748 44.4619 80.3876C44.6922 79.9956 44.8074 79.5766 44.8074 79.1306V77.6751C44.729 77.7535 44.577 77.827 44.3516 77.8956C44.1311 77.9593 43.8787 78.0157 43.5944 78.0647C43.3102 78.1088 43.0333 78.1504 42.7638 78.1896C42.4942 78.224 42.2688 78.2534 42.0875 78.2779C41.6611 78.3318 41.2715 78.4224 40.9186 78.5499C40.5707 78.6773 40.2913 78.8611 40.0806 79.1012C39.8748 79.3364 39.7718 79.6501 39.7718 80.0421C39.7718 80.5861 39.9728 80.9978 40.3746 81.2771C40.7765 81.5516 41.2886 81.6888 41.911 81.6888ZM48.3497 83.2031V71.9118H50.5477V83.2031H48.3497ZM49.4597 70.1696C49.0775 70.1696 48.7491 70.0421 48.4747 69.7873C48.2051 69.5276 48.0704 69.2188 48.0704 68.8611C48.0704 68.4984 48.2051 68.1896 48.4747 67.9348C48.7491 67.6751 49.0775 67.5452 49.4597 67.5452C49.842 67.5452 50.1679 67.6751 50.4374 67.9348C50.7119 68.1896 50.8491 68.4984 50.8491 68.8611C50.8491 69.2188 50.7119 69.5276 50.4374 69.7873C50.1679 70.0421 49.842 70.1696 49.4597 70.1696ZM54.1195 68.148V83.2031H51.9215V68.148H54.1195ZM62.6459 78.5204V71.9118H64.8512V83.2031H62.69V81.2477H62.5724C62.3126 81.8505 61.8961 82.3528 61.3227 82.7547C60.7542 83.1517 60.046 83.3501 59.1982 83.3501C58.4729 83.3501 57.8309 83.1909 57.2722 82.8723C56.7184 82.5489 56.2822 82.071 55.9637 81.4389C55.65 80.8067 55.4932 80.025 55.4932 79.0938V71.9118H57.6912V78.8292C57.6912 79.5986 57.9044 80.2112 58.3308 80.667C58.7571 81.1228 59.3109 81.3506 59.9921 81.3506C60.4038 81.3506 60.813 81.2477 61.2198 81.0419C61.6314 80.8361 61.972 80.5249 62.2416 80.1083C62.516 79.6917 62.6508 79.1624 62.6459 78.5204ZM66.2213 83.2031V71.9118H68.3458V73.7055H68.4634C68.6692 73.0978 69.0319 72.6199 69.5514 72.272C70.0758 71.9191 70.6687 71.7427 71.3303 71.7427C71.4676 71.7427 71.6293 71.7476 71.8155 71.7574C72.0067 71.7672 72.1561 71.7795 72.2639 71.7942V73.8966C72.1757 73.8721 72.0189 73.8451 71.7935 73.8157C71.568 73.7814 71.3426 73.7643 71.1172 73.7643C70.5977 73.7643 70.1346 73.8745 69.7278 74.0951C69.3259 74.3107 69.0074 74.6121 68.7721 74.9993C68.5369 75.3815 68.4193 75.8177 68.4193 76.3078V83.2031H66.2213ZM77.045 83.431C75.9325 83.431 74.9744 83.1933 74.1707 82.7179C73.3718 82.2377 72.7543 81.5638 72.3182 80.6964C71.8869 79.8241 71.6713 78.8022 71.6713 77.631C71.6713 76.4744 71.8869 75.455 72.3182 74.5729C72.7543 73.6907 73.362 73.0022 74.1413 72.5072C74.9254 72.0122 75.8418 71.7648 76.8906 71.7648C77.5277 71.7648 78.1452 71.8701 78.7431 72.0809C79.341 72.2916 79.8776 72.6224 80.353 73.0733C80.8283 73.5241 81.2032 74.1098 81.4777 74.8302C81.7521 75.5457 81.8894 76.4156 81.8894 77.4398V78.2191H72.9136V76.5724H79.7355C79.7355 75.9941 79.6179 75.482 79.3826 75.036C79.1474 74.5851 78.8166 74.2298 78.3902 73.9701C77.9687 73.7104 77.4738 73.5805 76.9053 73.5805C76.2878 73.5805 75.7487 73.7324 75.288 74.0363C74.8323 74.3352 74.4794 74.7273 74.2295 75.2124C73.9844 75.6927 73.8619 76.2146 73.8619 76.7782V78.0647C73.8619 78.8194 73.9942 79.4614 74.2589 79.9907C74.5284 80.52 74.9033 80.9243 75.3836 81.2036C75.8639 81.4781 76.425 81.6153 77.067 81.6153C77.4836 81.6153 77.8634 81.5565 78.2064 81.4389C78.5495 81.3163 78.846 81.135 79.0959 80.8949C79.3459 80.6547 79.537 80.3582 79.6693 80.0054L81.7497 80.3803C81.5831 80.9929 81.2841 81.5295 80.8528 81.9902C80.4265 82.446 79.8898 82.8013 79.2429 83.0561C78.6009 83.306 77.8683 83.431 77.045 83.431ZM40.3273 108.409C39.3178 108.409 38.416 108.235 37.6221 107.887C36.8331 107.539 36.2082 107.056 35.7476 106.439C35.2918 105.816 35.0468 105.096 35.0125 104.278H37.3207C37.3501 104.724 37.4996 105.111 37.7691 105.439C38.0436 105.763 38.4013 106.012 38.8424 106.189C39.2835 106.365 39.7735 106.454 40.3126 106.454C40.9056 106.454 41.43 106.351 41.8858 106.145C42.3464 105.939 42.7067 105.652 42.9664 105.285C43.2261 104.912 43.356 104.483 43.356 103.998C43.356 103.493 43.2261 103.05 42.9664 102.668C42.7116 102.281 42.3366 101.977 41.8417 101.756C41.3516 101.536 40.7586 101.425 40.0627 101.425H38.7909V99.5729H40.0627C40.6214 99.5729 41.1115 99.4724 41.5329 99.2715C41.9593 99.0706 42.2925 98.7912 42.5327 98.4335C42.7728 98.0708 42.8929 97.6469 42.8929 97.1617C42.8929 96.6961 42.7875 96.2918 42.5768 95.9488C42.371 95.6008 42.0769 95.3288 41.6946 95.1328C41.3173 94.9368 40.8713 94.8388 40.3567 94.8388C39.8667 94.8388 39.4084 94.9294 38.9821 95.1107C38.5606 95.2872 38.2176 95.542 37.9529 95.8753C37.6883 96.2036 37.5462 96.5981 37.5266 97.0588H35.3286C35.3531 96.2453 35.5932 95.5298 36.049 94.9123C36.5096 94.2948 37.1173 93.812 37.8721 93.4641C38.6268 93.1161 39.4648 92.9422 40.3861 92.9422C41.3516 92.9422 42.1847 93.1308 42.8855 93.5082C43.5912 93.8807 44.1352 94.3781 44.5175 95.0005C44.9046 95.6229 45.0958 96.3041 45.0909 97.0441C45.0958 97.887 44.8605 98.6025 44.3852 99.1906C43.9147 99.7787 43.2874 100.173 42.5033 100.374V100.492C43.503 100.644 44.2773 101.041 44.8262 101.683C45.38 102.325 45.6545 103.121 45.6496 104.072C45.6545 104.9 45.4241 105.642 44.9586 106.299C44.4979 106.956 43.8681 107.473 43.0693 107.85C42.2705 108.223 41.3565 108.409 40.3273 108.409ZM51.8144 108.409C50.8931 108.409 50.0649 108.233 49.3297 107.88C48.5995 107.522 48.0163 107.032 47.5802 106.409C47.144 105.787 46.9112 105.076 46.8818 104.278H49.0872C49.1411 104.925 49.4278 105.456 49.9472 105.873C50.4667 106.289 51.0891 106.498 51.8144 106.498C52.3927 106.498 52.9048 106.365 53.3508 106.101C53.8017 105.831 54.1545 105.461 54.4094 104.991C54.6691 104.52 54.799 103.984 54.799 103.381C54.799 102.768 54.6667 102.222 54.402 101.741C54.1374 101.261 53.7723 100.884 53.3067 100.609C52.846 100.335 52.3168 100.195 51.7189 100.19C51.2631 100.19 50.8049 100.269 50.3442 100.426C49.8835 100.582 49.5111 100.788 49.2268 101.043L47.1465 100.734L47.9918 93.148H56.2692V95.096H49.8811L49.4033 99.3082H49.4915C49.7855 99.024 50.1751 98.7863 50.6603 98.5952C51.1504 98.4041 51.6748 98.3085 52.2334 98.3085C53.1499 98.3085 53.9659 98.5266 54.6814 98.9627C55.4018 99.3989 55.9678 99.9944 56.3795 100.749C56.796 101.499 57.0019 102.361 56.997 103.337C57.0019 104.312 56.7813 105.182 56.3354 105.946C55.8943 106.711 55.2817 107.314 54.4976 107.755C53.7184 108.191 52.824 108.409 51.8144 108.409ZM65.9571 105.38V104.586C65.9571 104.018 66.0747 103.498 66.31 103.028C66.5501 102.553 66.8981 102.173 67.3538 101.888C67.8145 101.599 68.3707 101.455 69.0225 101.455C69.689 101.455 70.2477 101.597 70.6986 101.881C71.1495 102.165 71.4901 102.545 71.7204 103.021C71.9556 103.496 72.0733 104.018 72.0733 104.586V105.38C72.0733 105.949 71.9556 106.471 71.7204 106.946C71.4852 107.417 71.1397 107.796 70.6839 108.086C70.233 108.37 69.6792 108.512 69.0225 108.512C68.3609 108.512 67.8023 108.37 67.3465 108.086C66.8907 107.796 66.5452 107.417 66.31 106.946C66.0747 106.471 65.9571 105.949 65.9571 105.38ZM67.6699 104.586V105.38C67.6699 105.802 67.7704 106.184 67.9713 106.527C68.1723 106.87 68.5227 107.042 69.0225 107.042C69.5175 107.042 69.863 106.87 70.0591 106.527C70.2551 106.184 70.3531 105.802 70.3531 105.38V104.586C70.3531 104.165 70.2575 103.783 70.0664 103.44C69.8802 103.097 69.5322 102.925 69.0225 102.925C68.5325 102.925 68.1845 103.097 67.9787 103.44C67.7728 103.783 67.6699 104.165 67.6699 104.586ZM58.3854 96.7648V95.9708C58.3854 95.4023 58.5031 94.8804 58.7383 94.405C58.9784 93.9297 59.3264 93.5499 59.7822 93.2656C60.2428 92.9814 60.7991 92.8392 61.4509 92.8392C62.1174 92.8392 62.6761 92.9814 63.1269 93.2656C63.5778 93.5499 63.9184 93.9297 64.1487 94.405C64.3791 94.8804 64.4942 95.4023 64.4942 95.9708V96.7648C64.4942 97.3332 64.3766 97.8552 64.1414 98.3305C63.911 98.801 63.568 99.1808 63.1122 99.47C62.6614 99.7542 62.1076 99.8963 61.4509 99.8963C60.7844 99.8963 60.2232 99.7542 59.7675 99.47C59.3166 99.1808 58.9735 98.801 58.7383 98.3305C58.5031 97.8552 58.3854 97.3332 58.3854 96.7648ZM60.1056 95.9708V96.7648C60.1056 97.1862 60.2036 97.5685 60.3997 97.9115C60.6006 98.2546 60.951 98.4261 61.4509 98.4261C61.9409 98.4261 62.284 98.2546 62.48 97.9115C62.681 97.5685 62.7814 97.1862 62.7814 96.7648V95.9708C62.7814 95.5494 62.6859 95.1671 62.4947 94.8241C62.3036 94.481 61.9556 94.3095 61.4509 94.3095C60.9608 94.3095 60.6128 94.481 60.407 94.8241C60.2061 95.1671 60.1056 95.5494 60.1056 95.9708ZM59.0838 108.203L69.4342 93.148H71.1911L60.8407 108.203H59.0838Z" fill="#E9EEF1"/>
<defs>
<linearGradient id="paint0_linear_3415_20047" x1="129.62" y1="259" x2="129.62" y2="0.239948" gradientUnits="userSpaceOnUse">
<stop stop-color="#0B88E5"/>
<stop offset="1" stop-color="#084471"/>
</linearGradient>
<linearGradient id="paint1_linear_3415_20047" x1="129.618" y1="0.238281" x2="129.618" y2="258.998" gradientUnits="userSpaceOnUse">
<stop stop-color="#99FAF4"/>
<stop offset="0.578125" stop-color="#0D99FF"/>
<stop offset="1" stop-color="#0D99FF"/>
</linearGradient>
</defs>
</svg>
