<svg width="259" height="259" viewBox="0 0 259 259" fill="none" xmlns="http://www.w3.org/2000/svg">
<path d="M141.547 258.427C124.112 260.073 106.524 258.163 89.8494 252.812C73.1746 247.462 57.7596 238.781 44.5385 227.297C31.3173 215.813 20.5651 201.764 12.9334 186.002C5.30172 170.241 0.94932 153.093 0.139934 135.6C-0.669421 118.106 2.08104 100.63 8.22473 84.2308C14.3684 67.8315 23.7774 52.8501 35.8817 40.1943C47.986 27.5386 62.5336 17.4718 78.6431 10.6041C94.7526 3.7363 112.089 0.210436 129.601 0.240132L129.382 129.62L141.547 258.427Z" fill="url(#paint0_linear_3415_20050)"/>
<path d="M129.38 0.238281C162.682 0.238282 194.702 13.0795 218.776 36.0898C242.85 59.1 257.124 90.507 258.628 123.775C260.132 157.043 248.75 189.61 226.851 214.699C204.951 239.787 174.221 255.466 141.054 258.471L129.38 129.618V0.238281Z" fill="url(#paint1_linear_3415_20050)"/>
<path d="M160.409 170.435C160.331 169.739 160.007 169.2 159.439 168.818C158.87 168.431 158.155 168.237 157.292 168.237C156.675 168.237 156.141 168.335 155.69 168.531C155.239 168.722 154.888 168.987 154.639 169.325C154.394 169.658 154.271 170.038 154.271 170.464C154.271 170.822 154.354 171.131 154.521 171.391C154.692 171.65 154.915 171.868 155.19 172.045C155.469 172.216 155.768 172.361 156.087 172.479C156.405 172.591 156.712 172.684 157.006 172.758L158.476 173.14C158.956 173.258 159.449 173.417 159.953 173.618C160.458 173.819 160.926 174.084 161.357 174.412C161.789 174.74 162.137 175.147 162.401 175.632C162.671 176.117 162.806 176.698 162.806 177.374C162.806 178.227 162.585 178.984 162.144 179.646C161.708 180.308 161.073 180.829 160.24 181.212C159.412 181.594 158.41 181.785 157.233 181.785C156.106 181.785 155.131 181.606 154.308 181.248C153.484 180.891 152.84 180.383 152.374 179.727C151.909 179.065 151.652 178.281 151.603 177.374H153.881C153.925 177.918 154.102 178.372 154.411 178.734C154.724 179.092 155.124 179.359 155.609 179.536C156.099 179.707 156.636 179.793 157.219 179.793C157.861 179.793 158.432 179.692 158.932 179.492C159.436 179.286 159.833 179.001 160.122 178.639C160.412 178.271 160.556 177.842 160.556 177.352C160.556 176.906 160.429 176.541 160.174 176.257C159.924 175.973 159.583 175.738 159.152 175.551C158.726 175.365 158.243 175.201 157.704 175.059L155.925 174.574C154.719 174.245 153.764 173.763 153.058 173.125C152.357 172.488 152.007 171.645 152.007 170.597C152.007 169.729 152.242 168.972 152.713 168.325C153.183 167.678 153.82 167.176 154.624 166.818C155.428 166.456 156.334 166.274 157.344 166.274C158.363 166.274 159.262 166.453 160.042 166.811C160.826 167.169 161.443 167.661 161.894 168.288C162.345 168.911 162.58 169.626 162.6 170.435H160.409ZM170.913 176.852V170.244H173.118V181.535H170.957V179.58H170.84C170.58 180.183 170.163 180.685 169.59 181.087C169.021 181.484 168.313 181.682 167.465 181.682C166.74 181.682 166.098 181.523 165.539 181.204C164.986 180.881 164.549 180.403 164.231 179.771C163.917 179.139 163.76 178.357 163.76 177.426V170.244H165.958V177.161C165.958 177.931 166.172 178.543 166.598 178.999C167.024 179.455 167.578 179.683 168.259 179.683C168.671 179.683 169.08 179.58 169.487 179.374C169.899 179.168 170.239 178.857 170.509 178.44C170.783 178.024 170.918 177.494 170.913 176.852ZM179.245 181.763C178.152 181.763 177.211 181.516 176.422 181.021C175.638 180.521 175.035 179.832 174.613 178.955C174.192 178.078 173.981 177.073 173.981 175.941C173.981 174.794 174.197 173.782 174.628 172.905C175.059 172.023 175.667 171.334 176.451 170.839C177.235 170.344 178.159 170.097 179.223 170.097C180.08 170.097 180.845 170.256 181.516 170.575C182.188 170.888 182.729 171.329 183.141 171.898C183.557 172.466 183.805 173.13 183.883 173.89H181.744C181.626 173.361 181.357 172.905 180.935 172.523C180.519 172.14 179.96 171.949 179.259 171.949C178.647 171.949 178.11 172.111 177.649 172.434C177.194 172.753 176.838 173.209 176.584 173.802C176.329 174.39 176.201 175.086 176.201 175.889C176.201 176.713 176.326 177.423 176.576 178.021C176.826 178.619 177.179 179.082 177.635 179.411C178.095 179.739 178.637 179.903 179.259 179.903C179.676 179.903 180.053 179.827 180.391 179.675C180.735 179.518 181.021 179.296 181.252 179.006C181.487 178.717 181.651 178.369 181.744 177.963H183.883C183.805 178.693 183.567 179.345 183.17 179.918C182.773 180.491 182.241 180.942 181.575 181.271C180.913 181.599 180.137 181.763 179.245 181.763ZM189.407 181.763C188.314 181.763 187.373 181.516 186.584 181.021C185.8 180.521 185.197 179.832 184.776 178.955C184.354 178.078 184.143 177.073 184.143 175.941C184.143 174.794 184.359 173.782 184.79 172.905C185.221 172.023 185.829 171.334 186.613 170.839C187.397 170.344 188.321 170.097 189.385 170.097C190.242 170.097 191.007 170.256 191.678 170.575C192.35 170.888 192.891 171.329 193.303 171.898C193.719 172.466 193.967 173.13 194.045 173.89H191.906C191.788 173.361 191.519 172.905 191.097 172.523C190.681 172.14 190.122 171.949 189.421 171.949C188.809 171.949 188.272 172.111 187.812 172.434C187.356 172.753 187 173.209 186.746 173.802C186.491 174.39 186.363 175.086 186.363 175.889C186.363 176.713 186.488 177.423 186.738 178.021C186.988 178.619 187.341 179.082 187.797 179.411C188.257 179.739 188.799 179.903 189.421 179.903C189.838 179.903 190.215 179.827 190.554 179.675C190.897 179.518 191.183 179.296 191.414 179.006C191.649 178.717 191.813 178.369 191.906 177.963H194.045C193.967 178.693 193.729 179.345 193.332 179.918C192.935 180.491 192.404 180.942 191.737 181.271C191.075 181.599 190.299 181.763 189.407 181.763ZM199.679 181.763C198.567 181.763 197.608 181.525 196.805 181.05C196.006 180.57 195.388 179.896 194.952 179.028C194.521 178.156 194.305 177.134 194.305 175.963C194.305 174.806 194.521 173.787 194.952 172.905C195.388 172.023 195.996 171.334 196.775 170.839C197.559 170.344 198.476 170.097 199.525 170.097C200.162 170.097 200.779 170.202 201.377 170.413C201.975 170.624 202.512 170.954 202.987 171.405C203.462 171.856 203.837 172.442 204.112 173.162C204.386 173.878 204.523 174.748 204.523 175.772V176.551H195.548V174.904H202.37C202.37 174.326 202.252 173.814 202.017 173.368C201.781 172.917 201.451 172.562 201.024 172.302C200.603 172.042 200.108 171.913 199.539 171.913C198.922 171.913 198.383 172.064 197.922 172.368C197.466 172.667 197.113 173.059 196.864 173.544C196.619 174.025 196.496 174.547 196.496 175.11V176.397C196.496 177.151 196.628 177.793 196.893 178.323C197.162 178.852 197.537 179.256 198.018 179.536C198.498 179.81 199.059 179.947 199.701 179.947C200.118 179.947 200.497 179.889 200.841 179.771C201.184 179.648 201.48 179.467 201.73 179.227C201.98 178.987 202.171 178.69 202.303 178.337L204.384 178.712C204.217 179.325 203.918 179.862 203.487 180.322C203.061 180.778 202.524 181.133 201.877 181.388C201.235 181.638 200.502 181.763 199.679 181.763ZM213.84 173L211.848 173.353C211.765 173.098 211.632 172.856 211.451 172.626C211.275 172.395 211.034 172.207 210.731 172.06C210.427 171.913 210.047 171.839 209.591 171.839C208.969 171.839 208.449 171.979 208.033 172.258C207.616 172.532 207.408 172.888 207.408 173.324C207.408 173.701 207.548 174.005 207.827 174.235C208.106 174.466 208.557 174.654 209.179 174.802L210.973 175.213C212.012 175.453 212.786 175.823 213.296 176.323C213.806 176.823 214.061 177.472 214.061 178.271C214.061 178.948 213.865 179.55 213.473 180.08C213.085 180.604 212.544 181.016 211.848 181.315C211.157 181.614 210.356 181.763 209.444 181.763C208.18 181.763 207.148 181.493 206.349 180.954C205.55 180.41 205.06 179.639 204.879 178.639L207.004 178.315C207.136 178.869 207.408 179.288 207.82 179.572C208.231 179.852 208.768 179.991 209.429 179.991C210.15 179.991 210.726 179.842 211.157 179.543C211.588 179.239 211.804 178.869 211.804 178.433C211.804 178.08 211.672 177.784 211.407 177.543C211.147 177.303 210.748 177.122 210.209 177L208.297 176.58C207.244 176.34 206.464 175.958 205.96 175.434C205.46 174.909 205.21 174.245 205.21 173.442C205.21 172.775 205.396 172.192 205.769 171.692C206.141 171.192 206.656 170.802 207.312 170.523C207.969 170.239 208.721 170.097 209.569 170.097C210.789 170.097 211.75 170.361 212.451 170.891C213.152 171.415 213.615 172.118 213.84 173ZM223.355 173L221.363 173.353C221.28 173.098 221.147 172.856 220.966 172.626C220.79 172.395 220.55 172.207 220.246 172.06C219.942 171.913 219.562 171.839 219.106 171.839C218.484 171.839 217.964 171.979 217.548 172.258C217.131 172.532 216.923 172.888 216.923 173.324C216.923 173.701 217.063 174.005 217.342 174.235C217.621 174.466 218.072 174.654 218.695 174.802L220.488 175.213C221.527 175.453 222.302 175.823 222.811 176.323C223.321 176.823 223.576 177.472 223.576 178.271C223.576 178.948 223.38 179.55 222.988 180.08C222.601 180.604 222.059 181.016 221.363 181.315C220.672 181.614 219.871 181.763 218.959 181.763C217.695 181.763 216.663 181.493 215.864 180.954C215.066 180.41 214.576 179.639 214.394 178.639L216.519 178.315C216.651 178.869 216.923 179.288 217.335 179.572C217.746 179.852 218.283 179.991 218.945 179.991C219.665 179.991 220.241 179.842 220.672 179.543C221.103 179.239 221.319 178.869 221.319 178.433C221.319 178.08 221.187 177.784 220.922 177.543C220.662 177.303 220.263 177.122 219.724 177L217.812 176.58C216.759 176.34 215.98 175.958 215.475 175.434C214.975 174.909 214.725 174.245 214.725 173.442C214.725 172.775 214.911 172.192 215.284 171.692C215.656 171.192 216.171 170.802 216.827 170.523C217.484 170.239 218.236 170.097 219.084 170.097C220.305 170.097 221.265 170.361 221.966 170.891C222.667 171.415 223.13 172.118 223.355 173ZM167.529 203.595V201.757L174.035 191.48H175.483V194.185H174.564L169.911 201.551V201.669H178.828V203.595H167.529ZM174.667 206.535V203.036L174.682 202.198V191.48H176.836V206.535H174.667ZM184.813 191.274C185.484 191.279 186.146 191.402 186.798 191.642C187.449 191.882 188.037 192.274 188.562 192.818C189.091 193.362 189.513 194.097 189.826 195.023C190.145 195.945 190.306 197.091 190.311 198.464C190.311 199.782 190.179 200.956 189.914 201.985C189.65 203.009 189.27 203.874 188.775 204.58C188.285 205.285 187.689 205.822 186.989 206.19C186.288 206.557 185.499 206.741 184.622 206.741C183.725 206.741 182.928 206.565 182.232 206.212C181.537 205.859 180.971 205.371 180.534 204.749C180.098 204.122 179.826 203.401 179.718 202.588H181.96C182.108 203.234 182.406 203.759 182.857 204.161C183.313 204.558 183.901 204.756 184.622 204.756C185.724 204.756 186.584 204.276 187.202 203.315C187.819 202.35 188.131 201.002 188.135 199.272H188.018C187.763 199.694 187.444 200.056 187.062 200.36C186.685 200.664 186.261 200.899 185.79 201.066C185.32 201.233 184.818 201.316 184.283 201.316C183.416 201.316 182.627 201.103 181.916 200.676C181.206 200.25 180.64 199.664 180.218 198.919C179.797 198.174 179.586 197.324 179.586 196.369C179.586 195.418 179.802 194.555 180.233 193.781C180.669 193.007 181.277 192.394 182.056 191.943C182.84 191.487 183.759 191.264 184.813 191.274ZM184.82 193.185C184.247 193.185 183.73 193.328 183.269 193.612C182.813 193.891 182.453 194.271 182.188 194.751C181.924 195.227 181.791 195.756 181.791 196.339C181.791 196.922 181.919 197.452 182.174 197.927C182.433 198.397 182.786 198.772 183.232 199.052C183.683 199.326 184.198 199.463 184.776 199.463C185.207 199.463 185.609 199.38 185.982 199.213C186.354 199.047 186.68 198.816 186.959 198.522C187.239 198.223 187.457 197.885 187.614 197.508C187.77 197.131 187.849 196.734 187.849 196.317C187.849 195.763 187.716 195.249 187.452 194.773C187.192 194.298 186.834 193.916 186.379 193.627C185.923 193.333 185.403 193.185 184.82 193.185ZM199.242 203.712V202.918C199.242 202.35 199.36 201.83 199.595 201.36C199.835 200.885 200.183 200.505 200.639 200.221C201.1 199.931 201.656 199.787 202.308 199.787C202.974 199.787 203.533 199.929 203.984 200.213C204.434 200.497 204.775 200.877 205.005 201.353C205.241 201.828 205.358 202.35 205.358 202.918V203.712C205.358 204.281 205.241 204.803 205.005 205.278C204.77 205.749 204.425 206.128 203.969 206.418C203.518 206.702 202.964 206.844 202.308 206.844C201.646 206.844 201.087 206.702 200.631 206.418C200.176 206.128 199.83 205.749 199.595 205.278C199.36 204.803 199.242 204.281 199.242 203.712ZM200.955 202.918V203.712C200.955 204.134 201.055 204.516 201.256 204.859C201.457 205.202 201.808 205.374 202.308 205.374C202.803 205.374 203.148 205.202 203.344 204.859C203.54 204.516 203.638 204.134 203.638 203.712V202.918C203.638 202.497 203.543 202.115 203.351 201.772C203.165 201.429 202.817 201.257 202.308 201.257C201.817 201.257 201.47 201.429 201.264 201.772C201.058 202.115 200.955 202.497 200.955 202.918ZM191.67 195.097V194.303C191.67 193.734 191.788 193.212 192.023 192.737C192.263 192.262 192.611 191.882 193.067 191.598C193.528 191.313 194.084 191.171 194.736 191.171C195.402 191.171 195.961 191.313 196.412 191.598C196.863 191.882 197.203 192.262 197.434 192.737C197.664 193.212 197.779 193.734 197.779 194.303V195.097C197.779 195.665 197.662 196.187 197.426 196.663C197.196 197.133 196.853 197.513 196.397 197.802C195.946 198.086 195.393 198.228 194.736 198.228C194.069 198.228 193.508 198.086 193.052 197.802C192.602 197.513 192.259 197.133 192.023 196.663C191.788 196.187 191.67 195.665 191.67 195.097ZM193.391 194.303V195.097C193.391 195.518 193.489 195.901 193.685 196.244C193.886 196.587 194.236 196.758 194.736 196.758C195.226 196.758 195.569 196.587 195.765 196.244C195.966 195.901 196.066 195.518 196.066 195.097V194.303C196.066 193.881 195.971 193.499 195.78 193.156C195.589 192.813 195.241 192.642 194.736 192.642C194.246 192.642 193.898 192.813 193.692 193.156C193.491 193.499 193.391 193.881 193.391 194.303ZM192.369 206.535L202.719 191.48H204.476L194.126 206.535H192.369Z" fill="#E9EEF1"/>
<path d="M34.4781 126.332V111.277H43.8141V113.232H36.7496V117.819H43.1451V119.767H36.7496V126.332H34.4781ZM48.0934 126.582C47.3778 126.582 46.7309 126.45 46.1527 126.185C45.5744 125.915 45.1161 125.526 44.778 125.016C44.4447 124.506 44.2781 123.882 44.2781 123.142C44.2781 122.505 44.4006 121.98 44.6457 121.568C44.8907 121.157 45.2215 120.831 45.6381 120.591C46.0546 120.351 46.5202 120.169 47.0348 120.047C47.5494 119.924 48.0738 119.831 48.6079 119.767C49.2842 119.689 49.8331 119.625 50.2546 119.576C50.6761 119.522 50.9824 119.437 51.1735 119.319C51.3646 119.201 51.4602 119.01 51.4602 118.746V118.694C51.4602 118.052 51.2788 117.555 50.9162 117.202C50.5584 116.849 50.0243 116.673 49.3136 116.673C48.5736 116.673 47.9904 116.837 47.5641 117.165C47.1426 117.489 46.851 117.849 46.6893 118.246L44.6236 117.775C44.8687 117.089 45.2264 116.535 45.6969 116.114C46.1723 115.688 46.7187 115.379 47.3362 115.188C47.9537 114.992 48.603 114.894 49.2842 114.894C49.7351 114.894 50.2129 114.948 50.7177 115.055C51.2274 115.158 51.7028 115.349 52.1438 115.629C52.5898 115.908 52.9549 116.308 53.2392 116.827C53.5234 117.342 53.6655 118.011 53.6655 118.834V126.332H51.519V124.788H51.4308C51.2887 125.073 51.0755 125.352 50.7912 125.626C50.507 125.901 50.1419 126.129 49.6959 126.31C49.2499 126.491 48.7158 126.582 48.0934 126.582ZM48.5712 124.818C49.1789 124.818 49.6984 124.698 50.1296 124.457C50.5658 124.217 50.8966 123.904 51.122 123.517C51.3524 123.124 51.4675 122.705 51.4675 122.259V120.804C51.3891 120.882 51.2372 120.956 51.0118 121.025C50.7912 121.088 50.5388 121.145 50.2546 121.194C49.9703 121.238 49.6935 121.279 49.4239 121.319C49.1544 121.353 48.9289 121.382 48.7476 121.407C48.3212 121.461 47.9316 121.551 47.5788 121.679C47.2308 121.806 46.9515 121.99 46.7407 122.23C46.5349 122.465 46.432 122.779 46.432 123.171C46.432 123.715 46.6329 124.127 47.0348 124.406C47.4367 124.68 47.9488 124.818 48.5712 124.818ZM55.0099 126.332V115.041H57.2079V126.332H55.0099ZM56.1199 113.298C55.7376 113.298 55.4093 113.171 55.1348 112.916C54.8653 112.656 54.7305 112.348 54.7305 111.99C54.7305 111.627 54.8653 111.319 55.1348 111.064C55.4093 110.804 55.7376 110.674 56.1199 110.674C56.5022 110.674 56.8281 110.804 57.0976 111.064C57.372 111.319 57.5093 111.627 57.5093 111.99C57.5093 112.348 57.372 112.656 57.0976 112.916C56.8281 113.171 56.5022 113.298 56.1199 113.298ZM60.7796 111.277V126.332H58.5816V111.277H60.7796ZM69.306 121.649V115.041H71.5114V126.332H69.3501V124.377H69.2325C68.9728 124.979 68.5562 125.482 67.9828 125.884C67.4143 126.281 66.7062 126.479 65.8584 126.479C65.133 126.479 64.491 126.32 63.9324 126.001C63.3786 125.678 62.9424 125.2 62.6238 124.568C62.3102 123.936 62.1534 123.154 62.1534 122.223V115.041H64.3514V121.958C64.3514 122.728 64.5645 123.34 64.9909 123.796C65.4173 124.252 65.9711 124.48 66.6523 124.48C67.0639 124.48 67.4732 124.377 67.8799 124.171C68.2916 123.965 68.6322 123.654 68.9017 123.237C69.1762 122.821 69.3109 122.291 69.306 121.649ZM72.8815 126.332V115.041H75.0059V116.834H75.1236C75.3294 116.227 75.692 115.749 76.2115 115.401C76.7359 115.048 77.3289 114.872 77.9905 114.872C78.1277 114.872 78.2894 114.877 78.4757 114.886C78.6668 114.896 78.8163 114.908 78.9241 114.923V117.025C78.8359 117.001 78.6791 116.974 78.4536 116.945C78.2282 116.91 78.0028 116.893 77.7773 116.893C77.2578 116.893 76.7947 117.003 76.388 117.224C75.9861 117.44 75.6675 117.741 75.4323 118.128C75.1971 118.51 75.0795 118.947 75.0795 119.437V126.332H72.8815ZM83.7051 126.56C82.5926 126.56 81.6345 126.322 80.8308 125.847C80.032 125.367 79.4145 124.693 78.9783 123.825C78.5471 122.953 78.3314 121.931 78.3314 120.76C78.3314 119.603 78.5471 118.584 78.9783 117.702C79.4145 116.82 80.0222 116.131 80.8014 115.636C81.5855 115.141 82.502 114.894 83.5507 114.894C84.1878 114.894 84.8053 114.999 85.4032 115.21C86.0011 115.42 86.5377 115.751 87.0131 116.202C87.4885 116.653 87.8634 117.239 88.1378 117.959C88.4123 118.675 88.5495 119.544 88.5495 120.569V121.348H79.5738V119.701H86.3956C86.3956 119.123 86.278 118.611 86.0428 118.165C85.8075 117.714 85.4767 117.359 85.0504 117.099C84.6289 116.839 84.1339 116.709 83.5654 116.709C82.9479 116.709 82.4089 116.861 81.9482 117.165C81.4924 117.464 81.1396 117.856 80.8896 118.341C80.6446 118.822 80.5221 119.344 80.5221 119.907V121.194C80.5221 121.948 80.6544 122.59 80.919 123.12C81.1886 123.649 81.5635 124.053 82.0438 124.333C82.524 124.607 83.0852 124.744 83.7272 124.744C84.1437 124.744 84.5235 124.685 84.8666 124.568C85.2096 124.445 85.5061 124.264 85.7561 124.024C86.006 123.784 86.1971 123.487 86.3295 123.134L88.4098 123.509C88.2432 124.122 87.9443 124.658 87.513 125.119C87.0866 125.575 86.55 125.93 85.9031 126.185C85.2611 126.435 84.5284 126.56 83.7051 126.56ZM48.4945 151.538C47.5731 151.538 46.7449 151.361 46.0098 151.009C45.2796 150.651 44.6964 150.161 44.2602 149.538C43.8241 148.916 43.5913 148.205 43.5619 147.407H45.7672C45.8211 148.053 46.1078 148.585 46.6273 149.002C47.1468 149.418 47.7692 149.627 48.4945 149.627C49.0728 149.627 49.5849 149.494 50.0309 149.23C50.4817 148.96 50.8346 148.59 51.0894 148.12C51.3492 147.649 51.479 147.112 51.479 146.51C51.479 145.897 51.3467 145.351 51.0821 144.87C50.8174 144.39 50.4523 144.013 49.9868 143.738C49.5261 143.464 48.9968 143.324 48.3989 143.319C47.9431 143.319 47.4849 143.398 47.0242 143.555C46.5636 143.711 46.1911 143.917 45.9069 144.172L43.8265 143.863L44.6719 136.277H52.9493V138.225H46.5611L46.0833 142.437H46.1715C46.4656 142.153 46.8552 141.915 47.3403 141.724C47.8304 141.533 48.3548 141.437 48.9135 141.437C49.8299 141.437 50.6459 141.655 51.3614 142.092C52.0818 142.528 52.6479 143.123 53.0595 143.878C53.4761 144.628 53.6819 145.49 53.677 146.466C53.6819 147.441 53.4614 148.311 53.0154 149.075C52.5744 149.84 51.9618 150.443 51.1776 150.884C50.3984 151.32 49.504 151.538 48.4945 151.538ZM60.4906 136.277V151.332H58.2118V138.556H58.1236L54.5215 140.908V138.732L58.2779 136.277H60.4906ZM70.8383 148.509V147.715C70.8383 147.147 70.9559 146.627 71.1912 146.157C71.4313 145.681 71.7792 145.302 72.235 145.017C72.6957 144.728 73.2519 144.584 73.9037 144.584C74.5702 144.584 75.1289 144.726 75.5798 145.01C76.0307 145.294 76.3713 145.674 76.6016 146.149C76.8368 146.625 76.9544 147.147 76.9544 147.715V148.509C76.9544 149.078 76.8368 149.6 76.6016 150.075C76.3664 150.545 76.0208 150.925 75.5651 151.214C75.1142 151.499 74.5604 151.641 73.9037 151.641C73.2421 151.641 72.6834 151.499 72.2277 151.214C71.7719 150.925 71.4264 150.545 71.1912 150.075C70.9559 149.6 70.8383 149.078 70.8383 148.509ZM72.5511 147.715V148.509C72.5511 148.931 72.6516 149.313 72.8525 149.656C73.0534 149.999 73.4038 150.171 73.9037 150.171C74.3987 150.171 74.7442 149.999 74.9402 149.656C75.1363 149.313 75.2343 148.931 75.2343 148.509V147.715C75.2343 147.294 75.1387 146.912 74.9476 146.568C74.7614 146.225 74.4134 146.054 73.9037 146.054C73.4136 146.054 73.0657 146.225 72.8599 146.568C72.654 146.912 72.5511 147.294 72.5511 147.715ZM63.2666 139.894V139.1C63.2666 138.531 63.3842 138.009 63.6195 137.534C63.8596 137.059 64.2076 136.679 64.6633 136.395C65.124 136.11 65.6802 135.968 66.332 135.968C66.9986 135.968 67.5572 136.11 68.0081 136.395C68.459 136.679 68.7996 137.059 69.0299 137.534C69.2603 138.009 69.3754 138.531 69.3754 139.1V139.894C69.3754 140.462 69.2578 140.984 69.0226 141.459C68.7922 141.93 68.4492 142.31 67.9934 142.599C67.5425 142.883 66.9887 143.025 66.332 143.025C65.6655 143.025 65.1044 142.883 64.6486 142.599C64.1978 142.31 63.8547 141.93 63.6195 141.459C63.3842 140.984 63.2666 140.462 63.2666 139.894ZM64.9868 139.1V139.894C64.9868 140.315 65.0848 140.697 65.2808 141.04C65.4818 141.383 65.8322 141.555 66.332 141.555C66.8221 141.555 67.1652 141.383 67.3612 141.04C67.5621 140.697 67.6626 140.315 67.6626 139.894V139.1C67.6626 138.678 67.567 138.296 67.3759 137.953C67.1848 137.61 66.8368 137.438 66.332 137.438C65.842 137.438 65.494 137.61 65.2882 137.953C65.0873 138.296 64.9868 138.678 64.9868 139.1ZM63.965 151.332L74.3154 136.277H76.0723L65.7219 151.332H63.965Z" fill="#E9EEF1"/>
<defs>
<linearGradient id="paint0_linear_3415_20050" x1="129.382" y1="259" x2="129.382" y2="0.239948" gradientUnits="userSpaceOnUse">
<stop stop-color="#0B88E5"/>
<stop offset="1" stop-color="#084471"/>
</linearGradient>
<linearGradient id="paint1_linear_3415_20050" x1="129.38" y1="0.238281" x2="129.38" y2="258.998" gradientUnits="userSpaceOnUse">
<stop stop-color="#99FAF4"/>
<stop offset="1" stop-color="#0D99FF"/>
</linearGradient>
</defs>
</svg>
