<svg width="259" height="259" viewBox="0 0 259 259" fill="none" xmlns="http://www.w3.org/2000/svg">
<path d="M8.67585 176.196C1.18986 156.795 -1.50942 135.875 0.806684 115.21C3.12277 94.5443 10.386 74.7415 21.981 57.4793C33.576 40.217 49.1611 26.004 67.4159 16.0443C85.6706 6.08472 106.057 0.671984 126.848 0.264759L129.382 129.62L8.67585 176.196Z" fill="url(#paint0_linear_3415_20048)"/>
<path d="M123.956 0.352019C147.816 -0.649088 171.487 4.9728 192.348 16.5951C213.209 28.2175 230.447 45.3867 242.152 66.2017C253.857 87.0167 259.573 110.665 258.667 134.528C257.761 158.392 250.267 181.538 237.017 201.406C223.767 221.273 205.277 237.085 183.594 247.092C161.911 257.098 137.882 260.909 114.167 258.101C90.4528 255.293 67.9778 245.977 49.2314 231.183C30.4851 216.39 16.1987 196.696 7.95452 174.284L129.38 129.618L123.956 0.352019Z" fill="url(#paint1_linear_3415_20048)"/>
<path d="M137.983 170.435C137.905 169.739 137.582 169.2 137.013 168.818C136.445 168.431 135.729 168.237 134.867 168.237C134.249 168.237 133.715 168.335 133.264 168.531C132.813 168.722 132.463 168.987 132.213 169.325C131.968 169.658 131.845 170.038 131.845 170.464C131.845 170.822 131.929 171.131 132.095 171.391C132.267 171.65 132.49 171.868 132.764 172.045C133.043 172.216 133.342 172.361 133.661 172.479C133.979 172.591 134.286 172.684 134.58 172.758L136.05 173.14C136.53 173.258 137.023 173.417 137.528 173.618C138.032 173.819 138.5 174.084 138.932 174.412C139.363 174.74 139.711 175.147 139.976 175.632C140.245 176.117 140.38 176.698 140.38 177.374C140.38 178.227 140.159 178.984 139.718 179.646C139.282 180.308 138.647 180.829 137.814 181.212C136.986 181.594 135.984 181.785 134.808 181.785C133.681 181.785 132.705 181.606 131.882 181.248C131.059 180.891 130.414 180.383 129.949 179.727C129.483 179.065 129.226 178.281 129.177 177.374H131.456C131.5 177.918 131.676 178.372 131.985 178.734C132.299 179.092 132.698 179.359 133.183 179.536C133.673 179.707 134.21 179.793 134.793 179.793C135.435 179.793 136.006 179.692 136.506 179.492C137.011 179.286 137.408 179.001 137.697 178.639C137.986 178.271 138.13 177.842 138.13 177.352C138.13 176.906 138.003 176.541 137.748 176.257C137.498 175.973 137.158 175.738 136.726 175.551C136.3 175.365 135.817 175.201 135.278 175.059L133.499 174.574C132.294 174.245 131.338 173.763 130.632 173.125C129.931 172.488 129.581 171.645 129.581 170.597C129.581 169.729 129.816 168.972 130.287 168.325C130.757 167.678 131.394 167.176 132.198 166.818C133.002 166.456 133.908 166.274 134.918 166.274C135.937 166.274 136.837 166.453 137.616 166.811C138.4 167.169 139.017 167.661 139.468 168.288C139.919 168.911 140.154 169.626 140.174 170.435H137.983ZM148.487 176.852V170.244H150.693V181.535H148.531V179.58H148.414C148.154 180.183 147.737 180.685 147.164 181.087C146.596 181.484 145.887 181.682 145.04 181.682C144.314 181.682 143.672 181.523 143.114 181.204C142.56 180.881 142.124 180.403 141.805 179.771C141.491 179.139 141.335 178.357 141.335 177.426V170.244H143.533V177.161C143.533 177.931 143.746 178.543 144.172 178.999C144.599 179.455 145.152 179.683 145.834 179.683C146.245 179.683 146.654 179.58 147.061 179.374C147.473 179.168 147.813 178.857 148.083 178.44C148.357 178.024 148.492 177.494 148.487 176.852ZM156.819 181.763C155.726 181.763 154.785 181.516 153.996 181.021C153.212 180.521 152.609 179.832 152.188 178.955C151.766 178.078 151.555 177.073 151.555 175.941C151.555 174.794 151.771 173.782 152.202 172.905C152.634 172.023 153.241 171.334 154.025 170.839C154.81 170.344 155.733 170.097 156.797 170.097C157.654 170.097 158.419 170.256 159.09 170.575C159.762 170.888 160.303 171.329 160.715 171.898C161.132 172.466 161.379 173.13 161.457 173.89H159.318C159.201 173.361 158.931 172.905 158.51 172.523C158.093 172.14 157.534 171.949 156.834 171.949C156.221 171.949 155.684 172.111 155.224 172.434C154.768 172.753 154.413 173.209 154.158 173.802C153.903 174.39 153.776 175.086 153.776 175.889C153.776 176.713 153.9 177.423 154.15 178.021C154.4 178.619 154.753 179.082 155.209 179.411C155.67 179.739 156.211 179.903 156.834 179.903C157.25 179.903 157.628 179.827 157.966 179.675C158.309 179.518 158.595 179.296 158.826 179.006C159.061 178.717 159.225 178.369 159.318 177.963H161.457C161.379 178.693 161.141 179.345 160.744 179.918C160.347 180.491 159.816 180.942 159.149 181.271C158.488 181.599 157.711 181.763 156.819 181.763ZM166.981 181.763C165.888 181.763 164.947 181.516 164.158 181.021C163.374 180.521 162.771 179.832 162.35 178.955C161.928 178.078 161.718 177.073 161.718 175.941C161.718 174.794 161.933 173.782 162.364 172.905C162.796 172.023 163.403 171.334 164.188 170.839C164.972 170.344 165.895 170.097 166.959 170.097C167.817 170.097 168.581 170.256 169.252 170.575C169.924 170.888 170.465 171.329 170.877 171.898C171.294 172.466 171.541 173.13 171.62 173.89H169.48C169.363 173.361 169.093 172.905 168.672 172.523C168.255 172.14 167.696 171.949 166.996 171.949C166.383 171.949 165.846 172.111 165.386 172.434C164.93 172.753 164.575 173.209 164.32 173.802C164.065 174.39 163.938 175.086 163.938 175.889C163.938 176.713 164.063 177.423 164.312 178.021C164.562 178.619 164.915 179.082 165.371 179.411C165.832 179.739 166.373 179.903 166.996 179.903C167.412 179.903 167.79 179.827 168.128 179.675C168.471 179.518 168.757 179.296 168.988 179.006C169.223 178.717 169.387 178.369 169.48 177.963H171.62C171.541 178.693 171.303 179.345 170.906 179.918C170.509 180.491 169.978 180.942 169.311 181.271C168.65 181.599 167.873 181.763 166.981 181.763ZM177.253 181.763C176.141 181.763 175.183 181.525 174.379 181.05C173.58 180.57 172.963 179.896 172.526 179.028C172.095 178.156 171.88 177.134 171.88 175.963C171.88 174.806 172.095 173.787 172.526 172.905C172.963 172.023 173.57 171.334 174.35 170.839C175.134 170.344 176.05 170.097 177.099 170.097C177.736 170.097 178.353 170.202 178.951 170.413C179.549 170.624 180.086 170.954 180.561 171.405C181.037 171.856 181.412 172.442 181.686 173.162C181.96 173.878 182.098 174.748 182.098 175.772V176.551H173.122V174.904H179.944C179.944 174.326 179.826 173.814 179.591 173.368C179.356 172.917 179.025 172.562 178.599 172.302C178.177 172.042 177.682 171.913 177.114 171.913C176.496 171.913 175.957 172.064 175.496 172.368C175.041 172.667 174.688 173.059 174.438 173.544C174.193 174.025 174.07 174.547 174.07 175.11V176.397C174.07 177.151 174.203 177.793 174.467 178.323C174.737 178.852 175.112 179.256 175.592 179.536C176.072 179.81 176.633 179.947 177.275 179.947C177.692 179.947 178.072 179.889 178.415 179.771C178.758 179.648 179.054 179.467 179.304 179.227C179.554 178.987 179.745 178.69 179.878 178.337L181.958 178.712C181.791 179.325 181.492 179.862 181.061 180.322C180.635 180.778 180.098 181.133 179.451 181.388C178.809 181.638 178.077 181.763 177.253 181.763ZM191.414 173L189.422 173.353C189.339 173.098 189.207 172.856 189.025 172.626C188.849 172.395 188.609 172.207 188.305 172.06C188.001 171.913 187.621 171.839 187.165 171.839C186.543 171.839 186.023 171.979 185.607 172.258C185.19 172.532 184.982 172.888 184.982 173.324C184.982 173.701 185.122 174.005 185.401 174.235C185.68 174.466 186.131 174.654 186.754 174.802L188.547 175.213C189.586 175.453 190.361 175.823 190.87 176.323C191.38 176.823 191.635 177.472 191.635 178.271C191.635 178.948 191.439 179.55 191.047 180.08C190.66 180.604 190.118 181.016 189.422 181.315C188.731 181.614 187.93 181.763 187.018 181.763C185.754 181.763 184.722 181.493 183.924 180.954C183.125 180.41 182.635 179.639 182.453 178.639L184.578 178.315C184.71 178.869 184.982 179.288 185.394 179.572C185.805 179.852 186.342 179.991 187.004 179.991C187.724 179.991 188.3 179.842 188.731 179.543C189.162 179.239 189.378 178.869 189.378 178.433C189.378 178.08 189.246 177.784 188.981 177.543C188.721 177.303 188.322 177.122 187.783 177L185.872 176.58C184.818 176.34 184.039 175.958 183.534 175.434C183.034 174.909 182.784 174.245 182.784 173.442C182.784 172.775 182.97 172.192 183.343 171.692C183.715 171.192 184.23 170.802 184.887 170.523C185.543 170.239 186.295 170.097 187.143 170.097C188.364 170.097 189.324 170.361 190.025 170.891C190.726 171.415 191.189 172.118 191.414 173ZM200.929 173L198.937 173.353C198.854 173.098 198.722 172.856 198.54 172.626C198.364 172.395 198.124 172.207 197.82 172.06C197.516 171.913 197.136 171.839 196.681 171.839C196.058 171.839 195.539 171.979 195.122 172.258C194.706 172.532 194.497 172.888 194.497 173.324C194.497 173.701 194.637 174.005 194.916 174.235C195.196 174.466 195.646 174.654 196.269 174.802L198.063 175.213C199.101 175.453 199.876 175.823 200.385 176.323C200.895 176.823 201.15 177.472 201.15 178.271C201.15 178.948 200.954 179.55 200.562 180.08C200.175 180.604 199.633 181.016 198.937 181.315C198.246 181.614 197.445 181.763 196.533 181.763C195.269 181.763 194.237 181.493 193.439 180.954C192.64 180.41 192.15 179.639 191.968 178.639L194.093 178.315C194.225 178.869 194.497 179.288 194.909 179.572C195.321 179.852 195.857 179.991 196.519 179.991C197.239 179.991 197.815 179.842 198.246 179.543C198.678 179.239 198.893 178.869 198.893 178.433C198.893 178.08 198.761 177.784 198.496 177.543C198.237 177.303 197.837 177.122 197.298 177L195.387 176.58C194.333 176.34 193.554 175.958 193.049 175.434C192.549 174.909 192.299 174.245 192.299 173.442C192.299 172.775 192.485 172.192 192.858 171.692C193.23 171.192 193.745 170.802 194.402 170.523C195.058 170.239 195.811 170.097 196.658 170.097C197.879 170.097 198.839 170.361 199.54 170.891C200.241 171.415 200.704 172.118 200.929 173ZM150.868 206.741C150.196 206.731 149.535 206.609 148.883 206.373C148.236 206.138 147.648 205.746 147.119 205.197C146.589 204.648 146.165 203.911 145.847 202.985C145.533 202.058 145.376 200.902 145.376 199.515C145.376 198.201 145.506 197.035 145.766 196.016C146.031 194.996 146.41 194.136 146.905 193.435C147.4 192.73 147.998 192.193 148.699 191.826C149.4 191.458 150.186 191.274 151.059 191.274C151.956 191.274 152.752 191.451 153.448 191.803C154.144 192.156 154.707 192.644 155.139 193.266C155.575 193.889 155.852 194.597 155.969 195.391H153.727C153.575 194.764 153.274 194.251 152.823 193.854C152.372 193.457 151.784 193.259 151.059 193.259C149.956 193.259 149.096 193.739 148.479 194.7C147.866 195.66 147.557 196.996 147.552 198.706H147.663C147.922 198.28 148.241 197.917 148.618 197.618C149.001 197.314 149.427 197.082 149.897 196.92C150.373 196.753 150.873 196.67 151.397 196.67C152.269 196.67 153.058 196.883 153.764 197.309C154.475 197.731 155.041 198.314 155.462 199.059C155.884 199.804 156.094 200.657 156.094 201.617C156.094 202.578 155.876 203.448 155.44 204.227C155.009 205.006 154.401 205.624 153.617 206.079C152.833 206.53 151.916 206.751 150.868 206.741ZM150.86 204.83C151.439 204.83 151.956 204.688 152.411 204.403C152.867 204.119 153.227 203.737 153.492 203.257C153.757 202.776 153.889 202.24 153.889 201.647C153.889 201.068 153.759 200.542 153.499 200.066C153.245 199.591 152.892 199.213 152.441 198.934C151.995 198.655 151.485 198.515 150.912 198.515C150.476 198.515 150.071 198.598 149.699 198.765C149.331 198.932 149.008 199.162 148.729 199.456C148.449 199.75 148.229 200.088 148.067 200.47C147.91 200.848 147.832 201.247 147.832 201.669C147.832 202.232 147.962 202.754 148.221 203.234C148.486 203.715 148.846 204.102 149.302 204.396C149.763 204.685 150.282 204.83 150.86 204.83ZM162.195 191.274C162.866 191.279 163.528 191.402 164.18 191.642C164.832 191.882 165.42 192.274 165.944 192.818C166.473 193.362 166.895 194.097 167.208 195.023C167.527 195.945 167.689 197.091 167.694 198.464C167.694 199.782 167.561 200.956 167.297 201.985C167.032 203.009 166.652 203.874 166.157 204.58C165.667 205.285 165.072 205.822 164.371 206.19C163.67 206.557 162.881 206.741 162.004 206.741C161.107 206.741 160.311 206.565 159.615 206.212C158.919 205.859 158.353 205.371 157.917 204.749C157.48 204.122 157.208 203.401 157.101 202.588H159.343C159.49 203.234 159.789 203.759 160.239 204.161C160.695 204.558 161.283 204.756 162.004 204.756C163.106 204.756 163.967 204.276 164.584 203.315C165.202 202.35 165.513 201.002 165.518 199.272H165.4C165.145 199.694 164.827 200.056 164.444 200.36C164.067 200.664 163.643 200.899 163.173 201.066C162.702 201.233 162.2 201.316 161.666 201.316C160.798 201.316 160.009 201.103 159.299 200.676C158.588 200.25 158.022 199.664 157.6 198.919C157.179 198.174 156.968 197.324 156.968 196.369C156.968 195.418 157.184 194.555 157.615 193.781C158.051 193.007 158.659 192.394 159.438 191.943C160.222 191.487 161.141 191.264 162.195 191.274ZM162.202 193.185C161.629 193.185 161.112 193.328 160.651 193.612C160.195 193.891 159.835 194.271 159.571 194.751C159.306 195.227 159.174 195.756 159.174 196.339C159.174 196.922 159.301 197.452 159.556 197.927C159.816 198.397 160.168 198.772 160.614 199.052C161.065 199.326 161.58 199.463 162.158 199.463C162.589 199.463 162.991 199.38 163.364 199.213C163.736 199.047 164.062 198.816 164.341 198.522C164.621 198.223 164.839 197.885 164.996 197.508C165.153 197.131 165.231 196.734 165.231 196.317C165.231 195.763 165.099 195.249 164.834 194.773C164.574 194.298 164.216 193.916 163.761 193.627C163.305 193.333 162.785 193.185 162.202 193.185ZM176.624 203.712V202.918C176.624 202.35 176.742 201.83 176.977 201.36C177.217 200.885 177.565 200.505 178.021 200.221C178.482 199.931 179.038 199.787 179.69 199.787C180.356 199.787 180.915 199.929 181.366 200.213C181.817 200.497 182.157 200.877 182.388 201.353C182.623 201.828 182.74 202.35 182.74 202.918V203.712C182.74 204.281 182.623 204.803 182.388 205.278C182.152 205.749 181.807 206.128 181.351 206.418C180.9 206.702 180.346 206.844 179.69 206.844C179.028 206.844 178.469 206.702 178.014 206.418C177.558 206.128 177.212 205.749 176.977 205.278C176.742 204.803 176.624 204.281 176.624 203.712ZM178.337 202.918V203.712C178.337 204.134 178.438 204.516 178.638 204.859C178.839 205.202 179.19 205.374 179.69 205.374C180.185 205.374 180.53 205.202 180.726 204.859C180.922 204.516 181.02 204.134 181.02 203.712V202.918C181.02 202.497 180.925 202.115 180.734 201.772C180.547 201.429 180.199 201.257 179.69 201.257C179.2 201.257 178.852 201.429 178.646 201.772C178.44 202.115 178.337 202.497 178.337 202.918ZM169.053 195.097V194.303C169.053 193.734 169.17 193.212 169.405 192.737C169.646 192.262 169.994 191.882 170.449 191.598C170.91 191.313 171.466 191.171 172.118 191.171C172.785 191.171 173.343 191.313 173.794 191.598C174.245 191.882 174.586 192.262 174.816 192.737C175.046 193.212 175.161 193.734 175.161 194.303V195.097C175.161 195.665 175.044 196.187 174.809 196.663C174.578 197.133 174.235 197.513 173.779 197.802C173.329 198.086 172.775 198.228 172.118 198.228C171.452 198.228 170.89 198.086 170.435 197.802C169.984 197.513 169.641 197.133 169.405 196.663C169.17 196.187 169.053 195.665 169.053 195.097ZM170.773 194.303V195.097C170.773 195.518 170.871 195.901 171.067 196.244C171.268 196.587 171.618 196.758 172.118 196.758C172.608 196.758 172.951 196.587 173.147 196.244C173.348 195.901 173.449 195.518 173.449 195.097V194.303C173.449 193.881 173.353 193.499 173.162 193.156C172.971 192.813 172.623 192.642 172.118 192.642C171.628 192.642 171.28 192.813 171.074 193.156C170.873 193.499 170.773 193.881 170.773 194.303ZM169.751 206.535L180.101 191.48H181.858L171.508 206.535H169.751Z" fill="#E9EEF1"/>
<path d="M31.8922 78.0312V62.9761H41.2281V64.9315H34.1637V69.5186H40.5592V71.4667H34.1637V78.0312H31.8922ZM45.5074 78.2812C44.7919 78.2812 44.145 78.1489 43.5667 77.8842C42.9884 77.6147 42.5302 77.2251 42.1921 76.7154C41.8588 76.2057 41.6922 75.5809 41.6922 74.8409C41.6922 74.2038 41.8147 73.6794 42.0597 73.2677C42.3048 72.856 42.6356 72.5301 43.0521 72.29C43.4687 72.0499 43.9343 71.8685 44.4489 71.746C44.9634 71.6235 45.4878 71.5304 46.022 71.4667C46.6983 71.3883 47.2472 71.3246 47.6687 71.2756C48.0901 71.2216 48.3964 71.1359 48.5875 71.0183C48.7787 70.9006 48.8742 70.7095 48.8742 70.4449V70.3934C48.8742 69.7514 48.6929 69.254 48.3303 68.9011C47.9725 68.5483 47.4383 68.3719 46.7277 68.3719C45.9877 68.3719 45.4045 68.536 44.9781 68.8644C44.5567 69.1878 44.2651 69.548 44.1034 69.945L42.0377 69.4745C42.2827 68.7884 42.6405 68.2346 43.1109 67.8132C43.5863 67.3868 44.1328 67.0781 44.7503 66.8869C45.3677 66.6909 46.0171 66.5929 46.6983 66.5929C47.1492 66.5929 47.627 66.6468 48.1318 66.7546C48.6415 66.8575 49.1168 67.0486 49.5579 67.328C50.0039 67.6073 50.369 68.0067 50.6532 68.5262C50.9375 69.0408 51.0796 69.7098 51.0796 70.5331V78.0312H48.933V76.4875H48.8448C48.7027 76.7718 48.4895 77.0511 48.2053 77.3255C47.921 77.6 47.5559 77.8279 47.11 78.0092C46.664 78.1905 46.1298 78.2812 45.5074 78.2812ZM45.9852 76.5169C46.5929 76.5169 47.1124 76.3968 47.5437 76.1567C47.9799 75.9166 48.3107 75.6029 48.5361 75.2158C48.7664 74.8237 48.8816 74.4047 48.8816 73.9587V72.5032C48.8032 72.5816 48.6513 72.6551 48.4258 72.7237C48.2053 72.7874 47.9529 72.8438 47.6687 72.8928C47.3844 72.9369 47.1075 72.9786 46.838 73.0178C46.5684 73.0521 46.343 73.0815 46.1617 73.106C45.7353 73.1599 45.3457 73.2506 44.9928 73.378C44.6449 73.5054 44.3655 73.6892 44.1548 73.9293C43.949 74.1646 43.8461 74.4782 43.8461 74.8703C43.8461 75.4142 44.047 75.8259 44.4489 76.1053C44.8507 76.3797 45.3628 76.5169 45.9852 76.5169ZM52.4239 78.0312V66.7399H54.6219V78.0312H52.4239ZM53.534 64.9977C53.1517 64.9977 52.8233 64.8703 52.5489 64.6154C52.2794 64.3557 52.1446 64.0469 52.1446 63.6892C52.1446 63.3265 52.2794 63.0178 52.5489 62.7629C52.8233 62.5032 53.1517 62.3733 53.534 62.3733C53.9162 62.3733 54.2421 62.5032 54.5117 62.7629C54.7861 63.0178 54.9233 63.3265 54.9233 63.6892C54.9233 64.0469 54.7861 64.3557 54.5117 64.6154C54.2421 64.8703 53.9162 64.9977 53.534 64.9977ZM58.1937 62.9761V78.0312H55.9957V62.9761H58.1937ZM66.7201 73.3486V66.7399H68.9254V78.0312H66.7642V76.0758H66.6466C66.3868 76.6786 65.9703 77.181 65.3969 77.5828C64.8284 77.9798 64.1202 78.1783 63.2724 78.1783C62.5471 78.1783 61.9051 78.019 61.3464 77.7004C60.7926 77.377 60.3565 76.8992 60.0379 76.267C59.7243 75.6348 59.5674 74.8531 59.5674 73.922V66.7399H61.7654V73.6573C61.7654 74.4267 61.9786 75.0393 62.405 75.4951C62.8313 75.9509 63.3851 76.1788 64.0663 76.1788C64.478 76.1788 64.8872 76.0758 65.294 75.87C65.7056 75.6642 66.0462 75.353 66.3158 74.9364C66.5902 74.5199 66.725 73.9906 66.7201 73.3486ZM70.2955 78.0312V66.7399H72.42V68.5336H72.5376C72.7435 67.9259 73.1061 67.4481 73.6256 67.1001C74.15 66.7472 74.743 66.5708 75.4046 66.5708C75.5418 66.5708 75.7035 66.5757 75.8897 66.5855C76.0809 66.5953 76.2303 66.6076 76.3382 66.6223V68.7247C76.2499 68.7002 76.0931 68.6732 75.8677 68.6438C75.6423 68.6095 75.4168 68.5924 75.1914 68.5924C74.6719 68.5924 74.2088 68.7027 73.802 68.9232C73.4002 69.1388 73.0816 69.4402 72.8464 69.8274C72.6111 70.2096 72.4935 70.6458 72.4935 71.1359V78.0312H70.2955ZM81.1192 78.2591C80.0067 78.2591 79.0486 78.0214 78.2449 77.5461C77.4461 77.0658 76.8286 76.3919 76.3924 75.5245C75.9611 74.6522 75.7455 73.6304 75.7455 72.4591C75.7455 71.3025 75.9611 70.2831 76.3924 69.401C76.8286 68.5189 77.4363 67.8303 78.2155 67.3353C78.9996 66.8404 79.916 66.5929 80.9648 66.5929C81.6019 66.5929 82.2194 66.6982 82.8173 66.909C83.4152 67.1197 83.9518 67.4505 84.4272 67.9014C84.9026 68.3522 85.2775 68.9379 85.5519 69.6583C85.8264 70.3738 85.9636 71.2437 85.9636 72.268V73.0472H76.9878V71.4005H83.8097C83.8097 70.8222 83.6921 70.3101 83.4568 69.8641C83.2216 69.4133 82.8908 69.058 82.4644 68.7982C82.043 68.5385 81.548 68.4086 80.9795 68.4086C80.362 68.4086 79.8229 68.5605 79.3623 68.8644C78.9065 69.1633 78.5536 69.5554 78.3037 70.0406C78.0586 70.5208 77.9361 71.0428 77.9361 71.6064V72.8928C77.9361 73.6475 78.0684 74.2895 78.3331 74.8188C78.6026 75.3481 78.9775 75.7524 79.4578 76.0317C79.9381 76.3062 80.4992 76.4434 81.1412 76.4434C81.5578 76.4434 81.9376 76.3846 82.2807 76.267C82.6237 76.1445 82.9202 75.9631 83.1701 75.723C83.4201 75.4829 83.6112 75.1864 83.7435 74.8335L85.8239 75.2084C85.6573 75.821 85.3583 76.3576 84.9271 76.8183C84.5007 77.2741 83.9641 77.6294 83.3172 77.8842C82.6752 78.1342 81.9425 78.2591 81.1192 78.2591ZM45.9278 103.237C44.9183 103.237 44.0165 103.063 43.2226 102.715C42.4336 102.367 41.8087 101.884 41.3481 101.267C40.8923 100.645 40.6473 99.9242 40.613 99.1057H42.9212C42.9506 99.5517 43.1001 99.9389 43.3696 100.267C43.6441 100.591 44.0018 100.841 44.4429 101.017C44.884 101.193 45.374 101.282 45.9131 101.282C46.5061 101.282 47.0305 101.179 47.4863 100.973C47.9469 100.767 48.3072 100.48 48.5669 100.113C48.8266 99.7404 48.9565 99.3116 48.9565 98.8264C48.9565 98.3216 48.8266 97.8781 48.5669 97.4958C48.3121 97.1087 47.9371 96.8048 47.4422 96.5843C46.9521 96.3638 46.3591 96.2535 45.6632 96.2535H44.3914V94.401H45.6632C46.2219 94.401 46.712 94.3005 47.1334 94.0996C47.5598 93.8987 47.893 93.6193 48.1332 93.2616C48.3733 92.8989 48.4934 92.475 48.4934 91.9898C48.4934 91.5243 48.388 91.12 48.1773 90.7769C47.9715 90.4289 47.6774 90.157 47.2951 89.9609C46.9178 89.7649 46.4718 89.6669 45.9572 89.6669C45.4672 89.6669 45.0089 89.7575 44.5826 89.9389C44.1611 90.1153 43.8181 90.3701 43.5534 90.7034C43.2888 91.0317 43.1467 91.4262 43.1271 91.8869H40.9291C40.9536 91.0734 41.1937 90.3579 41.6495 89.7404C42.1101 89.1229 42.7178 88.6402 43.4726 88.2922C44.2273 87.9443 45.0653 87.7703 45.9866 87.7703C46.9521 87.7703 47.7852 87.959 48.486 88.3363C49.1917 88.7088 49.7357 89.2062 50.118 89.8286C50.5051 90.451 50.6963 91.1322 50.6914 91.8722C50.6963 92.7152 50.461 93.4307 49.9857 94.0188C49.5152 94.6068 48.8879 95.0014 48.1038 95.2023V95.3199C49.1035 95.4718 49.8778 95.8688 50.4267 96.5108C50.9805 97.1528 51.255 97.9492 51.2501 98.8999C51.255 99.7281 51.0246 100.471 50.5591 101.127C50.0984 101.784 49.4686 102.301 48.6698 102.678C47.871 103.051 46.957 103.237 45.9278 103.237ZM58.1574 87.9761V103.031H55.8785V90.255H55.7903L52.1883 92.6073V90.4314L55.9447 87.9761H58.1574ZM68.5051 100.208V99.4145C68.5051 98.846 68.6227 98.3265 68.8579 97.856C69.098 97.3807 69.446 97.0009 69.9018 96.7166C70.3624 96.4275 70.9187 96.2829 71.5705 96.2829C72.237 96.2829 72.7957 96.425 73.2465 96.7093C73.6974 96.9935 74.038 97.3733 74.2683 97.8487C74.5036 98.3241 74.6212 98.846 74.6212 99.4145V100.208C74.6212 100.777 74.5036 101.299 74.2683 101.774C74.0331 102.245 73.6876 102.624 73.2318 102.914C72.781 103.198 72.2272 103.34 71.5705 103.34C70.9089 103.34 70.3502 103.198 69.8944 102.914C69.4386 102.624 69.0931 102.245 68.8579 101.774C68.6227 101.299 68.5051 100.777 68.5051 100.208ZM70.2179 99.4145V100.208C70.2179 100.63 70.3183 101.012 70.5193 101.355C70.7202 101.698 71.0706 101.87 71.5705 101.87C72.0655 101.87 72.411 101.698 72.607 101.355C72.803 101.012 72.901 100.63 72.901 100.208V99.4145C72.901 98.993 72.8055 98.6108 72.6143 98.2677C72.4281 97.9247 72.0802 97.7531 71.5705 97.7531C71.0804 97.7531 70.7324 97.9247 70.5266 98.2677C70.3208 98.6108 70.2179 98.993 70.2179 99.4145ZM60.9334 91.5929V90.799C60.9334 90.2305 61.051 89.7085 61.2862 89.2332C61.5264 88.7578 61.8743 88.378 62.3301 88.0937C62.7908 87.8095 63.347 87.6674 63.9988 87.6674C64.6653 87.6674 65.224 87.8095 65.6749 88.0937C66.1257 88.378 66.4663 88.7578 66.6967 89.2332C66.927 89.7085 67.0422 90.2305 67.0422 90.799V91.5929C67.0422 92.1614 66.9246 92.6833 66.6893 93.1587C66.459 93.6291 66.1159 94.009 65.6602 94.2981C65.2093 94.5823 64.6555 94.7245 63.9988 94.7245C63.3323 94.7245 62.7712 94.5823 62.3154 94.2981C61.8645 94.009 61.5215 93.6291 61.2862 93.1587C61.051 92.6833 60.9334 92.1614 60.9334 91.5929ZM62.6535 90.799V91.5929C62.6535 92.0143 62.7516 92.3966 62.9476 92.7397C63.1485 93.0827 63.4989 93.2542 63.9988 93.2542C64.4889 93.2542 64.8319 93.0827 65.028 92.7397C65.2289 92.3966 65.3294 92.0143 65.3294 91.5929V90.799C65.3294 90.3775 65.2338 89.9952 65.0427 89.6522C64.8515 89.3091 64.5036 89.1376 63.9988 89.1376C63.5087 89.1376 63.1608 89.3091 62.9549 89.6522C62.754 89.9952 62.6535 90.3775 62.6535 90.799ZM61.6317 103.031L71.9821 87.9761H73.7391L63.3887 103.031H61.6317Z" fill="#E9EEF1"/>
<defs>
<linearGradient id="paint0_linear_3415_20048" x1="129.382" y1="259" x2="129.382" y2="0.239948" gradientUnits="userSpaceOnUse">
<stop stop-color="#0B88E5"/>
<stop offset="1" stop-color="#084471"/>
</linearGradient>
<linearGradient id="paint1_linear_3415_20048" x1="129.38" y1="0.238281" x2="129.38" y2="258.998" gradientUnits="userSpaceOnUse">
<stop stop-color="#99FAF4"/>
<stop offset="1" stop-color="#0D99FF"/>
</linearGradient>
</defs>
</svg>
